<?xml version="1.0" encoding="utf-8"?>
<!-- Generator: Adobe Illustrator 20.0.0, SVG Export Plug-In . SVG Version: 6.00 Build 0)  -->
<svg version="1.1" id="Layer_1" xmlns="http://www.w3.org/2000/svg" xmlns:xlink="http://www.w3.org/1999/xlink" x="0px" y="0px"
	 viewBox="0 0 25 25" style="enable-background:new 0 0 25 25;" xml:space="preserve">
<style type="text/css">
	.st0{fill:#0F5CCC;}
	.st1{fill:none;stroke:#0F5CCC;stroke-width:1.5;stroke-miterlimit:10;}
</style>
<g>
	<path class="st0" d="M18.2,17.3c0.4,0,0.8,0.1,1,0.4c0.2,0.2,0.4,0.6,0.4,1c0,0.5-0.1,0.9-0.4,1.1c-0.3,0.3-0.7,0.4-1.3,0.4
		c-0.5,0-0.9-0.1-1.2-0.2v-0.8c0.2,0.1,0.3,0.2,0.5,0.2c0.2,0.1,0.4,0.1,0.6,0.1c0.6,0,0.8-0.2,0.8-0.7c0-0.4-0.3-0.7-0.9-0.7
		c-0.1,0-0.2,0-0.3,0c-0.1,0-0.2,0-0.3,0.1L16.8,18l0.2-2.2h2.4v0.8h-1.5l-0.1,0.9l0.1,0C17.9,17.3,18.1,17.3,18.2,17.3z"/>
</g>
<g>
	<path class="st0" d="M6.9,6.7c0.4,0,0.8,0.1,1,0.4c0.2,0.2,0.4,0.6,0.4,1c0,0.5-0.1,0.9-0.4,1.1C7.5,9.4,7.1,9.5,6.5,9.5
		C6,9.5,5.6,9.4,5.3,9.3V8.5c0.2,0.1,0.3,0.2,0.5,0.2c0.2,0.1,0.4,0.1,0.6,0.1c0.6,0,0.8-0.2,0.8-0.7c0-0.4-0.3-0.7-0.9-0.7
		c-0.1,0-0.2,0-0.3,0c-0.1,0-0.2,0-0.3,0.1L5.4,7.3l0.2-2.2h2.4v0.8H6.4L6.3,6.7l0.1,0C6.5,6.7,6.7,6.7,6.9,6.7z"/>
</g>
<rect x="2.6" y="3.1" class="st1" width="8.3" height="8.3"/>
<rect x="14" y="3.1" class="st1" width="8.3" height="8.3"/>
<rect x="2.6" y="13.8" class="st1" width="8.3" height="8.3"/>
<rect x="14" y="13.8" class="st1" width="8.3" height="8.3"/>
</svg>
