<?xml version="1.0" encoding="utf-8"?>
<!-- Generator: Adobe Illustrator 20.0.0, SVG Export Plug-In . SVG Version: 6.00 Build 0)  -->
<svg version="1.1" id="Layer_1" xmlns="http://www.w3.org/2000/svg" xmlns:xlink="http://www.w3.org/1999/xlink" x="0px" y="0px"
	 viewBox="0 0 25 25" style="enable-background:new 0 0 25 25;" xml:space="preserve">
<style type="text/css">
	.st0{fill:#0F5CCC;}
</style>
<g>
	<path class="st0" d="M8.3,10.2H6.9V6.5l0-0.6l0-0.7C6.7,5.5,6.6,5.6,6.5,5.7L5.8,6.3L5.1,5.5l2.1-1.6h1.1V10.2z"/>
</g>
<g>
	<path class="st0" d="M20,10.3h-4.5V9.3l1.6-1.6c0.5-0.5,0.8-0.8,0.9-1c0.1-0.2,0.3-0.4,0.3-0.5s0.1-0.3,0.1-0.5
		c0-0.3-0.1-0.4-0.2-0.6c-0.1-0.1-0.3-0.2-0.6-0.2c-0.2,0-0.5,0.1-0.7,0.2s-0.5,0.3-0.7,0.5l-0.7-0.9c0.3-0.3,0.6-0.5,0.8-0.6
		s0.4-0.2,0.7-0.3c0.2-0.1,0.5-0.1,0.8-0.1c0.4,0,0.8,0.1,1.1,0.2s0.5,0.4,0.7,0.6s0.3,0.6,0.3,0.9c0,0.3-0.1,0.6-0.2,0.8
		c-0.1,0.3-0.3,0.5-0.5,0.8C19,7.4,18.6,7.8,18,8.3l-0.8,0.8v0.1H20V10.3z"/>
</g>
<g>
	<path class="st0" d="M10,15c0,0.4-0.1,0.7-0.4,1s-0.6,0.5-1,0.6v0c0.5,0.1,0.9,0.2,1.2,0.5c0.3,0.2,0.4,0.6,0.4,1
		c0,0.6-0.2,1.1-0.7,1.4c-0.4,0.3-1.1,0.5-1.9,0.5c-0.7,0-1.3-0.1-1.9-0.3v-1.2c0.2,0.1,0.5,0.2,0.8,0.3S7.2,19,7.5,19
		c0.4,0,0.8-0.1,1-0.2c0.2-0.2,0.3-0.4,0.3-0.7c0-0.3-0.1-0.5-0.4-0.6s-0.6-0.2-1.2-0.2H6.7v-1h0.5c0.5,0,0.9-0.1,1.1-0.2
		c0.2-0.1,0.3-0.4,0.3-0.7c0-0.5-0.3-0.7-0.9-0.7c-0.2,0-0.4,0-0.6,0.1S6.7,14.9,6.4,15l-0.6-0.9c0.6-0.4,1.3-0.6,2.1-0.6
		c0.7,0,1.2,0.1,1.6,0.4C9.8,14.1,10,14.5,10,15z"/>
</g>
<g>
	<path class="st0" d="M20.2,18.7h-0.8v1.3h-1.3v-1.3h-2.7v-0.9l2.8-4.1h1.3v4h0.8V18.7z M18.1,17.7v-1.1c0-0.2,0-0.4,0-0.8
		c0-0.3,0-0.5,0-0.6h0c-0.1,0.2-0.2,0.5-0.4,0.7l-1.2,1.8H18.1z"/>
</g>
</svg>
