<?xml version="1.0" encoding="utf-8"?>
<!-- Generator: Adobe Illustrator 20.0.0, SVG Export Plug-In . SVG Version: 6.00 Build 0)  -->
<svg version="1.1" id="Layer_1" xmlns="http://www.w3.org/2000/svg" xmlns:xlink="http://www.w3.org/1999/xlink" x="0px" y="0px"
	 viewBox="0 0 25 25" style="enable-background:new 0 0 25 25;" xml:space="preserve">
<style type="text/css">
	.st0{fill:#0F5CCC;}
</style>
<g id="Layer_1_2_">
	
		<rect x="9.5" y="12.4" transform="matrix(1.228525e-02 -0.9999 0.9999 1.228525e-02 -0.6641 25.4234)" class="st0" width="6" height="1.3"/>
	
		<rect x="11.9" y="10" transform="matrix(1.228525e-02 -0.9999 0.9999 1.228525e-02 -0.7 25.3862)" class="st0" width="1.3" height="6"/>
</g>
<g>
	<path class="st0" d="M6.7,16.4l-0.3-0.9h0c-0.3,0.4-0.6,0.6-0.9,0.8c-0.3,0.1-0.7,0.2-1.2,0.2c-0.6,0-1.1-0.2-1.5-0.5
		c-0.4-0.4-0.5-0.9-0.5-1.5c0-0.7,0.2-1.2,0.7-1.5c0.5-0.3,1.2-0.5,2.2-0.5l1.1,0V12c0-0.7-0.3-1-1-1c-0.5,0-1.1,0.2-1.8,0.5
		l-0.6-1.2c0.8-0.4,1.6-0.6,2.5-0.6c0.9,0,1.5,0.2,2,0.6C7.7,10.7,8,11.2,8,12v4.3H6.7z M6.2,13.3l-0.7,0c-0.5,0-0.9,0.1-1.2,0.3
		C4.1,13.8,4,14.1,4,14.4c0,0.5,0.3,0.8,0.9,0.8c0.4,0,0.7-0.1,1-0.4c0.2-0.2,0.4-0.6,0.4-0.9V13.3z"/>
</g>
<g>
	<path class="st0" d="M21.5,16.4l-0.3-0.9h0c-0.3,0.4-0.6,0.6-0.9,0.8c-0.3,0.1-0.7,0.2-1.2,0.2c-0.6,0-1.1-0.2-1.5-0.5
		c-0.4-0.4-0.5-0.9-0.5-1.5c0-0.7,0.2-1.2,0.7-1.5c0.5-0.3,1.2-0.5,2.2-0.5l1.1,0V12c0-0.7-0.3-1-1-1c-0.5,0-1.1,0.2-1.8,0.5
		l-0.6-1.2c0.8-0.4,1.6-0.6,2.5-0.6c0.9,0,1.5,0.2,2,0.6c0.5,0.4,0.7,1,0.7,1.7v4.3H21.5z M21,13.3l-0.7,0c-0.5,0-0.9,0.1-1.2,0.3
		s-0.4,0.4-0.4,0.8c0,0.5,0.3,0.8,0.9,0.8c0.4,0,0.7-0.1,1-0.4c0.2-0.2,0.4-0.6,0.4-0.9V13.3z"/>
</g>
</svg>
