<?xml version="1.0" encoding="utf-8"?>
<!-- Generator: Adobe Illustrator 20.0.0, SVG Export Plug-In . SVG Version: 6.00 Build 0)  -->
<svg version="1.1" xmlns="http://www.w3.org/2000/svg" xmlns:xlink="http://www.w3.org/1999/xlink" x="0px" y="0px"
	 viewBox="0 0 25 25" style="enable-background:new 0 0 25 25;" xml:space="preserve">
<style type="text/css">
	.st0{fill:#0F5CCC;}
	.st1{display:none;}
	.st2{display:inline;}
	.st3{clip-path:url(#SVGID_2_);fill:#0F5CCC;}
	.st4{display:inline;fill:#0F5CCC;}
</style>
<g id="Layer_1">
	<path class="st0" d="M22,12.3c-0.2,0-0.4,0-0.6,0.1l-2.1-3c0.3-0.3,0.4-0.7,0.4-1.1c0-1-0.8-1.8-1.8-1.8c-0.6,0-1.2,0.3-1.5,0.8
		l-3.9-1.3c0,0,0,0,0-0.1c0-1-0.8-1.8-1.8-1.8S8.8,4.8,8.8,5.8c0,0.2,0,0.4,0.1,0.6L5,9.1C4.6,8.8,4.3,8.7,3.8,8.7
		c-1,0-1.8,0.8-1.8,1.8s0.8,1.8,1.8,1.8c0.6,0,1.2-0.3,1.5-0.8l4.9,1.7c0,0,0,0,0,0.1c0,1,0.8,1.8,1.8,1.8c0.3,0,0.6-0.1,0.8-0.2
		l4.3,4.5C17.1,19.7,17,20,17,20.4c0,1,0.8,1.8,1.8,1.8s1.8-0.8,1.8-1.8c0-0.5-0.2-1-0.6-1.3l1.6-3.1c0.1,0,0.2,0,0.3,0
		c1,0,1.8-0.8,1.8-1.8C23.9,13.2,23,12.3,22,12.3z M13.9,13c0-0.1-0.1-0.3-0.1-0.4l3.2-2.8c0.3,0.2,0.6,0.3,1,0.3
		c0.2,0,0.4,0,0.6-0.1l2.1,3c-0.1,0.1-0.2,0.3-0.3,0.5L13.9,13z M16.1,8.2C16.1,8.3,16.1,8.3,16.1,8.2c0,0.3,0.1,0.6,0.2,0.8
		l-3.2,2.8c-0.2-0.1-0.5-0.3-0.8-0.3l-0.8-4C11.8,7.4,12,7.2,12.2,7L16.1,8.2z M5.6,10.6C5.6,10.5,5.6,10.5,5.6,10.6
		c0-0.3,0-0.4-0.1-0.6l3.9-2.7c0.3,0.2,0.6,0.4,1,0.4l0.8,4c-0.3,0.1-0.5,0.3-0.7,0.6L5.6,10.6z M19.2,18.6c-0.1,0-0.2,0-0.3,0
		c-0.3,0-0.6,0.1-0.8,0.2l-4.3-4.5c0-0.1,0.1-0.1,0.1-0.2l6.4,0.6c0.1,0.4,0.3,0.7,0.5,1L19.2,18.6z"/>
</g>
<g id="Layer_2" class="st1">
	<g class="st2">
		<defs>
			<rect id="SVGID_1_" x="1.5" y="0.8" width="22.2" height="22.8"/>
		</defs>
		<clipPath id="SVGID_2_">
			<use xlink:href="#SVGID_1_"  style="overflow:visible;"/>
		</clipPath>
		<path class="st3" d="M13.5,10.4l0.6,1l0.6-1c0.4-0.6,0.9-1.3,1.4-2c0.4-0.5,0.9-1.1,1.3-1.5c-0.3-0.3-0.6-0.7-1-1.1
			c-0.5,0.5-1,1.1-1.5,1.7c-0.3,0.4-0.6,0.7-0.8,1.1c-0.2-0.3-0.4-0.5-0.6-0.8l-0.2-0.2C13.2,7.7,13,7.9,12.8,8
			c-0.2,0.2-0.4,0.4-0.6,0.5l0.1,0.1C12.7,9.2,13.1,9.8,13.5,10.4"/>
		<path class="st3" d="M13.5,16.9l0.6,1l0.6-1c0.4-0.6,0.9-1.3,1.4-2c0.4-0.5,0.9-1.1,1.3-1.5c-0.3-0.3-0.6-0.7-1-1.1
			c-0.5,0.5-1,1.1-1.5,1.7c-0.3,0.4-0.6,0.7-0.8,1.1c-0.2-0.3-0.4-0.5-0.6-0.8l-0.2-0.2c-0.2,0.1-0.3,0.3-0.5,0.4
			c-0.2,0.2-0.4,0.4-0.6,0.5l0.1,0.1C12.7,15.7,13.1,16.3,13.5,16.9"/>
		<path class="st3" d="M8.6,10.1c0.3,0,0.6-0.1,0.9-0.4c0.3-0.2,0.4-0.5,0.4-0.9c0-0.3-0.1-0.6-0.4-0.9C9.2,7.8,8.9,7.6,8.6,7.6
			S8,7.8,7.7,8C7.5,8.2,7.3,8.5,7.3,8.9c0,0.3,0.1,0.6,0.4,0.9C7.9,10,8.2,10.1,8.6,10.1"/>
		<path class="st3" d="M8.6,17.6c0.3,0,0.6-0.1,0.9-0.4c0.3-0.2,0.4-0.5,0.4-0.9c0-0.3-0.1-0.6-0.4-0.9c-0.2-0.2-0.5-0.4-0.9-0.4
			S8,15.2,7.7,15.5c-0.2,0.3-0.4,0.5-0.4,0.9c0,0.3,0.1,0.6,0.4,0.9C7.9,17.4,8.2,17.6,8.6,17.6"/>
	</g>
	<path class="st4" d="M4.3,3.5H21v17.3H4.3V3.5z M23.6,0.8L1.5,0.9l0.1,22.7l22.1-0.1L23.6,0.8z"/>
</g>
</svg>
