<?xml version="1.0" encoding="utf-8"?>
<!-- Generator: Adobe Illustrator 20.0.0, SVG Export Plug-In . SVG Version: 6.00 Build 0)  -->
<svg version="1.1" xmlns="http://www.w3.org/2000/svg" xmlns:xlink="http://www.w3.org/1999/xlink" x="0px" y="0px"
	 viewBox="0 0 25 25" style="enable-background:new 0 0 25 25;" xml:space="preserve">
<style type="text/css">
	.st0{fill:#0F5CCC;}
	.st1{display:none;}
	.st2{display:inline;}
	.st3{clip-path:url(#SVGID_2_);fill:#0F5CCC;}
	.st4{display:inline;fill:#0F5CCC;}
</style>
<g id="Layer_1">
	<g>
		<path class="st0" d="M11.9,15.8H3.3v-1.8l3.1-3.1c0.9-0.9,1.5-1.6,1.8-2c0.3-0.4,0.5-0.7,0.6-1C8.9,7.5,9,7.2,9,6.9
			C9,6.4,8.8,6,8.6,5.8C8.3,5.5,7.9,5.4,7.5,5.4C7,5.4,6.5,5.5,6.1,5.7C5.6,6,5.2,6.3,4.7,6.7L3.3,5c0.6-0.5,1.1-0.9,1.5-1.1
			c0.4-0.2,0.8-0.4,1.3-0.5c0.5-0.1,1-0.2,1.6-0.2c0.8,0,1.5,0.1,2,0.4s1,0.7,1.4,1.2c0.3,0.5,0.5,1.1,0.5,1.7
			c0,0.6-0.1,1.1-0.3,1.6s-0.5,1-0.9,1.5c-0.4,0.5-1.2,1.3-2.2,2.2l-1.6,1.5v0.1h5.4V15.8z"/>
	</g>
	<path class="st0" d="M13.2,21.5L11,21.8c-0.3,0-0.6-0.2-0.5-0.5l0.3-2.2c0-0.4,0.3-0.8,0.5-1l7.3-7.3c0.3-0.3,0.9-0.3,1.3,0
		l1.6,1.6c0.3,0.3,0.3,0.9,0,1.3L14.2,21C14,21.3,13.6,21.4,13.2,21.5z"/>
	<path class="st0" d="M22.7,12.5l1-1c0.3-0.3,0.3-0.9,0-1.2l-1.5-1.5c-0.3-0.3-0.9-0.3-1.2,0l-1,1L22.7,12.5z"/>
</g>
<g id="Layer_2" class="st1">
	<g class="st2">
		<defs>
			<rect id="SVGID_1_" x="1.5" y="0.8" width="22.2" height="22.8"/>
		</defs>
		<clipPath id="SVGID_2_">
			<use xlink:href="#SVGID_1_"  style="overflow:visible;"/>
		</clipPath>
		<path class="st3" d="M13.5,10.4l0.6,1l0.6-1c0.4-0.6,0.9-1.3,1.4-2c0.4-0.5,0.9-1.1,1.3-1.5c-0.3-0.3-0.6-0.7-1-1.1
			c-0.5,0.5-1,1.1-1.5,1.7c-0.3,0.4-0.6,0.7-0.8,1.1c-0.2-0.3-0.4-0.5-0.6-0.8l-0.2-0.2C13.2,7.7,13,7.9,12.8,8
			c-0.2,0.2-0.4,0.4-0.6,0.5l0.1,0.1C12.7,9.2,13.1,9.8,13.5,10.4"/>
		<path class="st3" d="M13.5,16.9l0.6,1l0.6-1c0.4-0.6,0.9-1.3,1.4-2c0.4-0.5,0.9-1.1,1.3-1.5c-0.3-0.3-0.6-0.7-1-1.1
			c-0.5,0.5-1,1.1-1.5,1.7c-0.3,0.4-0.6,0.7-0.8,1.1c-0.2-0.3-0.4-0.5-0.6-0.8l-0.2-0.2c-0.2,0.1-0.3,0.3-0.5,0.4
			c-0.2,0.2-0.4,0.4-0.6,0.5l0.1,0.1C12.7,15.7,13.1,16.3,13.5,16.9"/>
		<path class="st3" d="M8.6,10.1c0.3,0,0.6-0.1,0.9-0.4c0.3-0.2,0.4-0.5,0.4-0.9c0-0.3-0.1-0.6-0.4-0.9C9.2,7.8,8.9,7.6,8.6,7.6
			S8,7.8,7.7,8C7.5,8.2,7.3,8.5,7.3,8.9c0,0.3,0.1,0.6,0.4,0.9C7.9,10,8.2,10.1,8.6,10.1"/>
		<path class="st3" d="M8.6,17.6c0.3,0,0.6-0.1,0.9-0.4c0.3-0.2,0.4-0.5,0.4-0.9c0-0.3-0.1-0.6-0.4-0.9c-0.2-0.2-0.5-0.4-0.9-0.4
			S8,15.2,7.7,15.5c-0.2,0.3-0.4,0.5-0.4,0.9c0,0.3,0.1,0.6,0.4,0.9C7.9,17.4,8.2,17.6,8.6,17.6"/>
	</g>
	<path class="st4" d="M4.3,3.5H21v17.3H4.3V3.5z M23.6,0.8L1.5,0.9l0.1,22.7l22.1-0.1L23.6,0.8z"/>
</g>
</svg>
