<?xml version="1.0" encoding="utf-8"?>
<!-- Generator: Adobe Illustrator 20.0.0, SVG Export Plug-In . SVG Version: 6.00 Build 0)  -->
<svg version="1.1" id="Layer_1" xmlns="http://www.w3.org/2000/svg" xmlns:xlink="http://www.w3.org/1999/xlink" x="0px" y="0px"
	 viewBox="0 0 25 25" style="enable-background:new 0 0 25 25;" xml:space="preserve">
<style type="text/css">
	.st0{display:none;}
	.st1{display:inline;}
	.st2{clip-path:url(#SVGID_2_);fill:#0F5CCC;}
	.st3{clip-path:url(#SVGID_4_);fill:#0F5CCC;}
	.st4{clip-path:url(#SVGID_6_);fill:#0F5CCC;}
	.st5{clip-path:url(#SVGID_8_);fill:#0F5CCC;}
	.st6{display:inline;fill:#0F5CCC;}
	.st7{fill:#0F5CCC;}
</style>
<g id="Layer_2" class="st0">
	<g class="st1">
		<g>
			<g>
				<defs>
					<rect id="SVGID_1_" x="1.5" y="0.8" width="22.2" height="22.8"/>
				</defs>
				<clipPath id="SVGID_2_">
					<use xlink:href="#SVGID_1_"  style="overflow:visible;"/>
				</clipPath>
				<path class="st2" d="M13.5,10.4l0.6,1l0.6-1c0.4-0.6,0.9-1.3,1.4-2c0.4-0.5,0.9-1.1,1.3-1.5c-0.3-0.3-0.6-0.7-1-1.1
					c-0.5,0.5-1,1.1-1.5,1.7c-0.3,0.4-0.6,0.7-0.8,1.1c-0.2-0.3-0.4-0.5-0.6-0.8l-0.2-0.2C13.2,7.7,13,7.9,12.8,8
					c-0.2,0.2-0.4,0.4-0.6,0.5l0.1,0.1C12.7,9.2,13.1,9.8,13.5,10.4"/>
			</g>
		</g>
		<g>
			<g>
				<defs>
					<rect id="SVGID_3_" x="1.5" y="0.8" width="22.2" height="22.8"/>
				</defs>
				<clipPath id="SVGID_4_">
					<use xlink:href="#SVGID_3_"  style="overflow:visible;"/>
				</clipPath>
				<path class="st3" d="M13.5,16.9l0.6,1l0.6-1c0.4-0.6,0.9-1.3,1.4-2c0.4-0.5,0.9-1.1,1.3-1.5c-0.3-0.3-0.6-0.7-1-1.1
					c-0.5,0.5-1,1.1-1.5,1.7c-0.3,0.4-0.6,0.7-0.8,1.1c-0.2-0.3-0.4-0.5-0.6-0.8l-0.2-0.2c-0.2,0.1-0.3,0.3-0.5,0.4
					c-0.2,0.2-0.4,0.4-0.6,0.5l0.1,0.1C12.7,15.7,13.1,16.3,13.5,16.9"/>
			</g>
		</g>
		<g>
			<g>
				<defs>
					<rect id="SVGID_5_" x="1.5" y="0.8" width="22.2" height="22.8"/>
				</defs>
				<clipPath id="SVGID_6_">
					<use xlink:href="#SVGID_5_"  style="overflow:visible;"/>
				</clipPath>
				<path class="st4" d="M8.6,10.1c0.3,0,0.6-0.1,0.9-0.4c0.3-0.2,0.4-0.5,0.4-0.9c0-0.3-0.1-0.6-0.4-0.9C9.2,7.8,8.9,7.6,8.6,7.6
					S8,7.8,7.7,8C7.5,8.2,7.3,8.5,7.3,8.9c0,0.3,0.1,0.6,0.4,0.9C7.9,10,8.2,10.1,8.6,10.1"/>
			</g>
		</g>
		<g>
			<g>
				<defs>
					<rect id="SVGID_7_" x="1.5" y="0.8" width="22.2" height="22.8"/>
				</defs>
				<clipPath id="SVGID_8_">
					<use xlink:href="#SVGID_7_"  style="overflow:visible;"/>
				</clipPath>
				<path class="st5" d="M8.6,17.6c0.3,0,0.6-0.1,0.9-0.4c0.3-0.2,0.4-0.5,0.4-0.9c0-0.3-0.1-0.6-0.4-0.9C9.3,15.2,9,15,8.6,15
					S8,15.2,7.7,15.5c-0.2,0.3-0.4,0.5-0.4,0.9c0,0.3,0.1,0.6,0.4,0.9C7.9,17.4,8.2,17.6,8.6,17.6"/>
			</g>
		</g>
	</g>
	<path class="st6" d="M4.3,3.5H21v17.3H4.3V3.5z M23.6,0.8L1.5,0.9l0.1,22.7l22.1-0.1L23.6,0.8z"/>
</g>
<g>
	<path class="st7" d="M11,9.3c0,1.5-0.3,2.7-0.9,3.4s-1.5,1.1-2.6,1.1c-1.1,0-1.9-0.4-2.5-1.2C4.4,12,4.1,10.8,4.1,9.3
		c0-3,1.1-4.5,3.4-4.5c1.1,0,2,0.4,2.6,1.2C10.7,6.8,11,7.9,11,9.3z M6.6,9.4c0,0.8,0.1,1.5,0.2,1.9c0.1,0.4,0.4,0.6,0.7,0.6
		c0.6,0,1-0.8,1-2.5c0-1.7-0.3-2.5-1-2.5c-0.3,0-0.6,0.2-0.7,0.6C6.6,7.9,6.6,8.5,6.6,9.4z M17.8,5L9.7,19.5H7.4L15.4,5H17.8z
		 M21.1,15.1c0,1.5-0.3,2.7-0.9,3.4c-0.6,0.8-1.5,1.1-2.6,1.1c-1.1,0-1.9-0.4-2.5-1.2c-0.6-0.8-0.9-1.9-0.9-3.4c0-3,1.1-4.5,3.4-4.5
		c1.1,0,2,0.4,2.6,1.2S21.1,13.7,21.1,15.1z M16.7,15.2c0,0.8,0.1,1.5,0.2,1.9c0.1,0.4,0.4,0.6,0.7,0.6c0.6,0,1-0.8,1-2.5
		c0-1.7-0.3-2.5-1-2.5c-0.3,0-0.6,0.2-0.7,0.6C16.8,13.7,16.7,14.3,16.7,15.2z"/>
</g>
</svg>
