<?xml version="1.0" encoding="utf-8"?>
<!-- Generator: Adobe Illustrator 20.0.0, SVG Export Plug-In . SVG Version: 6.00 Build 0)  -->
<svg version="1.1" id="Layer_1" xmlns="http://www.w3.org/2000/svg" xmlns:xlink="http://www.w3.org/1999/xlink" x="0px" y="0px"
	 viewBox="0 0 800 600" style="enable-background:new 0 0 800 600;" xml:space="preserve">
<style type="text/css">
	.st0{fill:#01006A;}
	.st1{fill:#42E8E0;}
	.st2{fill:url(#SVGID_1_);}
	.st3{fill:url(#SVGID_2_);}
	.st4{opacity:0.3;fill:#24126A;}
	.st5{fill:#FFFFFF;}
	.st6{opacity:0.5;fill:url(#SVGID_3_);}
	.st7{opacity:0.5;fill:url(#SVGID_4_);}
	.st8{fill:url(#SVGID_5_);}
	.st9{fill:url(#SVGID_6_);}
	.st10{fill:#24126A;}
	.st11{opacity:0.51;}
	.st12{fill:#453C9E;}
	.st13{fill:url(#SVGID_7_);}
	.st14{fill:url(#SVGID_8_);}
	.st15{opacity:0.15;}
	.st16{clip-path:url(#SVGID_10_);}
	.st17{fill:url(#SVGID_11_);}
	.st18{fill:url(#SVGID_12_);}
	.st19{opacity:0.5;}
	.st20{opacity:0.8;}
	.st21{opacity:0.4;fill:#42E8E0;}
	.st22{fill:url(#SVGID_13_);}
	.st23{opacity:0.3;fill:#0F054C;}
	.st24{fill:url(#SVGID_14_);}
	.st25{fill:url(#SVGID_15_);}
	.st26{fill:url(#SVGID_16_);}
	.st27{opacity:0.5;fill:url(#SVGID_17_);}
	.st28{fill:url(#SVGID_18_);}
	.st29{fill:url(#SVGID_19_);}
	.st30{fill:#0F054C;}
	.st31{fill:#03002D;}
	.st32{fill:#5351AF;}
	.st33{fill:url(#SVGID_20_);}
	.st34{opacity:0.5;fill:url(#SVGID_21_);}
	.st35{fill:url(#SVGID_22_);}
	.st36{fill:url(#SVGID_23_);}
	.st37{opacity:0.5;fill:url(#SVGID_24_);}
	.st38{opacity:0.8;fill:#42E8E0;}
	.st39{opacity:0.5;fill:url(#SVGID_41_);}
</style>
<rect class="st0" width="800" height="600"/>
<g>
	<path class="st1" d="M582.4,477.6l-0.3-0.5l164.1-94.7c1.9-1.1,2.9-2.5,2.9-4c0-1.5-1-2.9-2.9-4l-28.9-16.7l0.3-0.5l28.9,16.7
		c2.1,1.2,3.2,2.8,3.2,4.6c0,1.7-1.1,3.4-3.2,4.6L582.4,477.6z"/>
	<path class="st1" d="M368.4,500.8c-1.4,0-3-0.4-4.2-1L173.2,389.5c-1.2-0.7-1.9-1.6-1.9-2.6c0-0.8,0.5-1.5,1.4-2.1l114-65.8
		c1.9-1.1,5.2-1,7.4,0.3l191.1,110.3c1.2,0.7,1.9,1.6,1.9,2.6c0,0.8-0.5,1.5-1.4,2.1l-114,65.8C370.8,500.6,369.6,500.8,368.4,500.8
		z M173.5,388.9l191.1,110.3c2,1.2,5,1.3,6.7,0.3l114-65.8c0.7-0.4,1.1-0.9,1.1-1.5c0-0.7-0.6-1.5-1.6-2L293.8,319.9
		c-2-1.2-5-1.3-6.7-0.3l-114,65.8c-0.7,0.4-1.1,0.9-1.1,1.5C171.9,387.6,172.5,388.3,173.5,388.9L173.5,388.9z"/>
	<g>
		<linearGradient id="SVGID_1_" gradientUnits="userSpaceOnUse" x1="480.8158" y1="397.8203" x2="165.6908" y2="397.8203">
			<stop  offset="0" style="stop-color:#5761D7"/>
			<stop  offset="0.1779" style="stop-color:#5C66D9"/>
			<stop  offset="0.3876" style="stop-color:#6A73DF"/>
			<stop  offset="0.6134" style="stop-color:#8289E8"/>
			<stop  offset="0.849" style="stop-color:#A3A7F5"/>
			<stop  offset="1" style="stop-color:#BCBEFF"/>
		</linearGradient>
		<path class="st2" d="M486.7,413.1l-10.5-1.5L293.9,306.4c-2.1-1.2-5.3-1.3-7.1-0.3l-108.6,62.7l-6.7-1v8.9l0,0
			c0,0.8,0.6,1.6,1.7,2.3l191.1,110.3c2.1,1.2,5.3,1.3,7.1,0.3l114-65.8c0.8-0.5,1.2-1.1,1.2-1.8l0,0V413.1z"/>
		
			<linearGradient id="SVGID_2_" gradientUnits="userSpaceOnUse" x1="528.2985" y1="390.4846" x2="843.4235" y2="390.4846" gradientTransform="matrix(-1 0 0 1 909.138 0)">
			<stop  offset="0" style="stop-color:#C0BFF6"/>
			<stop  offset="0.2938" style="stop-color:#C5C4F7"/>
			<stop  offset="0.6399" style="stop-color:#D3D2F9"/>
			<stop  offset="1" style="stop-color:#E9E9FD"/>
		</linearGradient>
		<path class="st3" d="M173.3,370.1l191.1,110.3c2.1,1.2,5.3,1.3,7.1,0.3l114-65.8c1.8-1,1.6-2.9-0.5-4.1L293.9,300.5
			c-2.1-1.2-5.3-1.3-7.1-0.3l-114,65.8C171,367.1,171.2,368.9,173.3,370.1z"/>
		<path class="st4" d="M189.9,372.3l170.8,98.6c1.9,1.1,4.7,1.2,6.3,0.3l101.9-58.8c1.6-0.9,1.4-2.6-0.5-3.6l-170.8-98.6
			c-1.9-1.1-4.7-1.2-6.3-0.3l-101.9,58.8C187.8,369.6,188,371.2,189.9,372.3z"/>
		<path class="st5" d="M485.5,414l-114,65.8c-1.8,1-5,0.9-7.1-0.3L173.3,369.2c-0.9-0.5-1.5-1.2-1.6-1.8c-0.3,0.9,0.3,2,1.6,2.8
			l191.1,110.3c2.1,1.2,5.3,1.3,7.1,0.3l114-65.8c1-0.6,1.4-1.4,1.1-2.3C486.5,413.1,486.1,413.6,485.5,414z"/>
	</g>
	<path class="st1" d="M361.7,314.9l-0.3-0.5l60.8-35.1l-159.5-92.1c-4.5-2.6-10.1-2.6-14.6,0l-51.8,29.9l-0.3-0.5l51.8-29.9
		c4.7-2.7,10.5-2.7,15.2,0l160.4,92.6l-0.5,0.3L361.7,314.9z"/>
	<g>
		<g>
			<path class="st1" d="M705.6,364.4l-30.9-17.3c-6.9-3.9-13-12.4-15.1-21.2l-26.7-110.4c-1.7-7-5.5-13-9.8-17l-3.7,11.5
				c-0.9,2.8-2.7,4.8-5,5.7c-2.9,1.1-6.5,0.5-10.2-1.6l-4.4-2.5l-3.9,11.8c-0.9,2.8-2.7,4.8-5,5.7c-2.9,1.1-6.5,0.5-10.2-1.6
				l-5.6-3.2c-6.4-3.7-12.3-11.8-14.6-20c-2.1-7.5-6.4-13.5-11-17.3l-2.6,5.4c-1.1,2.3-2.8,3.8-5,4.5c-2.8,0.9-6.2,0.2-9.7-1.8
				l-2.9-1.7l-5.8,12.4c-1.1,2.3-2.8,3.8-5,4.5c-2.8,0.9-6.2,0.2-9.7-1.8l-6.4-3.7c-7-4-13-12.7-15-21.6L460.8,64.1
				c-1.7-7.4-5.7-13.7-10.4-17.9l-38.5,105.2c-1,2.7-2.7,4.5-5,5.4c-2.8,1-6.4,0.4-10-1.7l-4-2.3l-4.4,12c-1,2.7-2.7,4.5-5,5.4
				c-2.8,1-6.4,0.4-10-1.7L351,155.6l24-13.8l0.2,0.1l17.4,10l38.7-105.8c1.5-4.1,4.5-6.2,8.5-5.9c3.2,0.2,6.9,2,10.4,5l4.6-12.5
				c1.5-4.1,4.5-6.2,8.5-5.9c7.8,0.5,18.6,10.4,21.6,23.8l26.7,119.3c1.9,8.6,8,17.3,14.7,21.2l2.9,1.7l2.7-5.7
				c1.6-3.5,4.6-5.2,8.3-4.9c2.8,0.2,6,1.7,9.1,4.1l6-12.6c1.6-3.5,4.6-5.2,8.3-4.9c7.3,0.6,17.3,9.3,20.9,22.2
				c2.3,8.1,8,16,14.3,19.7l0.6,0.3l4-12.2c1.4-4.2,4.3-6.5,8.4-6.3c3.4,0.1,7.4,2,11,5.2l4-12.3c1.4-4.2,4.3-6.5,8.4-6.3
				c7.8,0.3,18.4,9.7,21.7,23.3l26.7,110.4c2.1,8.7,8.1,17,14.8,20.8l30.9,17.3L729,351l-30.9-17.3c-6.9-3.9-13-12.4-15.1-21.2
				l-26.7-110.4c-3.2-13.1-13.7-22.5-21.2-22.8c-0.1,0-0.2,0-0.4,0c-3.6,0-6.1,2-7.4,5.9l-4.1,12.6c4.5,4.1,8.4,10.3,10.2,17.6
				l26.7,110.4c2.1,8.7,8.1,17,14.8,20.8l30.9,17.3L705.6,364.4z M549.7,186.4c4.8,3.9,9.2,10,11.3,17.7c2.3,8.1,8,16,14.3,19.7
				l5.6,3.2c3.5,2,7,2.6,9.7,1.6c2.2-0.8,3.8-2.7,4.7-5.4l3.9-12l-0.7-0.4c-6.4-3.7-12.3-11.8-14.6-20
				c-3.5-12.7-13.3-21.2-20.4-21.8c-3.5-0.3-6.2,1.3-7.7,4.6L549.7,186.4z M599.9,211l4.5,2.6c3.5,2,7,2.6,9.7,1.6
				c2.2-0.8,3.8-2.7,4.7-5.4l3.8-11.7c-3.6-3.3-7.5-5.2-10.8-5.3c-3.8-0.1-6.4,1.9-7.8,5.9L599.9,211z M450.6,45.5
				c4.8,4.3,9,10.8,10.7,18.4l26.7,119.3c1.9,8.6,8,17.3,14.7,21.2l6.4,3.7c3.3,1.9,6.6,2.5,9.2,1.7c2-0.6,3.6-2.1,4.6-4.2l5.9-12.4
				l-2.9-1.7c-7-4-13-12.7-15-21.6L484.2,50.6c-2.9-13.1-13.4-22.8-21-23.3c-3.7-0.2-6.5,1.7-7.9,5.5L450.6,45.5z M529.6,192.9
				l3,1.7c3.3,1.9,6.6,2.5,9.2,1.7c2-0.6,3.6-2.1,4.6-4.2l2.6-5.6c-3-2.4-6.2-3.8-8.9-4c-3.5-0.3-6.2,1.3-7.7,4.6L529.6,192.9z
				 M352.2,155.6l21.5,12.4c3.5,2,6.9,2.6,9.5,1.6c2.1-0.8,3.7-2.5,4.7-5l4.4-12.1l-17.3-10L352.2,155.6z M393.1,152.2l4,2.3
				c3.5,2,6.9,2.6,9.5,1.6c2.1-0.8,3.7-2.5,4.7-5l38.6-105.4c-3.4-2.9-7-4.7-10.2-4.9c-3.7-0.2-6.5,1.7-7.9,5.5L393.1,152.2z"/>
			<polygon class="st1" points="435.3,41.7 435,41.2 458.6,27.6 458.9,28.2 			"/>
			
				<rect x="532.9" y="176.4" transform="matrix(0.8662 -0.4996 0.4996 0.8662 -15.1577 296.7991)" class="st1" width="27.6" height="0.6"/>
			
				<rect x="604.9" y="186.4" transform="matrix(0.8674 -0.4975 0.4975 0.8674 -10.7953 332.8421)" class="st1" width="28.7" height="0.6"/>
			<path class="st1" d="M705.6,364.4l-30.9-17.3c-6.9-3.9-13-12.4-15.1-21.2l-26.7-110.4c-1.7-7-5.5-13-9.8-17l-3.7,11.5
				c-0.9,2.8-2.7,4.8-5,5.7c-2.9,1.1-6.5,0.5-10.2-1.6l-4.4-2.5l-3.9,11.8c-0.9,2.8-2.7,4.8-5,5.7c-2.9,1.1-6.5,0.5-10.2-1.6
				l-5.6-3.2c-6.4-3.7-12.3-11.8-14.6-20c-2.1-7.5-6.4-13.5-11-17.3l-2.6,5.4c-1.1,2.3-2.8,3.8-5,4.5c-2.8,0.9-6.2,0.2-9.7-1.8
				l-2.9-1.7l-5.8,12.4c-1.1,2.3-2.8,3.8-5,4.5c-2.8,0.9-6.2,0.2-9.7-1.8l-6.4-3.7c-7-4-13-12.7-15-21.6L460.8,64.1
				c-1.7-7.4-5.7-13.7-10.4-17.9l-38.5,105.2c-1,2.7-2.7,4.5-5,5.4c-2.8,1-6.4,0.4-10-1.7l-4-2.3l-4.4,12c-1,2.7-2.7,4.5-5,5.4
				c-2.8,1-6.4,0.4-10-1.7L351,155.6l24-13.8l0.2,0.1l17.4,10l38.7-105.8c1.5-4.1,4.5-6.2,8.5-5.9c3.2,0.2,6.9,2,10.4,5l4.6-12.5
				c1.5-4.1,4.5-6.2,8.5-5.9c7.8,0.5,18.6,10.4,21.6,23.8l26.7,119.3c1.9,8.6,8,17.3,14.7,21.2l2.9,1.7l2.7-5.7
				c1.6-3.5,4.6-5.2,8.3-4.9c2.8,0.2,6,1.7,9.1,4.1l6-12.6c1.6-3.5,4.6-5.2,8.3-4.9c7.3,0.6,17.3,9.3,20.9,22.2
				c2.3,8.1,8,16,14.3,19.7l0.6,0.3l4-12.2c1.4-4.2,4.3-6.5,8.4-6.3c3.4,0.1,7.4,2,11,5.2l4-12.3c1.4-4.2,4.3-6.5,8.4-6.3
				c7.8,0.3,18.4,9.7,21.7,23.3l26.7,110.4c2.1,8.7,8.1,17,14.8,20.8l30.9,17.3L729,351l-30.9-17.3c-6.9-3.9-13-12.4-15.1-21.2
				l-26.7-110.4c-3.2-13.1-13.7-22.5-21.2-22.8c-0.1,0-0.2,0-0.4,0c-3.6,0-6.1,2-7.4,5.9l-4.1,12.6c4.5,4.1,8.4,10.3,10.2,17.6
				l26.7,110.4c2.1,8.7,8.1,17,14.8,20.8l30.9,17.3L705.6,364.4z M549.7,186.4c4.8,3.9,9.2,10,11.3,17.7c2.3,8.1,8,16,14.3,19.7
				l5.6,3.2c3.5,2,7,2.6,9.7,1.6c2.2-0.8,3.8-2.7,4.7-5.4l3.9-12l-0.7-0.4c-6.4-3.7-12.3-11.8-14.6-20
				c-3.5-12.7-13.3-21.2-20.4-21.8c-3.5-0.3-6.2,1.3-7.7,4.6L549.7,186.4z M599.9,211l4.5,2.6c3.5,2,7,2.6,9.7,1.6
				c2.2-0.8,3.8-2.7,4.7-5.4l3.8-11.7c-3.6-3.3-7.5-5.2-10.8-5.3c-3.8-0.1-6.4,1.9-7.8,5.9L599.9,211z M450.6,45.5
				c4.8,4.3,9,10.8,10.7,18.4l26.7,119.3c1.9,8.6,8,17.3,14.7,21.2l6.4,3.7c3.3,1.9,6.6,2.5,9.2,1.7c2-0.6,3.6-2.1,4.6-4.2l5.9-12.4
				l-2.9-1.7c-7-4-13-12.7-15-21.6L484.2,50.6c-2.9-13.1-13.4-22.8-21-23.3c-3.7-0.2-6.5,1.7-7.9,5.5L450.6,45.5z M529.6,192.9
				l3,1.7c3.3,1.9,6.6,2.5,9.2,1.7c2-0.6,3.6-2.1,4.6-4.2l2.6-5.6c-3-2.4-6.2-3.8-8.9-4c-3.5-0.3-6.2,1.3-7.7,4.6L529.6,192.9z
				 M352.2,155.6l21.5,12.4c3.5,2,6.9,2.6,9.5,1.6c2.1-0.8,3.7-2.5,4.7-5l4.4-12.1l-17.3-10L352.2,155.6z M393.1,152.2l4,2.3
				c3.5,2,6.9,2.6,9.5,1.6c2.1-0.8,3.7-2.5,4.7-5l38.6-105.4c-3.4-2.9-7-4.7-10.2-4.9c-3.7-0.2-6.5,1.7-7.9,5.5L393.1,152.2z"/>
		</g>
		<linearGradient id="SVGID_3_" gradientUnits="userSpaceOnUse" x1="375.0497" y1="188.8392" x2="729.1237" y2="188.8392">
			<stop  offset="0" style="stop-color:#42E8E0"/>
			<stop  offset="0.1055" style="stop-color:#37B6BF"/>
			<stop  offset="0.2197" style="stop-color:#2C87A1"/>
			<stop  offset="0.338" style="stop-color:#235F87"/>
			<stop  offset="0.4587" style="stop-color:#1C3F72"/>
			<stop  offset="0.5824" style="stop-color:#162561"/>
			<stop  offset="0.7105" style="stop-color:#121355"/>
			<stop  offset="0.8458" style="stop-color:#10084E"/>
			<stop  offset="1" style="stop-color:#0F054C"/>
		</linearGradient>
		<path class="st6" d="M375,142.1l21.9,12.7c6.6,3.8,12.5,2.4,14.6-3.6L455,32.7c5-13.5,25.2-1.3,29.5,17.8l26.7,119.3
			c2,8.7,8,17.4,14.9,21.4l6.4,3.7c6.2,3.6,11.8,2.5,14.2-2.6l8.8-18.7c5.5-11.6,23.7-0.7,28.7,17.2v0c2.3,8.2,8,16.1,14.5,19.8
			l5.6,3.2c6.8,3.9,12.7,2.3,14.8-4l8.1-24.7c4.5-14,24.8-2.3,29.5,16.9l26.7,110.4c2.1,8.7,8.2,17.2,15,21l30.9,17.3L375,142.1z"/>
		<linearGradient id="SVGID_4_" gradientUnits="userSpaceOnUse" x1="351.6301" y1="201.9592" x2="705.704" y2="201.9592">
			<stop  offset="0" style="stop-color:#42E8E0"/>
			<stop  offset="0.1055" style="stop-color:#37B6BF"/>
			<stop  offset="0.2197" style="stop-color:#2C87A1"/>
			<stop  offset="0.338" style="stop-color:#235F87"/>
			<stop  offset="0.4587" style="stop-color:#1C3F72"/>
			<stop  offset="0.5824" style="stop-color:#162561"/>
			<stop  offset="0.7105" style="stop-color:#121355"/>
			<stop  offset="0.8458" style="stop-color:#10084E"/>
			<stop  offset="1" style="stop-color:#0F054C"/>
		</linearGradient>
		<path class="st7" d="M351.6,155.2l21.9,12.7c6.6,3.8,12.5,2.4,14.6-3.6l43.4-118.5c5-13.5,25.2-1.3,29.5,17.8l26.7,119.3
			c2,8.7,8,17.4,14.9,21.4l6.4,3.7c6.2,3.6,11.8,2.5,14.2-2.6l8.8-18.7c5.5-11.6,23.7-0.7,28.7,17.2v0c2.3,8.2,8,16.1,14.5,19.8
			l5.6,3.2c6.8,3.9,12.7,2.3,14.8-4l8.1-24.7c4.5-14,24.8-2.3,29.5,16.9l26.7,110.4c2.1,8.7,8.2,17.2,15,21l30.9,17.3L351.6,155.2z"
			/>
	</g>
	<g>
		<path class="st1" d="M182.3,332.9c-2.9,0-5.8-0.6-8-1.9l-37.1-21.4c-2.2-1.3-3.4-3-3.4-4.8c0-1.8,1.2-3.6,3.4-4.8l37.1-21.4
			c4.4-2.6,11.6-2.6,16.1,0l37.1,21.4c2.2,1.3,3.4,3,3.4,4.8c0,1.8-1.2,3.6-3.4,4.8L190.3,331C188.1,332.3,185.2,332.9,182.3,332.9z
			 M174.6,330.4c4.3,2.5,11.2,2.5,15.4,0l37.1-21.4c2-1.2,3.1-2.7,3.1-4.3c0-1.6-1.1-3.1-3.1-4.3L190,279.1
			c-4.3-2.5-11.2-2.5-15.4,0l-37.1,21.4c-2,1.2-3.1,2.7-3.1,4.3c0,1.6,1.1,3.1,3.1,4.3L174.6,330.4z"/>
	</g>
	<g>
		<g>
			<g>
				<g>
					<g>
						
							<linearGradient id="SVGID_5_" gradientUnits="userSpaceOnUse" x1="392.5941" y1="252.2514" x2="615.6001" y2="252.2514" gradientTransform="matrix(-1 0 0 1 909.138 0)">
							<stop  offset="0" style="stop-color:#C0BFF6"/>
							<stop  offset="0.2938" style="stop-color:#C5C4F7"/>
							<stop  offset="0.6399" style="stop-color:#D3D2F9"/>
							<stop  offset="1" style="stop-color:#E9E9FD"/>
						</linearGradient>
						<path class="st8" d="M293.6,266.1l24.2-143.3l-1.9-0.8l2.9-1.7l0,0c0.6-0.4,1.4-0.4,2.2,0.2L514,232c1.6,0.9,2.8,3.3,2.5,4.9
							l-24.3,144.4c-0.1,0.8-0.5,1.3-1,1.5l0,0l-2.9,1.6l-0.5-2.7l0.2,0L296.1,271C294.5,270.1,293.3,267.8,293.6,266.1z"/>
						
							<linearGradient id="SVGID_6_" gradientUnits="userSpaceOnUse" x1="392.5955" y1="309.4423" x2="430.8879" y2="309.4423" gradientTransform="matrix(-1 0 0 1 909.138 0)">
							<stop  offset="0" style="stop-color:#5761D7"/>
							<stop  offset="0.1779" style="stop-color:#5C66D9"/>
							<stop  offset="0.3876" style="stop-color:#6A73DF"/>
							<stop  offset="0.6134" style="stop-color:#8289E8"/>
							<stop  offset="0.849" style="stop-color:#A3A7F5"/>
							<stop  offset="1" style="stop-color:#BCBEFF"/>
						</linearGradient>
						<path class="st9" d="M512.9,235.9l3.2-1.4c0.4,0.8,0.5,1.7,0.4,2.4l-24.3,144.4c-0.1,0.8-0.5,1.3-1,1.5l0,0l-2.9,1.6l-0.5-2.7
							l0.2,0l-9.7-5.6L512.9,235.9z"/>
						<path class="st10" d="M293.1,272.8l193,111.5c1.5,0.9,2.8,0.4,3-1.2l24.3-144.4c0.3-1.6-0.9-4-2.5-4.9l-193-111.5
							c-1.5-0.9-2.8-0.4-3,1.2l-24.3,144.4C290.3,269.5,291.5,271.8,293.1,272.8z"/>
						<g class="st11">
							<polygon class="st12" points="317.3,124.9 511.2,236.8 486.7,381.7 292.9,269.8 							"/>
						</g>
					</g>
					<g>
						
							<linearGradient id="SVGID_7_" gradientUnits="userSpaceOnUse" x1="422.4718" y1="371.8416" x2="737.429" y2="371.8416" gradientTransform="matrix(-1 0 0 1 909.138 0)">
							<stop  offset="0" style="stop-color:#5761D7"/>
							<stop  offset="0.1779" style="stop-color:#5C66D9"/>
							<stop  offset="0.3876" style="stop-color:#6A73DF"/>
							<stop  offset="0.6134" style="stop-color:#8289E8"/>
							<stop  offset="0.849" style="stop-color:#A3A7F5"/>
							<stop  offset="1" style="stop-color:#BCBEFF"/>
						</linearGradient>
						<path class="st13" d="M171.7,341.1l10.5,5.5l105.6-61c1.8-1,4.9-0.9,6.9,0.3L477,391.1c1.7-1,9.7-4.8,9.7-4.8l-3.9,6.3
							c0,0,0,0,0,0c-0.2,0.4-0.5,0.9-1.1,1.2L370.5,458c-1.8,1-4.9,0.9-6.9-0.3L177.1,350.1c-0.8-0.5-1.4-1.1-1.6-1.7l0,0
							L171.7,341.1z"/>
						
							<linearGradient id="SVGID_8_" gradientUnits="userSpaceOnUse" x1="528.2985" y1="363.2297" x2="843.4235" y2="363.2297" gradientTransform="matrix(-1 0 0 1 909.138 0)">
							<stop  offset="0" style="stop-color:#C0BFF6"/>
							<stop  offset="0.2938" style="stop-color:#C5C4F7"/>
							<stop  offset="0.6399" style="stop-color:#D3D2F9"/>
							<stop  offset="1" style="stop-color:#E9E9FD"/>
						</linearGradient>
						<path class="st14" d="M173.3,342.9l191.1,110.3c2.1,1.2,5.3,1.3,7.1,0.3l114-65.8c1.8-1,1.6-2.9-0.5-4.1L293.9,273.3
							c-2.1-1.2-5.3-1.3-7.1-0.3l-114,65.8C171,339.8,171.2,341.7,173.3,342.9z"/>
						<path class="st5" d="M173.3,342l191.1,110.3c2.1,1.2,5.3,1.3,7.1,0.3l114-65.8c0.6-0.4,1-0.8,1.1-1.3c0.2,0.8-0.2,1.6-1.1,2.2
							l-114,65.8c-1.8,1-5,0.9-7.1-0.3L173.3,342.9c-1.4-0.8-1.9-1.8-1.7-2.7C171.8,340.8,172.4,341.5,173.3,342z"/>
					</g>
				</g>
				<g class="st15">
					<defs>
						<polygon id="SVGID_9_" class="st15" points="511.2,236.8 317.3,124.9 292.9,269.8 486.7,381.7 						"/>
					</defs>
					<clipPath id="SVGID_10_">
						<use xlink:href="#SVGID_9_"  style="overflow:visible;"/>
					</clipPath>
					<g class="st16">
						<g>
							
								<linearGradient id="SVGID_11_" gradientUnits="userSpaceOnUse" x1="301.3607" y1="302.526" x2="616.3181" y2="302.526" gradientTransform="matrix(-1 0 0 1 909.138 0)">
								<stop  offset="0" style="stop-color:#5761D7"/>
								<stop  offset="0.1779" style="stop-color:#5C66D9"/>
								<stop  offset="0.3876" style="stop-color:#6A73DF"/>
								<stop  offset="0.6134" style="stop-color:#8289E8"/>
								<stop  offset="0.849" style="stop-color:#A3A7F5"/>
								<stop  offset="1" style="stop-color:#BCBEFF"/>
							</linearGradient>
							<path class="st17" d="M292.8,271.8l10.5,5.5l105.6-61c1.8-1,4.9-0.9,6.9,0.3l182.2,105.2c1.7-1,9.7-4.8,9.7-4.8l-3.9,6.3
								c0,0,0,0,0,0c-0.2,0.4-0.5,0.9-1.1,1.2l-111.3,64.2c-1.8,1-4.9,0.9-6.9-0.3L298.2,280.8c-0.8-0.5-1.4-1.1-1.6-1.7l0,0
								L292.8,271.8z"/>
							
								<linearGradient id="SVGID_12_" gradientUnits="userSpaceOnUse" x1="407.1875" y1="293.9141" x2="722.3126" y2="293.9141" gradientTransform="matrix(-1 0 0 1 909.138 0)">
								<stop  offset="0" style="stop-color:#C0BFF6"/>
								<stop  offset="0.2938" style="stop-color:#C5C4F7"/>
								<stop  offset="0.6399" style="stop-color:#D3D2F9"/>
								<stop  offset="1" style="stop-color:#E9E9FD"/>
							</linearGradient>
							<path class="st18" d="M294.4,273.6l191.1,110.3c2.1,1.2,5.3,1.3,7.1,0.3l114-65.8c1.8-1,1.6-2.9-0.5-4.1L415,203.9
								c-2.1-1.2-5.3-1.3-7.1-0.3l-114,65.8C292.1,270.5,292.4,272.4,294.4,273.6z"/>
							<path class="st5" d="M606.1,314.3L415,203.9c-1.3-0.8-3.1-1.1-4.7-1c1.2,0.1,2.4,0.4,3.3,1l191.1,110.3
								c2.1,1.2,2.3,3,0.5,4.1l-114,65.8c-0.6,0.4-1.5,0.6-2.3,0.7c1.4,0.1,2.8-0.1,3.8-0.7l114-65.8
								C608.4,317.3,608.2,315.5,606.1,314.3z"/>
						</g>
						<g class="st19">
							<path class="st10" d="M394.5,254.6l-6.1-3.5c-0.5-0.3-1.3-0.3-1.9,0.1l-6.8,4c-0.5,0.3-0.6,0.8-0.1,1.1l6.1,3.5
								c0.5,0.3,1.3,0.3,1.9-0.1l6.8-4C395,255.3,395,254.9,394.5,254.6z"/>
							<path class="st10" d="M404,260l-6.1-3.5c-0.5-0.3-1.3-0.3-1.9,0.1l-6.8,4c-0.5,0.3-0.6,0.8-0.1,1.1l6.1,3.5
								c0.5,0.3,1.3,0.3,1.9-0.1l6.8-4C404.5,260.8,404.5,260.3,404,260z"/>
							<path class="st10" d="M413.5,265.5l-6.1-3.5c-0.5-0.3-1.3-0.3-1.9,0.1l-6.8,4c-0.5,0.3-0.6,0.8-0.1,1.1l6.1,3.5
								c0.5,0.3,1.3,0.3,1.9-0.1l6.8-4C413.9,266.3,413.9,265.8,413.5,265.5z"/>
							<path class="st10" d="M406.3,272.8l-6.1-3.5c-0.5-0.3-1.3-0.3-1.9,0.1l-5.7,3.3c-0.5,0.3-0.6,0.8-0.1,1.1l6.1,3.5
								c0.5,0.3,1.3,0.3,1.9-0.1l5.7-3.3C406.7,273.5,406.7,273,406.3,272.8z"/>
							<path class="st10" d="M415.7,278.2l-6.1-3.5c-0.5-0.3-1.3-0.3-1.9,0.1l-5.7,3.3c-0.5,0.3-0.6,0.8-0.1,1.1l6.1,3.5
								c0.5,0.3,1.3,0.3,1.9-0.1l5.7-3.3C416.2,279,416.2,278.5,415.7,278.2z"/>
							<path class="st10" d="M425.2,283.7l-6.1-3.5c-0.5-0.3-1.3-0.3-1.9,0.1l-5.7,3.3c-0.5,0.3-0.6,0.8-0.1,1.1l6.1,3.5
								c0.5,0.3,1.3,0.3,1.9-0.1l5.7-3.3C425.6,284.5,425.7,284,425.2,283.7z"/>
							<path class="st10" d="M434.6,289.1l-6.1-3.5c-0.5-0.3-1.3-0.3-1.9,0.1l-5.7,3.3c-0.5,0.3-0.6,0.8-0.1,1.1l6.1,3.5
								c0.5,0.3,1.3,0.3,1.9-0.1l5.7-3.3C435.1,289.9,435.1,289.4,434.6,289.1z"/>
							<path class="st10" d="M444.1,294.6l-6.1-3.5c-0.5-0.3-1.3-0.3-1.9,0.1l-5.7,3.3c-0.5,0.3-0.6,0.8-0.1,1.1l6.1,3.5
								c0.5,0.3,1.3,0.3,1.9-0.1l5.7-3.3C444.5,295.4,444.6,294.9,444.1,294.6z"/>
							<path class="st10" d="M453.5,300.1l-6.1-3.5c-0.5-0.3-1.3-0.3-1.9,0.1l-5.7,3.3c-0.5,0.3-0.6,0.8-0.1,1.1l6.1,3.5
								c0.5,0.3,1.3,0.3,1.9-0.1l5.7-3.3C454,300.8,454,300.4,453.5,300.1z"/>
							<path class="st10" d="M463,305.5l-6.1-3.5c-0.5-0.3-1.3-0.3-1.9,0.1l-5.7,3.3c-0.5,0.3-0.6,0.8-0.1,1.1l6.1,3.5
								c0.5,0.3,1.3,0.3,1.9-0.1l5.7-3.3C463.5,306.3,463.5,305.8,463,305.5z"/>
							<path class="st10" d="M472.5,311l-6.1-3.5c-0.5-0.3-1.3-0.3-1.9,0.1l-5.7,3.3c-0.5,0.3-0.6,0.8-0.1,1.1l6.1,3.5
								c0.5,0.3,1.3,0.3,1.9-0.1l5.7-3.3C472.9,311.8,473,311.3,472.5,311z"/>
							<path class="st10" d="M481.9,316.5l-6.1-3.5c-0.5-0.3-1.3-0.3-1.9,0.1l-5.7,3.3c-0.5,0.3-0.6,0.8-0.1,1.1l6.1,3.5
								c0.5,0.3,1.3,0.3,1.9-0.1l5.7-3.3C482.4,317.2,482.4,316.7,481.9,316.5z"/>
							<path class="st10" d="M491.4,321.9l-6.1-3.5c-0.5-0.3-1.3-0.3-1.9,0.1l-5.7,3.3c-0.5,0.3-0.6,0.8-0.1,1.1l6.1,3.5
								c0.5,0.3,1.3,0.3,1.9-0.1l5.7-3.3C491.8,322.7,491.9,322.2,491.4,321.9z"/>
							<path class="st10" d="M402.3,280.6l-6.1-3.5c-0.5-0.3-1.3-0.3-1.9,0.1l-5.7,3.3c-0.5,0.3-0.6,0.8-0.1,1.1l6.1,3.5
								c0.5,0.3,1.3,0.3,1.9-0.1l5.7-3.3C402.8,281.3,402.8,280.8,402.3,280.6z"/>
							<path class="st10" d="M392.7,275l-6.1-3.5c-0.5-0.3-1.3-0.3-1.9,0.1l-5.7,3.3c-0.5,0.3-0.6,0.8-0.1,1.1l6.1,3.5
								c0.5,0.3,1.3,0.3,1.9-0.1l5.7-3.3C393.2,275.8,393.2,275.3,392.7,275z"/>
							<path class="st10" d="M383.1,269.5l-13.2-7.6c-0.5-0.3-1.3-0.3-1.9,0.1l-5.7,3.3c-0.5,0.3-0.6,0.8-0.1,1.1l13.2,7.6
								c0.5,0.3,1.3,0.3,1.9-0.1l5.7-3.3C383.6,270.2,383.6,269.7,383.1,269.5z"/>
							<path class="st10" d="M371.9,273.1l-10.7-6.2c-0.5-0.3-1.3-0.3-1.9,0.1l-5.7,3.3c-0.5,0.3-0.6,0.8-0.1,1.1l10.7,6.2
								c0.5,0.3,1.3,0.3,1.9-0.1l5.7-3.3C372.4,273.9,372.4,273.4,371.9,273.1z"/>
							<path class="st10" d="M411.8,286l-6.1-3.5c-0.5-0.3-1.3-0.3-1.9,0.1l-5.7,3.3c-0.5,0.3-0.6,0.8-0.1,1.1l6.1,3.5
								c0.5,0.3,1.3,0.3,1.9-0.1l5.7-3.3C412.2,286.8,412.3,286.3,411.8,286z"/>
							<path class="st10" d="M421.2,291.5l-6.1-3.5c-0.5-0.3-1.3-0.3-1.9,0.1l-5.7,3.3c-0.5,0.3-0.6,0.8-0.1,1.1l6.1,3.5
								c0.5,0.3,1.3,0.3,1.9-0.1l5.7-3.3C421.7,292.2,421.7,291.8,421.2,291.5z"/>
							<path class="st10" d="M430.7,296.9l-6.1-3.5c-0.5-0.3-1.3-0.3-1.9,0.1l-5.7,3.3c-0.5,0.3-0.6,0.8-0.1,1.1l6.1,3.5
								c0.5,0.3,1.3,0.3,1.9-0.1l5.7-3.3C431.1,297.7,431.2,297.2,430.7,296.9z"/>
							<path class="st10" d="M440.1,302.4l-6.1-3.5c-0.5-0.3-1.3-0.3-1.9,0.1l-5.7,3.3c-0.5,0.3-0.6,0.8-0.1,1.1l6.1,3.5
								c0.5,0.3,1.3,0.3,1.9-0.1l5.7-3.3C440.6,303.2,440.6,302.7,440.1,302.4z"/>
							<path class="st10" d="M449.6,307.9l-6.1-3.5c-0.5-0.3-1.3-0.3-1.9,0.1l-5.7,3.3c-0.5,0.3-0.6,0.8-0.1,1.1l6.1,3.5
								c0.5,0.3,1.3,0.3,1.9-0.1l5.7-3.3C450.1,308.6,450.1,308.1,449.6,307.9z"/>
							<path class="st10" d="M459.1,313.3l-6.1-3.5c-0.5-0.3-1.3-0.3-1.9,0.1l-5.7,3.3c-0.5,0.3-0.6,0.8-0.1,1.1l6.1,3.5
								c0.5,0.3,1.3,0.3,1.9-0.1l5.7-3.3C459.5,314.1,459.6,313.6,459.1,313.3z"/>
							<path class="st10" d="M468.5,318.8l-6.1-3.5c-0.5-0.3-1.3-0.3-1.9,0.1l-5.7,3.3c-0.5,0.3-0.6,0.8-0.1,1.1l6.1,3.5
								c0.5,0.3,1.3,0.3,1.9-0.1l5.7-3.3C469,319.6,469,319.1,468.5,318.8z"/>
							<path class="st10" d="M478,324.2l-6.1-3.5c-0.5-0.3-1.3-0.3-1.9,0.1l-5.7,3.3c-0.5,0.3-0.6,0.8-0.1,1.1l6.1,3.5
								c0.5,0.3,1.3,0.3,1.9-0.1l5.7-3.3C478.4,325,478.5,324.5,478,324.2z"/>
							<path class="st10" d="M487.4,329.7l-6.1-3.5c-0.5-0.3-1.3-0.3-1.9,0.1l-5.7,3.3c-0.5,0.3-0.6,0.8-0.1,1.1l6.1,3.5
								c0.5,0.3,1.3,0.3,1.9-0.1l5.7-3.3C487.9,330.5,487.9,330,487.4,329.7z"/>
							<path class="st10" d="M504.3,339.4l-13.4-7.7c-0.5-0.3-1.3-0.3-1.9,0.1l-5.7,3.3c-0.5,0.3-0.6,0.8-0.1,1.1l13.4,7.7
								c0.5,0.3,1.3,0.3,1.9-0.1l5.7-3.3C504.7,340.2,504.8,339.7,504.3,339.4z"/>
							<path class="st10" d="M486.9,349.5l-11.3-6.5c-0.5-0.3-1.3-0.3-1.9,0.1l-5.7,3.3c-0.5,0.3-0.6,0.8-0.1,1.1l11.3,6.5
								c0.5,0.3,1.3,0.3,1.9-0.1l5.7-3.3C487.4,350.3,487.4,349.8,486.9,349.5z"/>
							<path class="st10" d="M410.5,295.3l-6.1-3.5c-0.5-0.3-1.3-0.3-1.9,0.1l-5.7,3.3c-0.5,0.3-0.6,0.8-0.1,1.1l6.1,3.5
								c0.5,0.3,1.3,0.3,1.9-0.1l5.7-3.3C410.9,296.1,411,295.6,410.5,295.3z"/>
							<path class="st10" d="M400.8,289.7l-6.1-3.5c-0.5-0.3-1.3-0.3-1.9,0.1l-5.7,3.3c-0.5,0.3-0.6,0.8-0.1,1.1l6.1,3.5
								c0.5,0.3,1.3,0.3,1.9-0.1l5.7-3.3C401.2,290.5,401.3,290,400.8,289.7z"/>
							<path class="st10" d="M391.1,284.1l-6.1-3.5c-0.5-0.3-1.3-0.3-1.9,0.1l-5.7,3.3c-0.5,0.3-0.6,0.8-0.1,1.1l6.1,3.5
								c0.5,0.3,1.3,0.3,1.9-0.1l5.7-3.3C391.5,284.9,391.6,284.4,391.1,284.1z"/>
							<path class="st10" d="M381.4,278.5l-6.1-3.5c-0.5-0.3-1.3-0.3-1.9,0.1l-5.7,3.3c-0.5,0.3-0.6,0.8-0.1,1.1l6.1,3.5
								c0.5,0.3,1.3,0.3,1.9-0.1l5.7-3.3C381.8,279.3,381.9,278.8,381.4,278.5z"/>
							<path class="st10" d="M419.9,300.8l-6.1-3.5c-0.5-0.3-1.3-0.3-1.9,0.1l-5.7,3.3c-0.5,0.3-0.6,0.8-0.1,1.1l6.1,3.5
								c0.5,0.3,1.3,0.3,1.9-0.1l5.7-3.3C420.4,301.6,420.4,301.1,419.9,300.8z"/>
							<path class="st10" d="M429.4,306.3l-6.1-3.5c-0.5-0.3-1.3-0.3-1.9,0.1l-5.7,3.3c-0.5,0.3-0.6,0.8-0.1,1.1l6.1,3.5
								c0.5,0.3,1.3,0.3,1.9-0.1l5.7-3.3C429.8,307,429.9,306.5,429.4,306.3z"/>
							<path class="st10" d="M438.8,311.7l-6.1-3.5c-0.5-0.3-1.3-0.3-1.9,0.1l-5.7,3.3c-0.5,0.3-0.6,0.8-0.1,1.1l6.1,3.5
								c0.5,0.3,1.3,0.3,1.9-0.1l5.7-3.3C439.3,312.5,439.3,312,438.8,311.7z"/>
							<path class="st10" d="M448.3,317.2l-6.1-3.5c-0.5-0.3-1.3-0.3-1.9,0.1l-5.7,3.3c-0.5,0.3-0.6,0.8-0.1,1.1l6.1,3.5
								c0.5,0.3,1.3,0.3,1.9-0.1l5.7-3.3C448.8,317.9,448.8,317.5,448.3,317.2z"/>
							<path class="st10" d="M457.8,322.6l-6.1-3.5c-0.5-0.3-1.3-0.3-1.9,0.1l-5.7,3.3c-0.5,0.3-0.6,0.8-0.1,1.1l6.1,3.5
								c0.5,0.3,1.3,0.3,1.9-0.1l5.7-3.3C458.2,323.4,458.2,322.9,457.8,322.6z"/>
							<path class="st10" d="M467.2,328.1l-6.1-3.5c-0.5-0.3-1.3-0.3-1.9,0.1l-5.7,3.3c-0.5,0.3-0.6,0.8-0.1,1.1l6.1,3.5
								c0.5,0.3,1.3,0.3,1.9-0.1l5.7-3.3C467.7,328.9,467.7,328.4,467.2,328.1z"/>
							<path class="st10" d="M476.7,333.6l-6.1-3.5c-0.5-0.3-1.3-0.3-1.9,0.1l-5.7,3.3c-0.5,0.3-0.6,0.8-0.1,1.1l6.1,3.5
								c0.5,0.3,1.3,0.3,1.9-0.1l5.7-3.3C477.1,334.3,477.2,333.8,476.7,333.6z"/>
							<path class="st10" d="M486.1,339l-6.1-3.5c-0.5-0.3-1.3-0.3-1.9,0.1l-5.7,3.3c-0.5,0.3-0.6,0.8-0.1,1.1l6.1,3.5
								c0.5,0.3,1.3,0.3,1.9-0.1l5.7-3.3C486.6,339.8,486.6,339.3,486.1,339z"/>
							<path class="st10" d="M495.6,344.5l-6.1-3.5c-0.5-0.3-1.3-0.3-1.9,0.1l-5.7,3.3c-0.5,0.3-0.6,0.8-0.1,1.1l6.1,3.5
								c0.5,0.3,1.3,0.3,1.9-0.1l5.7-3.3C496,345.2,496.1,344.8,495.6,344.5z"/>
							<path class="st10" d="M387.6,292.2l-6.1-3.5c-0.5-0.3-1.3-0.3-1.9,0.1l-5.7,3.3c-0.5,0.3-0.6,0.8-0.1,1.1l6.1,3.5
								c0.5,0.3,1.3,0.3,1.9-0.1l5.7-3.3C388.1,293,388.1,292.5,387.6,292.2z"/>
							<path class="st10" d="M378.2,286.8l-6.1-3.5c-0.5-0.3-1.3-0.3-1.9,0.1l-5.7,3.3c-0.5,0.3-0.6,0.8-0.1,1.1l6.1,3.5
								c0.5,0.3,1.3,0.3,1.9-0.1l5.7-3.3C378.6,287.5,378.7,287.1,378.2,286.8z"/>
							<path class="st10" d="M368.8,281.3l-6.1-3.5c-0.5-0.3-1.3-0.3-1.9,0.1l-5.7,3.3c-0.5,0.3-0.6,0.8-0.1,1.1l6.1,3.5
								c0.5,0.3,1.3,0.3,1.9-0.1l5.7-3.3C369.2,282.1,369.3,281.6,368.8,281.3z"/>
							<path class="st10" d="M359.4,275.9l-6.1-3.5c-0.5-0.3-1.3-0.3-1.9,0.1l-5.7,3.3c-0.5,0.3-0.6,0.8-0.1,1.1l6.1,3.5
								c0.5,0.3,1.3,0.3,1.9-0.1l5.7-3.3C359.8,276.7,359.9,276.2,359.4,275.9z"/>
							<path class="st10" d="M350.3,281.2l-6.1-3.5c-0.5-0.3-1.3-0.3-1.9,0.1l-1.9,1.1c-0.5,0.3-0.6,0.8-0.1,1.1l6.1,3.5
								c0.5,0.3,1.3,0.3,1.9-0.1l1.9-1.1C350.7,282,350.7,281.5,350.3,281.2z"/>
							<path class="st10" d="M362.5,288.3l-6.1-3.5c-0.5-0.3-1.3-0.3-1.9,0.1l-1.9,1.1c-0.5,0.3-0.6,0.8-0.1,1.1l6.1,3.5
								c0.5,0.3,1.3,0.3,1.9-0.1l1.9-1.1C363,289.1,363,288.6,362.5,288.3z"/>
							<path class="st10" d="M371.9,293.7l-6.1-3.5c-0.5-0.3-1.3-0.3-1.9,0.1l-1.9,1.1c-0.5,0.3-0.6,0.8-0.1,1.1l6.1,3.5
								c0.5,0.3,1.3,0.3,1.9-0.1l1.9-1.1C372.4,294.5,372.4,294,371.9,293.7z"/>
							<path class="st10" d="M381.3,299.1l-6.1-3.5c-0.5-0.3-1.3-0.3-1.9,0.1l-1.9,1.1c-0.5,0.3-0.6,0.8-0.1,1.1l6.1,3.5
								c0.5,0.3,1.3,0.3,1.9-0.1l1.9-1.1C381.7,299.9,381.8,299.4,381.3,299.1z"/>
							<path class="st10" d="M390.7,304.6l-6.1-3.5c-0.5-0.3-1.3-0.3-1.9,0.1l-1.9,1.1c-0.5,0.3-0.6,0.8-0.1,1.1l6.1,3.5
								c0.5,0.3,1.3,0.3,1.9-0.1l1.9-1.1C391.1,305.3,391.1,304.8,390.7,304.6z"/>
							<path class="st10" d="M443,334.8l-6.1-3.5c-0.5-0.3-1.3-0.3-1.9,0.1l-1.9,1.1c-0.5,0.3-0.6,0.8-0.1,1.1l6.1,3.5
								c0.5,0.3,1.3,0.3,1.9-0.1l1.9-1.1C443.4,335.5,443.5,335,443,334.8z"/>
							<path class="st10" d="M452.4,340.2l-6.1-3.5c-0.5-0.3-1.3-0.3-1.9,0.1l-1.9,1.1c-0.5,0.3-0.6,0.8-0.1,1.1l6.1,3.5
								c0.5,0.3,1.3,0.3,1.9-0.1l1.9-1.1C452.8,340.9,452.8,340.5,452.4,340.2z"/>
							<path class="st10" d="M461.7,345.6l-6.1-3.5c-0.5-0.3-1.3-0.3-1.9,0.1l-1.9,1.1c-0.5,0.3-0.6,0.8-0.1,1.1l6.1,3.5
								c0.5,0.3,1.3,0.3,1.9-0.1l1.9-1.1C462.2,346.4,462.2,345.9,461.7,345.6z"/>
							<path class="st10" d="M471.1,351l-6.1-3.5c-0.5-0.3-1.3-0.3-1.9,0.1l-1.9,1.1c-0.5,0.3-0.6,0.8-0.1,1.1l6.1,3.5
								c0.5,0.3,1.3,0.3,1.9-0.1l1.9-1.1C471.6,351.8,471.6,351.3,471.1,351z"/>
							<path class="st10" d="M397.1,297.7l-6.1-3.5c-0.5-0.3-1.3-0.3-1.9,0.1l-5.7,3.3c-0.5,0.3-0.6,0.8-0.1,1.1l6.1,3.5
								c0.5,0.3,1.3,0.3,1.9-0.1l5.7-3.3C397.5,298.4,397.6,298,397.1,297.7z"/>
							<path class="st10" d="M406.5,303.1l-6.1-3.5c-0.5-0.3-1.3-0.3-1.9,0.1l-5.7,3.3c-0.5,0.3-0.6,0.8-0.1,1.1l6.1,3.5
								c0.5,0.3,1.3,0.3,1.9-0.1l5.7-3.3C407,303.9,407,303.4,406.5,303.1z"/>
							<path class="st10" d="M416,308.6l-6.1-3.5c-0.5-0.3-1.3-0.3-1.9,0.1l-5.7,3.3c-0.5,0.3-0.6,0.8-0.1,1.1l6.1,3.5
								c0.5,0.3,1.3,0.3,1.9-0.1l5.7-3.3C416.4,309.4,416.5,308.9,416,308.6z"/>
							<path class="st10" d="M425.4,314l-6.1-3.5c-0.5-0.3-1.3-0.3-1.9,0.1l-5.7,3.3c-0.5,0.3-0.6,0.8-0.1,1.1l6.1,3.5
								c0.5,0.3,1.3,0.3,1.9-0.1l5.7-3.3C425.9,314.8,425.9,314.3,425.4,314z"/>
							<path class="st10" d="M434.9,319.5l-6.1-3.5c-0.5-0.3-1.3-0.3-1.9,0.1l-5.7,3.3c-0.5,0.3-0.6,0.8-0.1,1.1l6.1,3.5
								c0.5,0.3,1.3,0.3,1.9-0.1l5.7-3.3C435.4,320.3,435.4,319.8,434.9,319.5z"/>
							<path class="st10" d="M444.4,325l-6.1-3.5c-0.5-0.3-1.3-0.3-1.9,0.1l-5.7,3.3c-0.5,0.3-0.6,0.8-0.1,1.1l6.1,3.5
								c0.5,0.3,1.3,0.3,1.9-0.1l5.7-3.3C444.8,325.7,444.8,325.3,444.4,325z"/>
							<path class="st10" d="M453.8,330.4l-6.1-3.5c-0.5-0.3-1.3-0.3-1.9,0.1l-5.7,3.3c-0.5,0.3-0.6,0.8-0.1,1.1l6.1,3.5
								c0.5,0.3,1.3,0.3,1.9-0.1l5.7-3.3C454.3,331.2,454.3,330.7,453.8,330.4z"/>
							<path class="st10" d="M463.3,335.9l-6.1-3.5c-0.5-0.3-1.3-0.3-1.9,0.1l-5.7,3.3c-0.5,0.3-0.6,0.8-0.1,1.1l6.1,3.5
								c0.5,0.3,1.3,0.3,1.9-0.1l5.7-3.3C463.7,336.7,463.8,336.2,463.3,335.9z"/>
							<path class="st10" d="M472.7,341.4l-6.1-3.5c-0.5-0.3-1.3-0.3-1.9,0.1l-5.7,3.3c-0.5,0.3-0.6,0.8-0.1,1.1l6.1,3.5
								c0.5,0.3,1.3,0.3,1.9-0.1l5.7-3.3C473.2,342.1,473.2,341.6,472.7,341.4z"/>
							<path class="st10" d="M396.6,267.2l-18-10.4c-0.5-0.3-1.3-0.3-1.9,0.1l-5.7,3.3c-0.5,0.3-0.6,0.8-0.1,1.1l18,10.4
								c0.5,0.3,1.3,0.3,1.9-0.1l5.7-3.3C397.1,268,397.1,267.5,396.6,267.2z"/>
							<path class="st10" d="M512.8,334.3l-18-10.4c-0.5-0.3-1.3-0.3-1.9,0.1l-5.7,3.3c-0.5,0.3-0.6,0.8-0.1,1.1l18,10.4
								c0.5,0.3,1.3,0.3,1.9-0.1l5.7-3.3C513.3,335.1,513.3,334.6,512.8,334.3z"/>
							<path class="st10" d="M495.3,312.7l-6.1-3.5c-0.5-0.3-1.3-0.3-1.9,0.1l-6.8,4c-0.5,0.3-0.6,0.8-0.1,1.1l6.1,3.5
								c0.5,0.3,1.3,0.3,1.9-0.1l6.8-4C495.7,313.5,495.8,313,495.3,312.7z"/>
							<path class="st10" d="M426.6,273.1l-9.8-5.7c-0.5-0.3-1.3-0.3-1.9,0.1l-6.8,4c-0.5,0.3-0.6,0.8-0.1,1.1l9.8,5.7
								c0.5,0.3,1.3,0.3,1.9-0.1l6.8-4C427,273.8,427.1,273.4,426.6,273.1z"/>
							<path class="st10" d="M486.2,307.5l-9.8-5.7c-0.5-0.3-1.3-0.3-1.9,0.1l-6.8,4c-0.5,0.3-0.6,0.8-0.1,1.1l9.8,5.7
								c0.5,0.3,1.3,0.3,1.9-0.1l6.8-4C486.6,308.2,486.7,307.8,486.2,307.5z"/>
							<path class="st10" d="M440.2,281l-9.8-5.7c-0.5-0.3-1.3-0.3-1.9,0.1l-6.8,4c-0.5,0.3-0.6,0.8-0.1,1.1l9.8,5.7
								c0.5,0.3,1.3,0.3,1.9-0.1l6.8-4C440.7,281.7,440.7,281.2,440.2,281z"/>
							<path class="st10" d="M421.8,280.4l42.6,24.6c0.5,0.3,1.4,0.3,1.9,0l6.9-4.1c0.5-0.3,0.5-0.8-0.1-1.1l-42.6-24.6L421.8,280.4
								z"/>
							<path class="st10" d="M512.7,327.9l6.8,3.9c0.4,0.2,1.1,0.2,1.5,0l2.8-1.6c0.4-0.3,0.5-0.7,0.1-0.9l-6.8-3.9
								c-0.4-0.2-1.1-0.2-1.5,0l-2.8,1.6C512.3,327.2,512.3,327.6,512.7,327.9z"/>
							<path class="st10" d="M503.2,322.4l6.8,3.9c0.4,0.2,1.1,0.2,1.5,0l2.8-1.6c0.4-0.3,0.5-0.7,0.1-0.9l-6.8-3.9
								c-0.4-0.2-1.1-0.2-1.5,0l-2.8,1.6C502.8,321.7,502.8,322.1,503.2,322.4z"/>
							<path class="st10" d="M493.7,316.9l6.8,3.9c0.4,0.2,1.1,0.2,1.5,0l2.8-1.6c0.4-0.3,0.5-0.7,0.1-0.9l-6.8-3.9
								c-0.4-0.2-1.1-0.2-1.5,0l-2.8,1.6C493.3,316.3,493.3,316.7,493.7,316.9z"/>
							<path class="st10" d="M498.2,325.2l6.8,3.9c0.4,0.2,1.1,0.2,1.5,0l2.8-1.6c0.4-0.3,0.5-0.7,0.1-0.9l-6.8-3.9
								c-0.4-0.2-1.1-0.2-1.5,0l-2.8,1.6C497.9,324.6,497.8,325,498.2,325.2z"/>
						</g>
					</g>
				</g>
			</g>
			<g class="st20">
				<path class="st10" d="M261.2,330.7l-6.1-3.5c-0.5-0.3-0.4-0.8,0.1-1.1l7.2-4.1c0.6-0.3,1.4-0.4,1.9-0.1l6.1,3.5
					c0.5,0.3,0.4,0.8-0.1,1.1l-7.2,4.1C262.6,330.9,261.7,330.9,261.2,330.7z"/>
				<path class="st10" d="M270.6,336.1l-6.1-3.5c-0.5-0.3-0.4-0.8,0.1-1.1l7.2-4.1c0.6-0.3,1.4-0.4,1.9-0.1l6.1,3.5
					c0.5,0.3,0.4,0.8-0.1,1.1l-7.2,4.1C271.9,336.3,271.1,336.4,270.6,336.1z"/>
				<path class="st10" d="M280,341.5l-6.1-3.5c-0.5-0.3-0.4-0.8,0.1-1.1l7.2-4.1c0.6-0.3,1.4-0.4,1.9-0.1l6.1,3.5
					c0.5,0.3,0.4,0.8-0.1,1.1l-7.2,4.1C281.3,341.7,280.5,341.8,280,341.5z"/>
				<path class="st10" d="M292.9,337l-6.1-3.5c-0.5-0.3-0.4-0.8,0.1-1.1l6-3.5c0.6-0.3,1.4-0.4,1.9-0.1l6.1,3.5
					c0.5,0.3,0.4,0.8-0.1,1.1l-6,3.5C294.3,337.3,293.4,337.3,292.9,337z"/>
				<path class="st10" d="M302.3,342.4l-6.1-3.5c-0.5-0.3-0.4-0.8,0.1-1.1l6-3.5c0.6-0.3,1.4-0.4,1.9-0.1l6.1,3.5
					c0.5,0.3,0.4,0.8-0.1,1.1l-6,3.5C303.6,342.7,302.8,342.7,302.3,342.4z"/>
				<path class="st10" d="M311.7,347.8l-6.1-3.5c-0.5-0.3-0.4-0.8,0.1-1.1l6-3.5c0.6-0.3,1.4-0.4,1.9-0.1l6.1,3.5
					c0.5,0.3,0.4,0.8-0.1,1.1l-6,3.5C313,348.1,312.1,348.1,311.7,347.8z"/>
				<path class="st10" d="M321,353.2l-6.1-3.5c-0.5-0.3-0.4-0.8,0.1-1.1l6-3.5c0.6-0.3,1.4-0.4,1.9-0.1l6.1,3.5
					c0.5,0.3,0.4,0.8-0.1,1.1l-6,3.5C322.4,353.5,321.5,353.5,321,353.2z"/>
				<path class="st10" d="M330.4,358.6l-6.1-3.5c-0.5-0.3-0.4-0.8,0.1-1.1l6-3.5c0.6-0.3,1.4-0.4,1.9-0.1l6.1,3.5
					c0.5,0.3,0.4,0.8-0.1,1.1l-6,3.5C331.7,358.9,330.9,358.9,330.4,358.6z"/>
				<path class="st10" d="M339.8,364.1l-6.1-3.5c-0.5-0.3-0.4-0.8,0.1-1.1l6-3.5c0.6-0.3,1.4-0.4,1.9-0.1l6.1,3.5
					c0.5,0.3,0.4,0.8-0.1,1.1l-6,3.5C341.1,364.3,340.2,364.3,339.8,364.1z"/>
				<path class="st10" d="M349.1,369.5l-6.1-3.5c-0.5-0.3-0.4-0.8,0.1-1.1l6-3.5c0.6-0.3,1.4-0.4,1.9-0.1l6.1,3.5
					c0.5,0.3,0.4,0.8-0.1,1.1l-6,3.5C350.5,369.7,349.6,369.7,349.1,369.5z"/>
				<path class="st10" d="M358.5,374.9l-6.1-3.5c-0.5-0.3-0.4-0.8,0.1-1.1l6-3.5c0.6-0.3,1.4-0.4,1.9-0.1l6.1,3.5
					c0.5,0.3,0.4,0.8-0.1,1.1l-6,3.5C359.8,375.1,359,375.2,358.5,374.9z"/>
				<path class="st10" d="M367.9,380.3l-6.1-3.5c-0.5-0.3-0.4-0.8,0.1-1.1l6-3.5c0.6-0.3,1.4-0.4,1.9-0.1l6.1,3.5
					c0.5,0.3,0.4,0.8-0.1,1.1l-6,3.5C369.2,380.5,368.4,380.6,367.9,380.3z"/>
				<path class="st10" d="M377.2,385.7l-6.1-3.5c-0.5-0.3-0.4-0.8,0.1-1.1l6-3.5c0.6-0.3,1.4-0.4,1.9-0.1l6.1,3.5
					c0.5,0.3,0.4,0.8-0.1,1.1l-6,3.5C378.6,385.9,377.7,386,377.2,385.7z"/>
				<path class="st10" d="M306.7,334.5l-6.1-3.5c-0.5-0.3-0.4-0.8,0.1-1.1l6-3.5c0.6-0.3,1.4-0.4,1.9-0.1l6.1,3.5
					c0.5,0.3,0.4,0.8-0.1,1.1l-6,3.5C308.1,334.7,307.2,334.7,306.7,334.5z"/>
				<path class="st10" d="M297.2,329l-6.1-3.5c-0.5-0.3-0.4-0.8,0.1-1.1l6-3.5c0.6-0.3,1.4-0.4,1.9-0.1l6.1,3.5
					c0.5,0.3,0.4,0.8-0.1,1.1l-6,3.5C298.6,329.2,297.7,329.2,297.2,329z"/>
				<path class="st10" d="M287.7,323.5l-13.1-7.5c-0.5-0.3-0.4-0.8,0.1-1.1l6-3.5c0.6-0.3,1.4-0.4,1.9-0.1l13.1,7.5
					c0.5,0.3,0.4,0.8-0.1,1.1l-6,3.5C289,323.7,288.2,323.7,287.7,323.5z"/>
				<path class="st10" d="M294.4,316.8l-10.6-6.1c-0.5-0.3-0.4-0.8,0.1-1.1l6-3.5c0.6-0.3,1.4-0.4,1.9-0.1l10.6,6.1
					c0.5,0.3,0.4,0.8-0.1,1.1l-6,3.5C295.7,317,294.8,317.1,294.4,316.8z"/>
				<path class="st10" d="M316.1,339.9l-6.1-3.5c-0.5-0.3-0.4-0.8,0.1-1.1l6-3.5c0.6-0.3,1.4-0.4,1.9-0.1l6.1,3.5
					c0.5,0.3,0.4,0.8-0.1,1.1l-6,3.5C317.4,340.1,316.6,340.1,316.1,339.9z"/>
				<path class="st10" d="M325.5,345.3l-6.1-3.5c-0.5-0.3-0.4-0.8,0.1-1.1l6-3.5c0.6-0.3,1.4-0.4,1.9-0.1l6.1,3.5
					c0.5,0.3,0.4,0.8-0.1,1.1l-6,3.5C326.8,345.5,325.9,345.5,325.5,345.3z"/>
				<path class="st10" d="M334.8,350.7l-6.1-3.5c-0.5-0.3-0.4-0.8,0.1-1.1l6-3.5c0.6-0.3,1.4-0.4,1.9-0.1l6.1,3.5
					c0.5,0.3,0.4,0.8-0.1,1.1l-6,3.5C336.2,350.9,335.3,351,334.8,350.7z"/>
				<path class="st10" d="M344.2,356.1l-6.1-3.5c-0.5-0.3-0.4-0.8,0.1-1.1l6-3.5c0.6-0.3,1.4-0.4,1.9-0.1l6.1,3.5
					c0.5,0.3,0.4,0.8-0.1,1.1l-6,3.5C345.5,356.3,344.7,356.4,344.2,356.1z"/>
				<path class="st10" d="M353.6,361.5l-6.1-3.5c-0.5-0.3-0.4-0.8,0.1-1.1l6-3.5c0.6-0.3,1.4-0.4,1.9-0.1l6.1,3.5
					c0.5,0.3,0.4,0.8-0.1,1.1l-6,3.5C354.9,361.7,354.1,361.8,353.6,361.5z"/>
				<path class="st10" d="M362.9,366.9l-6.1-3.5c-0.5-0.3-0.4-0.8,0.1-1.1l6-3.5c0.6-0.3,1.4-0.4,1.9-0.1l6.1,3.5
					c0.5,0.3,0.4,0.8-0.1,1.1l-6,3.5C364.3,367.1,363.4,367.2,362.9,366.9z"/>
				<path class="st10" d="M372.3,372.3l-6.1-3.5c-0.5-0.3-0.4-0.8,0.1-1.1l6-3.5c0.6-0.3,1.4-0.4,1.9-0.1l6.1,3.5
					c0.5,0.3,0.4,0.8-0.1,1.1l-6,3.5C373.6,372.6,372.8,372.6,372.3,372.3z"/>
				<path class="st10" d="M381.7,377.7l-6.1-3.5c-0.5-0.3-0.4-0.8,0.1-1.1l6-3.5c0.6-0.3,1.4-0.4,1.9-0.1l6.1,3.5
					c0.5,0.3,0.4,0.8-0.1,1.1l-6,3.5C383,378,382.2,378,381.7,377.7z"/>
				<path class="st10" d="M391,383.1l-6.1-3.5c-0.5-0.3-0.4-0.8,0.1-1.1l6-3.5c0.6-0.3,1.4-0.4,1.9-0.1l6.1,3.5
					c0.5,0.3,0.4,0.8-0.1,1.1l-6,3.5C392.4,383.4,391.5,383.4,391,383.1z"/>
				<path class="st10" d="M407.7,392.7l-13.2-7.6c-0.5-0.3-0.4-0.8,0.1-1.1l6-3.5c0.6-0.3,1.4-0.4,1.9-0.1l13.2,7.6
					c0.5,0.3,0.4,0.8-0.1,1.1l-6,3.5C409,393,408.2,393,407.7,392.7z"/>
				<path class="st10" d="M425.9,382.2l-11.2-6.4c-0.5-0.3-0.4-0.8,0.1-1.1l6-3.5c0.6-0.3,1.4-0.4,1.9-0.1l11.2,6.4
					c0.5,0.3,0.4,0.8-0.1,1.1l-6,3.5C427.3,382.5,426.4,382.5,425.9,382.2z"/>
				<path class="st10" d="M332.5,338.8l-6.1-3.5c-0.5-0.3-0.4-0.8,0.1-1.1l6-3.5c0.6-0.3,1.4-0.4,1.9-0.1l6.1,3.5
					c0.5,0.3,0.4,0.8-0.1,1.1l-6,3.5C333.8,339,333,339.1,332.5,338.8z"/>
				<path class="st10" d="M322.9,333.3l-6.1-3.5c-0.5-0.3-0.4-0.8,0.1-1.1l6-3.5c0.6-0.3,1.4-0.4,1.9-0.1l6.1,3.5
					c0.5,0.3,0.4,0.8-0.1,1.1l-6,3.5C324.2,333.5,323.4,333.5,322.9,333.3z"/>
				<path class="st10" d="M313.3,327.7l-6.1-3.5c-0.5-0.3-0.4-0.8,0.1-1.1l6-3.5c0.6-0.3,1.4-0.4,1.9-0.1l6.1,3.5
					c0.5,0.3,0.4,0.8-0.1,1.1l-6,3.5C314.6,328,313.8,328,313.3,327.7z"/>
				<path class="st10" d="M303.7,322.2l-6.1-3.5c-0.5-0.3-0.4-0.8,0.1-1.1l6-3.5c0.6-0.3,1.4-0.4,1.9-0.1l6.1,3.5
					c0.5,0.3,0.4,0.8-0.1,1.1l-6,3.5C305,322.4,304.2,322.5,303.7,322.2z"/>
				<path class="st10" d="M341.9,344.2l-6.1-3.5c-0.5-0.3-0.4-0.8,0.1-1.1l6-3.5c0.6-0.3,1.4-0.4,1.9-0.1l6.1,3.5
					c0.5,0.3,0.4,0.8-0.1,1.1l-6,3.5C343.2,344.5,342.4,344.5,341.9,344.2z"/>
				<path class="st10" d="M351.2,349.6l-6.1-3.5c-0.5-0.3-0.4-0.8,0.1-1.1l6-3.5c0.6-0.3,1.4-0.4,1.9-0.1l6.1,3.5
					c0.5,0.3,0.4,0.8-0.1,1.1l-6,3.5C352.6,349.9,351.7,349.9,351.2,349.6z"/>
				<path class="st10" d="M360.6,355l-6.1-3.5c-0.5-0.3-0.4-0.8,0.1-1.1l6-3.5c0.6-0.3,1.4-0.4,1.9-0.1l6.1,3.5
					c0.5,0.3,0.4,0.8-0.1,1.1l-6,3.5C361.9,355.3,361.1,355.3,360.6,355z"/>
				<path class="st10" d="M370,360.4l-6.1-3.5c-0.5-0.3-0.4-0.8,0.1-1.1l6-3.5c0.6-0.3,1.4-0.4,1.9-0.1l6.1,3.5
					c0.5,0.3,0.4,0.8-0.1,1.1l-6,3.5C371.3,360.7,370.5,360.7,370,360.4z"/>
				<path class="st10" d="M379.3,365.8l-6.1-3.5c-0.5-0.3-0.4-0.8,0.1-1.1l6-3.5c0.6-0.3,1.4-0.4,1.9-0.1l6.1,3.5
					c0.5,0.3,0.4,0.8-0.1,1.1l-6,3.5C380.7,366.1,379.8,366.1,379.3,365.8z"/>
				<path class="st10" d="M388.7,371.3l-6.1-3.5c-0.5-0.3-0.4-0.8,0.1-1.1l6-3.5c0.6-0.3,1.4-0.4,1.9-0.1l6.1,3.5
					c0.5,0.3,0.4,0.8-0.1,1.1l-6,3.5C390,371.5,389.2,371.5,388.7,371.3z"/>
				<path class="st10" d="M398.1,376.7l-6.1-3.5c-0.5-0.3-0.4-0.8,0.1-1.1l6-3.5c0.6-0.3,1.4-0.4,1.9-0.1l6.1,3.5
					c0.5,0.3,0.4,0.8-0.1,1.1l-6,3.5C399.4,376.9,398.6,376.9,398.1,376.7z"/>
				<path class="st10" d="M407.4,382.1l-6.1-3.5c-0.5-0.3-0.4-0.8,0.1-1.1l6-3.5c0.6-0.3,1.4-0.4,1.9-0.1l6.1,3.5
					c0.5,0.3,0.4,0.8-0.1,1.1l-6,3.5C408.8,382.3,407.9,382.4,407.4,382.1z"/>
				<path class="st10" d="M416.8,387.5l-6.1-3.5c-0.5-0.3-0.4-0.8,0.1-1.1l6-3.5c0.6-0.3,1.4-0.4,1.9-0.1l6.1,3.5
					c0.5,0.3,0.4,0.8-0.1,1.1l-6,3.5C418.1,387.7,417.3,387.8,416.8,387.5z"/>
				<path class="st10" d="M327.6,325.4l-6.1-3.5c-0.5-0.3-0.4-0.8,0.1-1.1l6-3.5c0.6-0.3,1.4-0.4,1.9-0.1l6.1,3.5
					c0.5,0.3,0.4,0.8-0.1,1.1l-6,3.5C328.9,325.7,328.1,325.7,327.6,325.4z"/>
				<path class="st10" d="M318.2,320l-6.1-3.5c-0.5-0.3-0.4-0.8,0.1-1.1l6-3.5c0.6-0.3,1.4-0.4,1.9-0.1l6.1,3.5
					c0.5,0.3,0.4,0.8-0.1,1.1l-6,3.5C319.6,320.3,318.7,320.3,318.2,320z"/>
				<path class="st10" d="M308.9,314.7l-6.1-3.5c-0.5-0.3-0.4-0.8,0.1-1.1l6-3.5c0.6-0.3,1.4-0.4,1.9-0.1l6.1,3.5
					c0.5,0.3,0.4,0.8-0.1,1.1l-6,3.5C310.3,314.9,309.4,314.9,308.9,314.7z"/>
				<path class="st10" d="M299.6,309.3l-6.1-3.5c-0.5-0.3-0.4-0.8,0.1-1.1l6-3.5c0.6-0.3,1.4-0.4,1.9-0.1l6.1,3.5
					c0.5,0.3,0.4,0.8-0.1,1.1l-6,3.5C300.9,309.5,300.1,309.6,299.6,309.3z"/>
				<path class="st10" d="M309.2,303.7l-6.1-3.5c-0.5-0.3-0.4-0.8,0.1-1.1l2-1.1c0.6-0.3,1.4-0.4,1.9-0.1l6.1,3.5
					c0.5,0.3,0.4,0.8-0.1,1.1l-2,1.1C310.5,304,309.7,304,309.2,303.7z"/>
				<path class="st10" d="M321.4,310.8l-6.1-3.5c-0.5-0.3-0.4-0.8,0.1-1.1l2-1.1c0.6-0.3,1.4-0.4,1.9-0.1l6.1,3.5
					c0.5,0.3,0.4,0.8-0.1,1.1l-2,1.1C322.7,311,321.8,311.1,321.4,310.8z"/>
				<path class="st10" d="M330.6,316.1l-6.1-3.5c-0.5-0.3-0.4-0.8,0.1-1.1l2-1.1c0.6-0.3,1.4-0.4,1.9-0.1l6.1,3.5
					c0.5,0.3,0.4,0.8-0.1,1.1l-2,1.1C332,316.4,331.1,316.4,330.6,316.1z"/>
				<path class="st10" d="M339.9,321.5l-6.1-3.5c-0.5-0.3-0.4-0.8,0.1-1.1l2-1.1c0.6-0.3,1.4-0.4,1.9-0.1l6.1,3.5
					c0.5,0.3,0.4,0.8-0.1,1.1l-2,1.1C341.3,321.7,340.4,321.8,339.9,321.5z"/>
				<path class="st10" d="M349.2,326.8l-6.1-3.5c-0.5-0.3-0.4-0.8,0.1-1.1l2-1.1c0.6-0.3,1.4-0.4,1.9-0.1l6.1,3.5
					c0.5,0.3,0.4,0.8-0.1,1.1l-2,1.1C350.5,327.1,349.7,327.1,349.2,326.8z"/>
				<path class="st10" d="M401,356.8l-6.1-3.5c-0.5-0.3-0.4-0.8,0.1-1.1l2-1.1c0.6-0.3,1.4-0.4,1.9-0.1l6.1,3.5
					c0.5,0.3,0.4,0.8-0.1,1.1l-2,1.1C402.4,357,401.5,357,401,356.8z"/>
				<path class="st10" d="M410.3,362.1l-6.1-3.5c-0.5-0.3-0.4-0.8,0.1-1.1l2-1.1c0.6-0.3,1.4-0.4,1.9-0.1l6.1,3.5
					c0.5,0.3,0.4,0.8-0.1,1.1l-2,1.1C411.6,362.4,410.8,362.4,410.3,362.1z"/>
				<path class="st10" d="M419.6,367.5l-6.1-3.5c-0.5-0.3-0.4-0.8,0.1-1.1l2-1.1c0.6-0.3,1.4-0.4,1.9-0.1l6.1,3.5
					c0.5,0.3,0.4,0.8-0.1,1.1l-2,1.1C420.9,367.7,420.1,367.8,419.6,367.5z"/>
				<path class="st10" d="M428.9,372.8l-6.1-3.5c-0.5-0.3-0.4-0.8,0.1-1.1l2-1.1c0.6-0.3,1.4-0.4,1.9-0.1l6.1,3.5
					c0.5,0.3,0.4,0.8-0.1,1.1l-2,1.1C430.2,373.1,429.4,373.1,428.9,372.8z"/>
				<path class="st10" d="M336.9,330.8l-6.1-3.5c-0.5-0.3-0.4-0.8,0.1-1.1l6-3.5c0.6-0.3,1.4-0.4,1.9-0.1l6.1,3.5
					c0.5,0.3,0.4,0.8-0.1,1.1l-6,3.5C338.3,331.1,337.4,331.1,336.9,330.8z"/>
				<path class="st10" d="M346.3,336.2l-6.1-3.5c-0.5-0.3-0.4-0.8,0.1-1.1l6-3.5c0.6-0.3,1.4-0.4,1.9-0.1l6.1,3.5
					c0.5,0.3,0.4,0.8-0.1,1.1l-6,3.5C347.6,336.5,346.8,336.5,346.3,336.2z"/>
				<path class="st10" d="M355.7,341.7l-6.1-3.5c-0.5-0.3-0.4-0.8,0.1-1.1l6-3.5c0.6-0.3,1.4-0.4,1.9-0.1l6.1,3.5
					c0.5,0.3,0.4,0.8-0.1,1.1l-6,3.5C357,341.9,356.2,341.9,355.7,341.7z"/>
				<path class="st10" d="M365,347.1l-6.1-3.5c-0.5-0.3-0.4-0.8,0.1-1.1l6-3.5c0.6-0.3,1.4-0.4,1.9-0.1l6.1,3.5
					c0.5,0.3,0.4,0.8-0.1,1.1l-6,3.5C366.4,347.3,365.5,347.3,365,347.1z"/>
				<path class="st10" d="M374.4,352.5l-6.1-3.5c-0.5-0.3-0.4-0.8,0.1-1.1l6-3.5c0.6-0.3,1.4-0.4,1.9-0.1l6.1,3.5
					c0.5,0.3,0.4,0.8-0.1,1.1l-6,3.5C375.7,352.7,374.9,352.7,374.4,352.5z"/>
				<path class="st10" d="M383.8,357.9l-6.1-3.5c-0.5-0.3-0.4-0.8,0.1-1.1l6-3.5c0.6-0.3,1.4-0.4,1.9-0.1l6.1,3.5
					c0.5,0.3,0.4,0.8-0.1,1.1l-6,3.5C385.1,358.1,384.3,358.2,383.8,357.9z"/>
				<path class="st10" d="M393.1,363.3l-6.1-3.5c-0.5-0.3-0.4-0.8,0.1-1.1l6-3.5c0.6-0.3,1.4-0.4,1.9-0.1l6.1,3.5
					c0.5,0.3,0.4,0.8-0.1,1.1l-6,3.5C394.5,363.5,393.6,363.6,393.1,363.3z"/>
				<path class="st10" d="M402.5,368.7l-6.1-3.5c-0.5-0.3-0.4-0.8,0.1-1.1l6-3.5c0.6-0.3,1.4-0.4,1.9-0.1l6.1,3.5
					c0.5,0.3,0.4,0.8-0.1,1.1l-6,3.5C403.8,368.9,403,369,402.5,368.7z"/>
				<path class="st10" d="M411.9,374.1l-6.1-3.5c-0.5-0.3-0.4-0.8,0.1-1.1l6-3.5c0.6-0.3,1.4-0.4,1.9-0.1l6.1,3.5
					c0.5,0.3,0.4,0.8-0.1,1.1l-6,3.5C413.2,374.3,412.4,374.4,411.9,374.1z"/>
				<path class="st10" d="M283.4,331.5l-17.9-10.3c-0.5-0.3-0.4-0.8,0.1-1.1l6-3.5c0.6-0.3,1.4-0.4,1.9-0.1l17.9,10.3
					c0.5,0.3,0.4,0.8-0.1,1.1l-6,3.5C284.7,331.7,283.9,331.8,283.4,331.5z"/>
				<path class="st10" d="M398.5,397.9l-17.9-10.3c-0.5-0.3-0.4-0.8,0.1-1.1l6-3.5c0.6-0.3,1.4-0.4,1.9-0.1l17.9,10.3
					c0.5,0.3,0.4,0.8-0.1,1.1l-6,3.5C399.8,398.2,398.9,398.2,398.5,397.9z"/>
				<path class="st10" d="M361,388.3l-6.1-3.5c-0.5-0.3-0.4-0.8,0.1-1.1l7.2-4.1c0.6-0.3,1.4-0.4,1.9-0.1l6.1,3.5
					c0.5,0.3,0.4,0.8-0.1,1.1l-7.2,4.1C362.3,388.5,361.5,388.5,361,388.3z"/>
				<path class="st10" d="M293,349l-9.7-5.6c-0.5-0.3-0.4-0.8,0.1-1.1l7.2-4.1c0.6-0.3,1.4-0.4,1.9-0.1l9.7,5.6
					c0.5,0.3,0.4,0.8-0.1,1.1l-7.2,4.1C294.3,349.2,293.5,349.3,293,349z"/>
				<path class="st10" d="M352,383.1l-9.7-5.6c-0.5-0.3-0.4-0.8,0.1-1.1l7.2-4.1c0.6-0.3,1.4-0.4,1.9-0.1l9.7,5.6
					c0.5,0.3,0.4,0.8-0.1,1.1l-7.2,4.1C353.3,383.3,352.5,383.3,352,383.1z"/>
				<path class="st10" d="M306.5,356.8l-9.7-5.6c-0.5-0.3-0.4-0.8,0.1-1.1l7.2-4.1c0.6-0.3,1.4-0.4,1.9-0.1l9.7,5.6
					c0.5,0.3,0.4,0.8-0.1,1.1l-7.2,4.1C307.8,357,307,357.1,306.5,356.8z"/>
				<path class="st10" d="M306,345.9l42.2,24.4c0.5,0.3,0.5,0.8,0,1.1l-7.3,4.2c-0.5,0.3-1.4,0.3-1.9,0l-42.2-24.4L306,345.9z"/>
				<path class="st10" d="M387.2,398.1l6.8,3.9c0.4,0.2,0.3,0.6-0.1,0.9l-2.9,1.7c-0.5,0.3-1.2,0.3-1.6,0.1l-6.8-3.9
					c-0.4-0.2-0.3-0.6,0.1-0.9l2.9-1.7C386.1,397.9,386.8,397.8,387.2,398.1z"/>
				<path class="st10" d="M377.7,392.6l6.8,3.9c0.4,0.2,0.3,0.6-0.1,0.9l-2.9,1.7c-0.5,0.3-1.2,0.3-1.6,0.1l-6.8-3.9
					c-0.4-0.2-0.3-0.6,0.1-0.9l2.9-1.7C376.6,392.4,377.3,392.4,377.7,392.6z"/>
				<path class="st10" d="M368.4,387.2l6.8,3.9c0.4,0.2,0.3,0.6-0.1,0.9l-2.9,1.7c-0.5,0.3-1.2,0.3-1.6,0.1l-6.8-3.9
					c-0.4-0.2-0.3-0.6,0.1-0.9l2.9-1.7C367.3,387,368,387,368.4,387.2z"/>
				<path class="st10" d="M382.9,389.6l6.8,3.9c0.4,0.2,0.3,0.6-0.1,0.9l-2.9,1.7c-0.5,0.3-1.2,0.3-1.6,0.1l-6.8-3.9
					c-0.4-0.2-0.3-0.6,0.1-0.9l2.9-1.7C381.8,389.4,382.5,389.4,382.9,389.6z"/>
			</g>
		</g>
		<g>
			<path class="st1" d="M478.5,243.9c-0.5,0-0.9-0.1-1.4-0.4c-1.5-0.8-2.3-2.7-2-4.2c0.2-0.7,0.6-1.2,1.2-1.5
				c0.7-0.3,1.5-0.2,2.2,0.2c1.4,0.8,2.3,2.7,2,4.2c-0.2,0.7-0.6,1.2-1.2,1.5C479,243.8,478.8,243.9,478.5,243.9z M477.1,238.3
				c-0.2,0-0.4,0-0.6,0.1c-0.4,0.2-0.7,0.6-0.8,1.1c-0.3,1.2,0.5,2.8,1.7,3.5c0.6,0.3,1.2,0.4,1.7,0.2c0.4-0.2,0.7-0.6,0.8-1.1
				c0.3-1.2-0.5-2.8-1.7-3.5C477.8,238.4,477.5,238.3,477.1,238.3z"/>
			<path class="st1" d="M486.2,248.3c-0.5,0-0.9-0.1-1.4-0.4c-1.4-0.8-2.3-2.7-2-4.2c0.2-0.7,0.6-1.2,1.2-1.5
				c0.7-0.3,1.5-0.2,2.2,0.2c1.4,0.8,2.3,2.7,2,4.2c-0.2,0.7-0.6,1.2-1.2,1.5C486.8,248.3,486.5,248.3,486.2,248.3z M484.8,242.7
				c-0.2,0-0.4,0-0.6,0.1c-0.4,0.2-0.7,0.6-0.8,1.1c-0.3,1.2,0.5,2.8,1.7,3.5c0.6,0.3,1.2,0.4,1.7,0.2c0.4-0.2,0.7-0.6,0.8-1.1l0,0
				c0.3-1.2-0.5-2.8-1.7-3.5C485.6,242.8,485.2,242.7,484.8,242.7z"/>
			<path class="st1" d="M495.6,251c-0.3,1.3-1.6,1.8-3,1.1c-1.3-0.8-2.1-2.5-1.8-3.8c0.3-1.3,1.6-1.8,3-1.1
				C495.1,248,495.9,249.7,495.6,251z"/>
		</g>
		<polygon class="st1" points="347.5,165.8 343.4,163.4 343.7,161.5 347.9,163.9 		"/>
		<polygon class="st1" points="353.5,169.3 349.4,166.9 349.7,165 353.9,167.4 		"/>
		<polygon class="st1" points="341.6,162.4 332.5,157.2 332.8,155.2 341.9,160.5 		"/>
	</g>
	<g>
		<g>
			<path class="st1" d="M559.4,520.6c-2.5,0-5.1-0.6-7-1.7l-37.1-21.4c-1.9-1.1-3-2.6-3-4.2c0-1.6,1.1-3.1,3-4.2l37.1-21.4
				c3.9-2.2,10.1-2.2,14,0l37.1,21.4c1.9,1.1,3,2.6,3,4.2c0,1.6-1.1,3.1-3,4.2L566.4,519C564.5,520.1,562,520.6,559.4,520.6z
				 M552.8,518.4c3.7,2.1,9.7,2.1,13.3,0l37.1-21.4c1.7-1,2.7-2.3,2.7-3.7c0-1.4-0.9-2.7-2.7-3.7l-37.1-21.4
				c-3.7-2.1-9.7-2.1-13.3,0l-37.1,21.4c-1.7,1-2.7,2.3-2.7,3.7c0,1.4,0.9,2.7,2.7,3.7L552.8,518.4z"/>
			<g>
				<path class="st21" d="M607.6,485.1v-12.7l-2.3-1.3c-0.7,4-5.3,6.6-9.2,7.1l-26.6,15.5l-11.6,4.2l-37-19.1l0.9-0.5
					c-3.2-1.5-4.9-4.9-6.6-7.9l-2.5,1.5l-1.5,0.4v12.9v0c0,1.6,1.1,3.3,3.3,4.5l37.1,21.4c4.3,2.5,11.4,2.5,15.7,0l37.1-21.4
					c2.1-1.2,3.2-2.8,3.3-4.5C607.6,485.3,607.6,485.2,607.6,485.1L607.6,485.1z"/>
				<g>
					<g>
						<linearGradient id="SVGID_13_" gradientUnits="userSpaceOnUse" x1="520.8173" y1="448.7524" x2="597.3064" y2="492.9134">
							<stop  offset="0" style="stop-color:#BCBEFF"/>
							<stop  offset="0.2271" style="stop-color:#AAADF8"/>
							<stop  offset="0.6802" style="stop-color:#7C83E5"/>
							<stop  offset="1" style="stop-color:#5761D7"/>
						</linearGradient>
						<path class="st22" d="M607.6,473.8v-8.4l-2.3-1.3c-0.7,4-5.3,6.6-9.2,7.1l-26.6,15.5l-11.6,4.2l-37-19.1l0.9-0.5
							c-3.2-1.5-4.9-4.9-6.6-7.9l-2.5,1.5l-1.5,0.4v8.6v0c0,1.6,1.1,3.3,3.3,4.5l37.1,21.4c4.3,2.5,11.4,2.5,15.7,0l37.1-21.4
							c2.1-1.2,3.2-2.8,3.3-4.5C607.6,474,607.6,473.9,607.6,473.8L607.6,473.8z"/>
						<path class="st23" d="M596.1,471.3l-26.6,15.5l-10.1,3.6v11.4c2.9,0,5.7-0.6,7.9-1.9l37.1-21.4c2.1-1.2,3.2-2.8,3.3-4.5
							c0-0.1,0-0.1,0-0.2l0,0v-8.4l-2.1-1.2h-0.2C604.6,468.2,599.9,470.7,596.1,471.3z"/>
						<linearGradient id="SVGID_14_" gradientUnits="userSpaceOnUse" x1="525.4078" y1="445.7785" x2="593.621" y2="485.1613">
							<stop  offset="0.2421" style="stop-color:#5761D7"/>
							<stop  offset="0.3923" style="stop-color:#7A82E5"/>
							<stop  offset="0.5463" style="stop-color:#979CF0"/>
							<stop  offset="0.7" style="stop-color:#ACAFF8"/>
							<stop  offset="0.8519" style="stop-color:#B8BAFD"/>
							<stop  offset="1" style="stop-color:#BCBEFF"/>
						</linearGradient>
						<path class="st24" d="M521.8,471.4l35.1-20.3c1.4-0.8,3.7-0.8,5,0l34.5,19.9l-0.4,0.2c3.9-0.5,8.6-3.2,9.2-7.1l-38.7-21.5
							l-11.3-3l-9.2,5.4l-30.9,18.4C516.9,466.5,518.6,469.9,521.8,471.4z"/>
						<path class="st23" d="M559.4,440.7l-4.1-1.1l-9.2,5.4l-30.9,18.4c1.7,3.1,3.4,6.5,6.6,7.9l35.1-20.3c0.7-0.4,1.6-0.6,2.5-0.6
							V440.7z"/>
						<g>
							<linearGradient id="SVGID_15_" gradientUnits="userSpaceOnUse" x1="511.2263" y1="465.4452" x2="607.6314" y2="465.4452">
								<stop  offset="0" style="stop-color:#E9E9FD"/>
								<stop  offset="0.3601" style="stop-color:#D3D2F9"/>
								<stop  offset="0.7062" style="stop-color:#C5C4F7"/>
								<stop  offset="1" style="stop-color:#C0BFF6"/>
							</linearGradient>
							<path class="st25" d="M551.6,491.4L514.5,470c-4.3-2.5-4.3-6.6,0-9.1l37.1-21.4c4.3-2.5,11.4-2.5,15.7,0l37.1,21.4
								c4.3,2.5,4.3,6.6,0,9.1l-37.1,21.4C563,493.9,555.9,493.9,551.6,491.4z M561.9,442.6c-1.4-0.8-3.7-0.8-5,0L519.8,464
								c-1.4,0.8-1.4,2.1,0,2.9l37.1,21.4c1.4,0.8,3.7,0.8,5,0l37.1-21.4c1.4-0.8,1.4-2.1,0-2.9L561.9,442.6z"/>
						</g>
						<g>
							<path class="st5" d="M599,464l-37.1-21.4c-1.4-0.8-3.7-0.8-5,0L519.8,464c-0.9,0.5-1.2,1.3-0.9,2c0.2-0.3,0.5-0.7,0.9-0.9
								l37.1-21.4c1.4-0.8,3.7-0.8,5,0L599,465c0.5,0.3,0.8,0.6,0.9,0.9C600.3,465.3,600,464.5,599,464z"/>
							<path class="st5" d="M604.4,470l-37.1,21.4c-4.3,2.5-11.4,2.5-15.7,0L514.5,470c-1.9-1.1-3-2.6-3.2-4
								c-0.3,1.8,0.8,3.7,3.2,5.1l37.1,21.4c4.3,2.5,11.4,2.5,15.7,0l37.1-21.4c2.4-1.4,3.5-3.3,3.2-5.1
								C607.4,467.4,606.3,468.9,604.4,470z"/>
						</g>
						<g>
							<linearGradient id="SVGID_16_" gradientUnits="userSpaceOnUse" x1="512.7064" y1="465.4451" x2="606.1513" y2="465.4451">
								<stop  offset="0" style="stop-color:#E9E9FD"/>
								<stop  offset="0.3601" style="stop-color:#D3D2F9"/>
								<stop  offset="0.7062" style="stop-color:#C5C4F7"/>
								<stop  offset="1" style="stop-color:#C0BFF6"/>
							</linearGradient>
							<path class="st26" d="M552.6,490.8l-37.1-21.4c-3.8-2.2-3.8-5.7,0-7.9l37.1-21.4c3.8-2.2,9.9-2.2,13.7,0l37.1,21.4
								c3.8,2.2,3.8,5.7,0,7.9l-37.1,21.4C562.5,493,556.4,493,552.6,490.8z M563,442c-2-1.1-5.2-1.1-7.1,0l-37.1,21.4
								c-2,1.1-2,3,0,4.1l37.1,21.4c2,1.1,5.2,1.1,7.1,0l37.1-21.4c2-1.1,2-3,0-4.1L563,442z"/>
						</g>
					</g>
					<path class="st21" d="M561.9,442.6c-1.4-0.8-3.7-0.8-5,0L519.8,464c-1.4,0.8-1.4,2.1,0,2.9l37.1,21.4c1.4,0.8,3.7,0.8,5,0
						l37.1-21.4c1.4-0.8,1.4-2.1,0-2.9L561.9,442.6z"/>
				</g>
			</g>
		</g>
		<linearGradient id="SVGID_17_" gradientUnits="userSpaceOnUse" x1="559.4268" y1="488.9072" x2="559.4268" y2="333.1874">
			<stop  offset="0" style="stop-color:#42E8E0"/>
			<stop  offset="0.1055" style="stop-color:#37B6BF"/>
			<stop  offset="0.2197" style="stop-color:#2C87A1"/>
			<stop  offset="0.338" style="stop-color:#235F87"/>
			<stop  offset="0.4587" style="stop-color:#1C3F72"/>
			<stop  offset="0.5824" style="stop-color:#162561"/>
			<stop  offset="0.7105" style="stop-color:#121355"/>
			<stop  offset="0.8458" style="stop-color:#10084E"/>
			<stop  offset="1" style="stop-color:#0F054C"/>
		</linearGradient>
		<path class="st27" d="M600.1,465.4V333.2h-81.3l0,132.2c0,0.5,0.3,1.1,1,1.5l37.1,21.4c1.4,0.8,3.7,0.8,5,0l37.1-21.4
			C599.7,466.5,600.1,466,600.1,465.4z"/>
	</g>
	<g>
		<g>
			<path class="st1" d="M182.3,249.8c-2.5,0-5.1-0.6-7-1.7l-37.1-21.4c-1.9-1.1-3-2.6-3-4.2c0-1.6,1.1-3.1,3-4.2l37.1-21.4
				c3.9-2.2,10.1-2.2,14,0l37.1,21.4c1.9,1.1,3,2.6,3,4.2c0,1.6-1.1,3.1-3,4.2l-37.1,21.4C187.4,249.3,184.8,249.8,182.3,249.8z
				 M175.6,247.6c3.7,2.1,9.7,2.1,13.3,0l37.1-21.4c1.7-1,2.7-2.3,2.7-3.7c0-1.4-0.9-2.7-2.7-3.7L189,197.5c-3.7-2.1-9.7-2.1-13.3,0
				l-37.1,21.4c-1.7,1-2.7,2.3-2.7,3.7c0,1.4,0.9,2.7,2.7,3.7L175.6,247.6z"/>
			<g>
				<path class="st21" d="M230.5,214.3v-12.7l-2.3-1.3c-0.7,4-5.3,6.6-9.2,7.1L192.4,223l-11.6,4.2l-37-19.1l0.9-0.5
					c-3.2-1.5-4.9-4.9-6.6-7.9l-2.5,1.5l-1.5,0.4v12.9l0,0c0,1.6,1.1,3.3,3.3,4.5l37.1,21.4c4.3,2.5,11.4,2.5,15.7,0l37.1-21.4
					c2.1-1.2,3.2-2.8,3.3-4.5C230.5,214.5,230.5,214.4,230.5,214.3L230.5,214.3z"/>
				<g>
					<g>
						<linearGradient id="SVGID_18_" gradientUnits="userSpaceOnUse" x1="143.6973" y1="177.9515" x2="220.1864" y2="222.1125">
							<stop  offset="0" style="stop-color:#BCBEFF"/>
							<stop  offset="0.2271" style="stop-color:#AAADF8"/>
							<stop  offset="0.6802" style="stop-color:#7C83E5"/>
							<stop  offset="1" style="stop-color:#5761D7"/>
						</linearGradient>
						<path class="st28" d="M230.5,203v-8.4l-2.3-1.3c-0.7,4-5.3,6.6-9.2,7.1L192.4,216l-11.6,4.2l-37-19.1l0.9-0.5
							c-3.2-1.5-4.9-4.9-6.6-7.9l-2.5,1.5l-1.5,0.4v8.6l0,0c0,1.6,1.1,3.3,3.3,4.5l37.1,21.4c4.3,2.5,11.4,2.5,15.7,0l37.1-21.4
							c2.1-1.2,3.2-2.8,3.3-4.5C230.5,203.2,230.5,203.1,230.5,203L230.5,203z"/>
						<path class="st23" d="M219,200.5L192.4,216l-10.1,3.6V231c2.9,0,5.7-0.6,7.9-1.9l37.1-21.4c2.1-1.2,3.2-2.8,3.3-4.5
							c0-0.1,0-0.1,0-0.2l0,0v-8.4l-2.1-1.2h-0.2C227.4,197.4,222.8,199.9,219,200.5z"/>
						<g>
							<linearGradient id="SVGID_19_" gradientUnits="userSpaceOnUse" x1="134.1063" y1="194.6442" x2="230.5114" y2="194.6442">
								<stop  offset="0" style="stop-color:#E9E9FD"/>
								<stop  offset="0.3601" style="stop-color:#D3D2F9"/>
								<stop  offset="0.7062" style="stop-color:#C5C4F7"/>
								<stop  offset="1" style="stop-color:#C0BFF6"/>
							</linearGradient>
							<path class="st29" d="M174.4,220.6l-37.1-21.4c-4.3-2.5-4.3-6.6,0-9.1l37.1-21.4c4.3-2.5,11.4-2.5,15.7,0l37.1,21.4
								c4.3,2.5,4.3,6.6,0,9.1l-37.1,21.4C185.8,223.1,178.8,223.1,174.4,220.6z"/>
						</g>
						<g>
							<path class="st5" d="M227.3,199.2l-37.1,21.4c-4.3,2.5-11.4,2.5-15.7,0l-37.1-21.4c-1.9-1.1-3-2.6-3.2-4
								c-0.3,1.8,0.8,3.7,3.2,5.1l37.1,21.4c4.3,2.5,11.4,2.5,15.7,0l37.1-21.4c2.4-1.4,3.5-3.3,3.2-5.1
								C230.3,196.6,229.2,198.1,227.3,199.2z"/>
						</g>
					</g>
				</g>
			</g>
		</g>
	</g>
	<path class="st1" d="M416.8,573.3c-3.1,0-6.2-0.7-8.6-2l-149-86c-2.3-1.4-3.6-3.2-3.6-5.1c0-2,1.3-3.8,3.6-5.1l31.4-18.1l0.3,0.6
		l-31.4,18.1c-2.1,1.2-3.3,2.9-3.3,4.6c0,1.7,1.2,3.3,3.3,4.6l149,86c4.5,2.6,11.9,2.6,16.5,0l109-62.7l0.3,0.6l-109,62.7
		C423,572.6,419.9,573.3,416.8,573.3z"/>
	<g>
		<path class="st30" d="M113.8,291.6c-3,0-5.9-0.7-8.2-2l-37.1-21.4c-2.3-1.3-3.6-3.2-3.6-5.1c0-2,1.3-3.8,3.6-5.1l37.1-21.4
			c4.5-2.6,11.9-2.6,16.4,0l37.1,21.4c2.3,1.3,3.6,3.2,3.6,5.1c0,2-1.3,3.8-3.6,5.1L122,289.6C119.8,291,116.8,291.6,113.8,291.6z
			 M106.3,288.5c4.2,2.4,10.9,2.4,15.1,0l37.1-21.4c1.9-1.1,2.9-2.5,2.9-4c0-1.5-1-2.9-2.9-4l-37.1-21.4c-4.2-2.4-10.9-2.4-15.1,0
			l-37.1,21.4c-1.9,1.1-2.9,2.5-2.9,4s1,2.9,2.9,4L106.3,288.5z"/>
	</g>
	<g>
		<path class="st31" d="M236.5,548.8c-3,0-5.9-0.7-8.2-2l-37.1-21.4c-2.3-1.3-3.6-3.1-3.6-5.1c0-2,1.3-3.8,3.6-5.1l37.1-21.4
			c4.5-2.6,11.9-2.6,16.4,0l37.1,21.4c2.3,1.3,3.6,3.1,3.6,5.1c0,2-1.3,3.8-3.6,5.1l-37.1,21.4C242.5,548.1,239.5,548.8,236.5,548.8
			z M229,545.7c4.2,2.4,10.9,2.4,15.1,0l37.1-21.4c1.9-1.1,2.9-2.5,2.9-4c0-1.5-1-2.9-2.9-4l-37.1-21.4c-4.2-2.4-10.9-2.4-15.1,0
			l-37.1,21.4c-1.9,1.1-2.9,2.5-2.9,4c0,1.5,1,2.9,2.9,4L229,545.7z"/>
	</g>
	<path class="st1" d="M179.5,478.5c-1.8,0-3.6-0.5-5.2-1.4l-49.2-28.5l0.3-0.6l49.2,28.5c3,1.7,6.7,1.7,9.7,0l70.4-40.6l0.3,0.6
		l-70.4,40.6C183.1,478.1,181.3,478.5,179.5,478.5z"/>
	<g>
		<circle class="st21" cx="599.2" cy="167.1" r="6.2"/>
		<circle class="st21" cx="599.2" cy="167.1" r="2.7"/>
	</g>
	<g>
		<circle class="st21" cx="505" cy="58.7" r="6.2"/>
		<circle class="st21" cx="505" cy="58.7" r="2.7"/>
	</g>
	<g>
		<circle class="st21" cx="681.4" cy="188.8" r="6.2"/>
		<circle class="st21" cx="681.4" cy="188.8" r="2.7"/>
	</g>
	<path class="st1" d="M95.3,455.5c-11.5,0-23-2.5-31.8-7.6c-8.5-4.9-13.2-11.5-13.2-18.5c0-7,4.7-13.6,13.2-18.5
		c17.5-10.1,46-10.1,63.5,0c8.5,4.9,13.2,11.5,13.2,18.5s-4.7,13.6-13.2,18.5l0,0C118.3,453,106.8,455.5,95.3,455.5z M95.3,403.9
		c-11.4,0-22.8,2.5-31.4,7.5c-8.3,4.8-12.9,11.2-12.9,18c0,6.8,4.6,13.1,12.9,18c17.3,10,45.5,10,62.8,0c8.3-4.8,12.9-11.2,12.9-18
		s-4.6-13.1-12.9-18C118.1,406.4,106.7,403.9,95.3,403.9z"/>
	<g>
		<g>
			<g>
				<g>
					<path class="st32" d="M77.6,411.1c10-5.8,26.1-5.8,36.1,0c1.6,0.9,3,2,4.1,3.1c5.6-5.6,4.3-13-4.1-17.8
						c-10-5.8-26.1-5.8-36.1,0c-8.3,4.8-9.7,12.1-4.1,17.8C74.6,413,76,412,77.6,411.1z"/>
					<linearGradient id="SVGID_20_" gradientUnits="userSpaceOnUse" x1="50.4736" y1="421.6421" x2="140.7692" y2="421.6421">
						<stop  offset="0" style="stop-color:#BCBEFF"/>
						<stop  offset="0.151" style="stop-color:#A3A7F5"/>
						<stop  offset="0.3866" style="stop-color:#8289E8"/>
						<stop  offset="0.6124" style="stop-color:#6A73DF"/>
						<stop  offset="0.8221" style="stop-color:#5C66D9"/>
						<stop  offset="1" style="stop-color:#5761D7"/>
					</linearGradient>
					<path class="st33" d="M134.1,406.8c-1.8-1.7-4-3.3-6.5-4.8c-4-2.3-8.5-4.1-13.3-5.3c9.3,5.9,9,15-0.9,20.7
						c-10.2,5.9-26.6,5.9-36.8,0c-9.5-5.5-10.1-14.2-1.8-20.1c-4,1.2-7.8,2.8-11.1,4.7c-2.5,1.5-4.7,3.1-6.5,4.8h-6.7v13.7h0
						c0,6.7,4.4,13.3,13.2,18.4c17.6,10.2,46.2,10.2,63.8,0c8.8-5.1,13.2-11.8,13.2-18.4v-13.7H134.1z"/>
					<path class="st23" d="M127.5,402.1c-4-2.3-8.5-4.1-13.3-5.3c9.3,5.9,9,15-0.9,20.7c-4.9,2.8-11.3,4.3-17.7,4.4v24.7
						c11.6,0,23.1-2.5,31.9-7.6c8.8-5.1,13.2-11.8,13.2-18.4v-13.7h-6.7C132.3,405.1,130.1,403.5,127.5,402.1z"/>
					<radialGradient id="SVGID_21_" cx="138.4898" cy="435.4292" r="52.4735" gradientUnits="userSpaceOnUse">
						<stop  offset="0" style="stop-color:#42E8E0"/>
						<stop  offset="3.469288e-02" style="stop-color:#3FDCD8"/>
						<stop  offset="0.2363" style="stop-color:#319CAE"/>
						<stop  offset="0.4286" style="stop-color:#25668B"/>
						<stop  offset="0.6062" style="stop-color:#1B3C70"/>
						<stop  offset="0.7662" style="stop-color:#151E5C"/>
						<stop  offset="0.9028" style="stop-color:#100C50"/>
						<stop  offset="1" style="stop-color:#0F054C"/>
					</radialGradient>
					<path class="st34" d="M127.5,402.1c-4-2.3-8.5-4.1-13.3-5.3c9.3,5.9,9,15-0.9,20.7c-4.9,2.8-11.3,4.3-17.7,4.4v24.7
						c11.6,0,23.1-2.5,31.9-7.6c8.8-5.1,13.2-11.8,13.2-18.4v-13.7h-6.7C132.3,405.1,130.1,403.5,127.5,402.1z"/>
					<linearGradient id="SVGID_22_" gradientUnits="userSpaceOnUse" x1="50.4737" y1="407.9494" x2="140.7693" y2="407.9494">
						<stop  offset="0" style="stop-color:#C0BFF6"/>
						<stop  offset="0.2938" style="stop-color:#C5C4F7"/>
						<stop  offset="0.6399" style="stop-color:#D3D2F9"/>
						<stop  offset="1" style="stop-color:#E9E9FD"/>
					</linearGradient>
					<path class="st35" d="M127.5,389.5c-17.6-10.2-46.2-10.2-63.8,0c-17.6,10.2-17.6,26.7,0,36.9s46.2,10.2,63.8,0
						C145.2,416.2,145.2,399.7,127.5,389.5z M113.7,418.6c-10.2,5.9-26.6,5.9-36.8,0c-10.2-5.9-10.2-15.4,0-21.2s26.6-5.9,36.8,0
						C123.8,403.2,123.8,412.7,113.7,418.6z"/>
					<g>
						<path class="st5" d="M127.5,425c-17.6,10.2-46.2,10.2-63.8,0c-8.5-4.9-12.9-11.3-13.2-17.7c-0.3,6.9,4.1,13.9,13.2,19.1
							c17.6,10.2,46.2,10.2,63.8,0c9.1-5.3,13.5-12.2,13.2-19.1C140.5,413.7,136.1,420.1,127.5,425z"/>
						<path class="st5" d="M113.7,395.9c-10.2-5.9-26.6-5.9-36.8,0c-5.4,3.1-7.9,7.2-7.6,11.3c0.3-3.6,2.8-7.2,7.6-9.9
							c10.2-5.9,26.6-5.9,36.8,0c4.8,2.8,7.3,6.3,7.6,9.9C121.6,403.2,119.1,399,113.7,395.9z"/>
					</g>
					<linearGradient id="SVGID_23_" gradientUnits="userSpaceOnUse" x1="53.7547" y1="406.6634" x2="137.8098" y2="406.6634">
						<stop  offset="0" style="stop-color:#C0BFF6"/>
						<stop  offset="0.2938" style="stop-color:#C5C4F7"/>
						<stop  offset="0.6399" style="stop-color:#D3D2F9"/>
						<stop  offset="1" style="stop-color:#E9E9FD"/>
					</linearGradient>
					<path class="st36" d="M125.5,389.5c-16.4-9.5-43-9.5-59.4,0s-16.4,24.8,0,34.3c16.4,9.5,43,9.5,59.4,0
						C141.9,414.3,141.9,399,125.5,389.5z M113.5,416.9c-9.8,5.7-25.7,5.7-35.5,0c-9.8-5.7-9.8-14.8,0-20.5c9.8-5.7,25.7-5.7,35.5,0
						C123.3,402.1,123.3,411.3,113.5,416.9z"/>
				</g>
			</g>
			<path class="st21" d="M113.5,416.9c-9.8,5.7-25.7,5.7-35.5,0c-9.8-5.7-9.8-14.8,0-20.5c9.8-5.7,25.7-5.7,35.5,0
				C123.3,402.1,123.3,411.3,113.5,416.9z"/>
			<linearGradient id="SVGID_24_" gradientUnits="userSpaceOnUse" x1="95.7794" y1="275.4866" x2="95.7794" y2="421.1564">
				<stop  offset="0" style="stop-color:#0F054C"/>
				<stop  offset="0.1542" style="stop-color:#10084E"/>
				<stop  offset="0.2895" style="stop-color:#121355"/>
				<stop  offset="0.4176" style="stop-color:#162561"/>
				<stop  offset="0.5413" style="stop-color:#1C3F72"/>
				<stop  offset="0.662" style="stop-color:#235F87"/>
				<stop  offset="0.7803" style="stop-color:#2C87A1"/>
				<stop  offset="0.8945" style="stop-color:#37B6BF"/>
				<stop  offset="1" style="stop-color:#42E8E0"/>
			</linearGradient>
			<path class="st37" d="M120.9,406.4L120.9,406.4l0-130.9H70.7v131.1h0c0,3.7,2.4,7.5,7.3,10.3c9.8,5.7,25.7,5.7,35.5,0
				C118.6,414,121,410.2,120.9,406.4z"/>
		</g>
		<g>
			<circle class="st21" cx="112.8" cy="354" r="1.5"/>
			<circle class="st21" cx="86.6" cy="285.3" r="1.5"/>
			<circle class="st21" cx="88.8" cy="336.6" r="2.2"/>
			<circle class="st38" cx="85.4" cy="374.4" r="1.6"/>
			<circle class="st38" cx="106.9" cy="311.2" r="2.4"/>
			<circle class="st38" cx="105.8" cy="318.9" r="1.6"/>
		</g>
		<g class="st20">
			<g>
				<defs>
					<path id="SVGID_25_" d="M123.9,371.9l0.6-0.3c0.1-0.1,0.3,0,0.3,0.1c0.1,0.1,0,0.3-0.1,0.3l-0.6,0.3L123.9,371.9z"/>
				</defs>
				<clipPath id="SVGID_26_">
					<use xlink:href="#SVGID_25_"  style="overflow:visible;"/>
				</clipPath>
				<g style="clip-path:url(#SVGID_26_);">
					
						<image style="overflow:visible;" width="4" height="2" xlink:href="1DE4C96A3A83BD7D.png"  transform="matrix(1 0 0 1 122 371)">
					</image>
				</g>
			</g>
			
				<image style="overflow:visible;" width="92" height="54" xlink:href="1DE4C96A3A83BD7F.png"  transform="matrix(1 0 0 1 50 325)">
			</image>
			<g>
				<defs>
					<path id="SVGID_27_" d="M128.3,370l-0.5,0.3c-0.1,0.1-0.3,0-0.3-0.1c-0.1-0.1,0-0.3,0.1-0.3l0,0l0.5-0.3L128.3,370z"/>
				</defs>
				<clipPath id="SVGID_28_">
					<use xlink:href="#SVGID_27_"  style="overflow:visible;"/>
				</clipPath>
				<g style="clip-path:url(#SVGID_28_);">
					
						<image style="overflow:visible;" width="4" height="3" xlink:href="1DE4C96A3A83BD7A.png"  transform="matrix(1 0 0 1 126 368)">
					</image>
				</g>
			</g>
		</g>
		<g class="st20">
			<g>
				<defs>
					<path id="SVGID_29_" d="M62.6,308.9L62.6,308.9c0.2,0.1,0.2,0.3,0.2,0.4c-0.1,0.1-0.2,0.1-0.3,0.1l-0.1-0.1L62.6,308.9z"/>
				</defs>
				<clipPath id="SVGID_30_">
					<use xlink:href="#SVGID_29_"  style="overflow:visible;"/>
				</clipPath>
				<g style="clip-path:url(#SVGID_30_);">
					
						<image style="overflow:visible;" width="3" height="3" xlink:href="1DE4C96A3A83BD7B.png"  transform="matrix(1 0 0 1 62 308)">
					</image>
				</g>
			</g>
			
				<image style="overflow:visible;" width="92" height="46" xlink:href="1DE4C96A3A83BD85.png"  transform="matrix(1 0 0 1 50 265)">
			</image>
			<g>
				<defs>
					<path id="SVGID_31_" d="M128.3,309.8l-0.5,0.3c-0.1,0.1-0.3,0-0.3-0.1c-0.1-0.1,0-0.3,0.1-0.3l0,0l0.5-0.3L128.3,309.8z"/>
				</defs>
				<clipPath id="SVGID_32_">
					<use xlink:href="#SVGID_31_"  style="overflow:visible;"/>
				</clipPath>
				<g style="clip-path:url(#SVGID_32_);">
					
						<image style="overflow:visible;" width="4" height="3" xlink:href="1DE4C96A3A83BD87.png"  transform="matrix(1 0 0 1 126 308)">
					</image>
				</g>
			</g>
		</g>
		<g class="st20">
			<g>
				<defs>
					<path id="SVGID_33_" d="M123.9,311.6l0.6-0.3c0.1-0.1,0.3,0,0.3,0.1c0.1,0.1,0,0.3-0.1,0.3l-0.6,0.3L123.9,311.6z"/>
				</defs>
				<clipPath id="SVGID_34_">
					<use xlink:href="#SVGID_33_"  style="overflow:visible;"/>
				</clipPath>
				<g style="clip-path:url(#SVGID_34_);">
					
						<image style="overflow:visible;" width="4" height="3" xlink:href="1DE4C96A3A83BD8A.png"  transform="matrix(1 0 0 1 122 310)">
					</image>
				</g>
			</g>
			<image style="overflow:visible;" width="32" height="7" xlink:href="1DE4C96A3A83BD8B.png"  transform="matrix(1 0 0 1 93 311)">
			</image>
			<g>
				<defs>
					<path id="SVGID_35_" d="M93.8,317.8l-0.6,0c-0.1,0-0.2-0.1-0.2-0.2c0-0.1,0.1-0.2,0.2-0.2l0.6,0L93.8,317.8z"/>
				</defs>
				<clipPath id="SVGID_36_">
					<use xlink:href="#SVGID_35_"  style="overflow:visible;"/>
				</clipPath>
				<g style="clip-path:url(#SVGID_36_);">
					
						<image style="overflow:visible;" width="4" height="1" xlink:href="1DE4C96A3A83BD8D.png"  transform="matrix(1 0 0 1 92 317)">
					</image>
				</g>
			</g>
		</g>
		<g class="st20">
			<g>
				<defs>
					<path id="SVGID_37_" d="M127,342.8l0.5-0.3l0,0c0.1-0.1,0.3,0,0.3,0.1c0.1,0.1,0,0.3-0.1,0.3l-0.5,0.3L127,342.8z"/>
				</defs>
				<clipPath id="SVGID_38_">
					<use xlink:href="#SVGID_37_"  style="overflow:visible;"/>
				</clipPath>
				<g style="clip-path:url(#SVGID_38_);">
					
						<image style="overflow:visible;" width="4" height="2" xlink:href="52111C5A750A6316.png"  transform="matrix(1 0 0 1 125 342)">
					</image>
				</g>
			</g>
			
				<image style="overflow:visible;" width="78" height="46" xlink:href="52111C5A750A6311.png"  transform="matrix(1 0 0 1 50 305)">
			</image>
			<g>
				<defs>
					<path id="SVGID_39_" d="M63.2,306l0.5-0.3c0.1-0.1,0.3,0,0.3,0.1c0.1,0.1,0,0.3-0.1,0.3l0,0l-0.5,0.3L63.2,306z"/>
				</defs>
				<clipPath id="SVGID_40_">
					<use xlink:href="#SVGID_39_"  style="overflow:visible;"/>
				</clipPath>
				<g style="clip-path:url(#SVGID_40_);">
					
						<image style="overflow:visible;" width="3" height="3" xlink:href="52111C5A750A6312.png"  transform="matrix(1 0 0 1 62 305)">
					</image>
				</g>
			</g>
		</g>
		<circle class="st38" cx="127.7" cy="370.2" r="2.4"/>
		<circle class="st38" cx="129.4" cy="363.5" r="1.8"/>
		<circle class="st38" cx="134.4" cy="362.8" r="1.1"/>
		
			<ellipse transform="matrix(0.5547 -0.8321 0.8321 0.5547 -238.1803 276.9225)" class="st38" cx="139.6" cy="361" rx="0.8" ry="0.8"/>
		
			<ellipse transform="matrix(0.5547 -0.8321 0.8321 0.5547 -234.7318 277.2662)" class="st38" cx="141.7" cy="357.9" rx="1" ry="1"/>
		
			<ellipse transform="matrix(0.5547 -0.8321 0.8321 0.5547 -233.8915 274.4619)" class="st38" cx="139.5" cy="355.7" rx="1.3" ry="1.3"/>
		<circle class="st38" cx="63.8" cy="305.8" r="2.4"/>
		<circle class="st38" cx="56.5" cy="306.4" r="1.6"/>
		<circle class="st38" cx="57.6" cy="311.2" r="1.4"/>
		<circle class="st38" cx="56.3" cy="314.6" r="0.9"/>
		
			<ellipse transform="matrix(0.2701 -0.9628 0.9628 0.2701 -265.6884 280.0978)" class="st38" cx="51.9" cy="315.3" rx="0.7" ry="0.7"/>
		<circle class="st38" cx="127.7" cy="309.9" r="2.4"/>
		<circle class="st38" cx="130" cy="303.4" r="1.8"/>
		<circle class="st38" cx="134.9" cy="301.3" r="1.2"/>
		<circle class="st38" cx="138.9" cy="301.7" r="0.9"/>
		<circle class="st38" cx="140.9" cy="299" r="0.5"/>
	</g>
	<g>
		<polygon class="st1" points="342,181.2 332.1,175.5 332.5,173.2 342.4,178.9 		"/>
		<polygon class="st1" points="350.4,186 345.5,183.2 345.9,180.9 350.8,183.7 		"/>
		<polygon class="st1" points="344,188.2 339.8,185.8 340.2,183.5 344.4,185.9 		"/>
		<polygon class="st1" points="351.1,192.3 346.1,189.4 346.5,187.1 351.4,190 		"/>
		<polygon class="st1" points="358.3,202.3 338.9,191.1 339.3,188.8 358.7,200 		"/>
		<polygon class="st1" points="341.5,247.1 322.1,235.9 322.5,233.6 341.9,244.8 		"/>
		<polygon class="st1" points="349,251.4 344,248.6 344.4,246.3 349.3,249.1 		"/>
		<polygon class="st1" points="342.2,198.9 338,196.5 338.4,194.2 342.6,196.6 		"/>
		<polygon class="st1" points="349.3,203 344.3,200.1 344.7,197.8 349.7,200.7 		"/>
		<polygon class="st1" points="347.8,208 337.1,201.8 337.5,199.5 348.2,205.7 		"/>
		<polygon class="st1" points="354.9,212.1 350,209.3 350.4,207 355.3,209.8 		"/>
		<polygon class="st1" points="362.1,216.2 357.2,213.4 357.5,211.1 362.5,214 		"/>
		<polygon class="st1" points="373.7,222.9 364.3,217.5 364.7,215.3 374.1,220.6 		"/>
		<polygon class="st1" points="366.3,230.4 361.4,227.6 361.7,225.3 366.7,228.1 		"/>
		<polygon class="st1" points="377.9,237.1 368.5,231.7 368.9,229.4 378.3,234.8 		"/>
		<polygon class="st1" points="340.3,215.4 335.3,212.5 335.7,210.2 340.6,213.1 		"/>
		<polygon class="st1" points="347.4,219.5 342.5,216.7 342.9,214.4 347.8,217.2 		"/>
		<polygon class="st1" points="359,226.2 349.7,220.8 350.1,218.5 359.4,223.9 		"/>
		<polygon class="st1" points="374.2,229.1 369.3,226.2 369.6,224 374.6,226.8 		"/>
		<polygon class="st1" points="381.4,233.2 376.4,230.4 376.8,228.1 381.8,231 		"/>
		<polygon class="st1" points="393,239.9 383.6,234.5 384,232.3 393.3,237.6 		"/>
		<polygon class="st1" points="356.7,255.9 351.7,253 352.1,250.8 357.1,253.6 		"/>
		<polygon class="st1" points="368.3,262.6 358.9,257.2 359.3,254.9 368.6,260.3 		"/>
		<polygon class="st1" points="338.5,226.1 333.5,223.2 333.9,220.9 338.9,223.8 		"/>
		<polygon class="st1" points="350,232.8 340.7,227.4 341.1,225.1 350.4,230.5 		"/>
		<polygon class="st1" points="362.1,264.9 357.1,262 357.5,259.7 362.4,262.6 		"/>
		<polygon class="st1" points="373.6,271.5 364.3,266.2 364.7,263.9 374,269.3 		"/>
		<polygon class="st1" points="373.1,210.8 368.1,208 368.5,205.7 373.5,208.6 		"/>
		<polygon class="st1" points="365.6,206.5 360.7,203.7 361.1,201.4 366,204.2 		"/>
		<polygon class="st1" points="384.7,217.5 375.3,212.1 375.7,209.9 385,215.2 		"/>
		<polygon class="st1" points="340.7,209.7 336.2,207.2 336.6,204.9 341.1,207.5 		"/>
		<polygon class="st1" points="353.9,217.4 343.1,211.1 343.4,208.8 354.3,215.1 		"/>
		<polygon class="st1" points="367.1,225 356.3,218.7 356.6,216.5 367.5,222.7 		"/>
		<polygon class="st1" points="391.5,221.5 387.1,218.9 387.4,216.6 391.9,219.2 		"/>
		<polygon class="st1" points="404.7,229.1 393.9,222.9 394.3,220.6 405.1,226.8 		"/>
		<polygon class="st1" points="417.9,236.7 407.1,230.5 407.5,228.2 418.3,234.5 		"/>
		<polygon class="st1" points="345.4,224.2 334.5,217.9 334.9,215.6 345.7,221.9 		"/>
		<polygon class="st1" points="351.1,227.5 347.7,225.6 348.1,223.3 351.4,225.2 		"/>
		<polygon class="st1" points="356.8,230.8 353.5,228.9 353.8,226.6 357.2,228.5 		"/>
		<polygon class="st1" points="367.4,236.9 359.2,232.2 359.6,229.9 367.7,234.6 		"/>
		<polygon class="st1" points="379.2,226.1 375.9,224.2 376.3,221.9 379.6,223.8 		"/>
		<polygon class="st1" points="389.8,232.2 381.6,227.5 382,225.2 390.2,229.9 		"/>
		<polygon class="st1" points="392,233.5 383.8,228.8 384.2,226.5 392.4,231.2 		"/>
		<polygon class="st1" points="348.5,262.9 337.8,256.7 338.2,254.4 348.8,260.6 		"/>
		<polygon class="st1" points="355.6,267 350.7,264.1 351,261.9 356,264.7 		"/>
		<polygon class="st1" points="362.8,271.1 357.8,268.3 358.2,266 363.1,268.9 		"/>
		<polygon class="st1" points="374.3,277.8 365,272.4 365.4,270.1 374.7,275.5 		"/>
		<polygon class="st1" points="381.8,282.1 376.8,279.3 377.2,277 382.1,279.8 		"/>
		<polygon class="st1" points="393.3,288.8 384,283.4 384.4,281.1 393.7,286.5 		"/>
		<polygon class="st1" points="357.8,280 352.9,277.2 353.3,274.9 358.2,277.7 		"/>
		<polygon class="st1" points="369.4,286.7 360,281.3 360.4,279 369.8,284.4 		"/>
		<polygon class="st1" points="332,265.1 327.1,262.3 327.5,260 332.4,262.8 		"/>
		<polygon class="st1" points="339.2,269.3 334.3,266.4 334.6,264.1 339.6,267 		"/>
		<polygon class="st1" points="350.8,276 341.4,270.6 341.8,268.3 351.2,273.7 		"/>
		<polygon class="st1" points="341.3,264.6 336.9,262.1 337.3,259.8 341.7,262.4 		"/>
		<polygon class="st1" points="354.6,272.3 343.7,266 344.1,263.7 354.9,270 		"/>
		<polygon class="st1" points="367.8,279.9 356.9,273.6 357.3,271.4 368.1,277.6 		"/>
		<polygon class="st1" points="328.4,268.9 317.6,262.6 317.9,260.4 328.8,266.6 		"/>
		<polygon class="st1" points="334.1,272.2 330.8,270.3 331.1,268 334.5,269.9 		"/>
		<polygon class="st1" points="339.8,275.5 336.5,273.6 336.9,271.3 340.2,273.2 		"/>
		<polygon class="st1" points="350.4,281.6 342.2,276.9 342.6,274.6 350.8,279.3 		"/>
		<polygon class="st1" points="352.6,282.9 344.4,278.2 344.8,275.9 353,280.6 		"/>
		<polygon class="st1" points="333.3,248.2 329.9,246.3 330.3,244 333.6,245.9 		"/>
		<polygon class="st1" points="343.8,254.3 335.7,249.6 336,247.3 344.2,252.1 		"/>
		<polygon class="st1" points="354.6,260.6 346.5,255.9 346.8,253.6 355,258.3 		"/>
		<polygon class="st1" points="396.3,296.3 391.3,293.5 391.7,291.2 396.6,294.1 		"/>
		<polygon class="st1" points="407.8,303 398.5,297.6 398.9,295.4 408.2,300.8 		"/>
		<polygon class="st1" points="378,285.8 369.9,281.1 370.2,278.8 378.4,283.5 		"/>
		<polygon class="st1" points="388.8,292.1 380.7,287.3 381,285.1 389.2,289.8 		"/>
		<polygon class="st1" points="327.5,225.6 324.1,223.7 324.5,221.4 327.9,223.3 		"/>
		<polygon class="st1" points="338,231.7 329.9,227 330.3,224.7 338.4,229.4 		"/>
		<polygon class="st1" points="348.9,237.9 340.7,233.2 341.1,230.9 349.2,235.7 		"/>
	</g>
	<g>
		<circle class="st21" cx="541.9" cy="374.8" r="1.5"/>
		<circle class="st21" cx="568.1" cy="443.4" r="1.5"/>
		<circle class="st21" cx="565.9" cy="392.2" r="2.2"/>
		<circle class="st38" cx="569.3" cy="354.4" r="1.6"/>
		<circle class="st38" cx="547.8" cy="417.6" r="2.4"/>
		<circle class="st38" cx="548.9" cy="409.9" r="1.6"/>
	</g>
	<path class="st1" d="M475.1,297.3c-0.5,0-1.1-0.2-1.6-0.5l-45.3-26.1c-1.9-1.1-3.1-3.8-2.7-6.1l2.9-17.3c0.2-1.2,0.8-2.1,1.7-2.5
		c0.8-0.4,1.8-0.3,2.7,0.2l45.3,26.1c1.9,1.1,3.1,3.8,2.7,6.1l-2.9,17.3c-0.2,1.2-0.8,2.1-1.7,2.5
		C475.9,297.3,475.5,297.3,475.1,297.3z M431.3,245.4c-0.3,0-0.5,0.1-0.8,0.2c-0.6,0.3-1.1,1-1.3,2l-2.9,17.3
		c-0.3,2,0.7,4.4,2.3,5.3l45.3,26.1c0.7,0.4,1.4,0.5,2,0.2c0.6-0.3,1.1-1,1.3-2l2.9-17.3c0.3-2-0.7-4.4-2.3-5.3l-45.3-26.1
		C432.1,245.5,431.7,245.4,431.3,245.4z"/>
	<path class="st1" d="M470.2,327c-0.5,0-1.1-0.2-1.6-0.5l-45.3-26.1c-1.9-1.1-3.1-3.8-2.7-6.1l2.9-17.3c0.2-1.2,0.8-2.1,1.7-2.5
		c0.8-0.4,1.8-0.3,2.7,0.2l45.3,26.1c1.9,1.1,3.1,3.8,2.7,6.1l-2.9,17.3c-0.2,1.2-0.8,2.1-1.7,2.5C470.9,326.9,470.5,327,470.2,327z
		 M426.3,275.1c-0.3,0-0.5,0.1-0.7,0.2c-0.6,0.3-1.1,1-1.3,2l-2.9,17.3c-0.3,2,0.7,4.4,2.3,5.3l45.3,26.1c0.7,0.4,1.4,0.5,2,0.2
		c0.6-0.3,1.1-1,1.3-2l2.9-17.3c0.3-2-0.7-4.4-2.3-5.3l-45.3-26.1C427.1,275.2,426.7,275.1,426.3,275.1z"/>
	<linearGradient id="SVGID_41_" gradientUnits="userSpaceOnUse" x1="435.8591" y1="263.8087" x2="500.8754" y2="291.6238">
		<stop  offset="0" style="stop-color:#42E8E0"/>
		<stop  offset="0.1055" style="stop-color:#37B6BF"/>
		<stop  offset="0.2197" style="stop-color:#2C87A1"/>
		<stop  offset="0.338" style="stop-color:#235F87"/>
		<stop  offset="0.4587" style="stop-color:#1C3F72"/>
		<stop  offset="0.5824" style="stop-color:#162561"/>
		<stop  offset="0.7105" style="stop-color:#121355"/>
		<stop  offset="0.8458" style="stop-color:#10084E"/>
		<stop  offset="1" style="stop-color:#0F054C"/>
	</linearGradient>
	<path class="st39" d="M432.4,268.8c0.8,0.5,1.5,0.3,1.8-0.4l5.3-14.4c0.6-1.6,3.1-0.2,3.6,2.2l3.2,14.5c0.2,1.1,1,2.1,1.8,2.6
		l0.8,0.4c0.8,0.4,1.4,0.3,1.7-0.3l1.1-2.3c0.7-1.4,2.9-0.1,3.5,2.1l0,0c0.3,1,1,2,1.8,2.4l0.7,0.4c0.8,0.5,1.5,0.3,1.8-0.5l1-3
		c0.6-1.7,3-0.3,3.6,2.1l3.3,13.4c0.3,1.1,1,2.1,1.8,2.6L432.4,268.8z"/>
	<path class="st1" d="M463.3,320.2c-0.9-0.5-1.7-1.6-2-2.8l-3.3-13.4c-0.4-1.5-1.6-2.5-2.2-2.5c-0.2,0-0.5,0-0.6,0.5l-1,3
		c-0.1,0.4-0.4,0.8-0.8,0.9c-0.4,0.2-1,0.1-1.5-0.2l-0.7-0.4c-0.9-0.5-1.6-1.5-1.9-2.6c-0.4-1.4-1.4-2.3-2.2-2.4
		c-0.3,0-0.5,0.1-0.6,0.4l-1.1,2.3c-0.2,0.4-0.5,0.6-0.8,0.7c-0.4,0.1-0.9,0.1-1.5-0.2l-0.8-0.4c-0.9-0.5-1.7-1.7-2-2.9l-3.2-14.5
		c-0.3-1.4-1.4-2.5-2.2-2.6c-0.3,0-0.5,0.1-0.6,0.4l-5.3,14.4c-0.2,0.4-0.4,0.7-0.8,0.9c-0.4,0.2-1,0.1-1.5-0.2l0.4-0.7
		c0.3,0.2,0.6,0.3,0.9,0.2c0.2-0.1,0.3-0.2,0.4-0.4l5.3-14.4c0.2-0.6,0.8-1,1.4-1c1.1,0.1,2.5,1.4,2.9,3.2l3.2,14.5
		c0.2,1,0.9,1.9,1.6,2.3l0.8,0.4c0.3,0.2,0.6,0.3,0.8,0.2c0.2,0,0.3-0.2,0.3-0.3l1.1-2.3c0.3-0.6,0.8-0.8,1.4-0.8
		c1.2,0.1,2.4,1.4,2.9,3c0.3,0.9,0.9,1.8,1.6,2.2l0.7,0.4c0.3,0.2,0.6,0.3,0.9,0.2c0.2-0.1,0.3-0.2,0.4-0.4l1-3c0.2-0.7,0.7-1,1.4-1
		c1.1,0,2.5,1.3,3,3.1l3.3,13.4c0.2,0.9,0.9,1.9,1.6,2.3L463.3,320.2z"/>
</g>
</svg>
