<?xml version="1.0" encoding="utf-8"?>
<!-- Generator: Adobe Illustrator 20.0.0, SVG Export Plug-In . SVG Version: 6.00 Build 0)  -->
<svg version="1.1" id="Layer_1" xmlns="http://www.w3.org/2000/svg" xmlns:xlink="http://www.w3.org/1999/xlink" x="0px" y="0px"
	 viewBox="0 0 30 30" style="enable-background:new 0 0 30 30;" xml:space="preserve">
<style type="text/css">
	.st0{fill:#FFFFFF;}
</style>
<g>
	<path class="st0" d="M27.5,2.5c-0.7-0.7-1.9-0.7-2.6,0L15,12.4L5.1,2.5c-0.7-0.7-1.9-0.7-2.6,0s-0.7,1.9,0,2.6l9.9,9.9l-9.9,9.9
		c-0.7,0.7-0.7,1.9,0,2.6C2.9,27.9,3.3,28,3.8,28s0.9-0.2,1.3-0.6l9.9-9.9l9.9,9.9c0.4,0.4,0.9,0.6,1.3,0.6c0.4,0,0.9-0.2,1.3-0.6
		c0.7-0.7,0.7-1.9,0-2.6L17.6,15l9.9-9.9C28.2,4.4,28.2,3.3,27.5,2.5z"/>
</g>
</svg>
