<?xml version="1.0" encoding="utf-8"?>
<!-- Generator: Adobe Illustrator 20.0.0, SVG Export Plug-In . SVG Version: 6.00 Build 0)  -->
<svg version="1.1" id="Layer_1" xmlns="http://www.w3.org/2000/svg" xmlns:xlink="http://www.w3.org/1999/xlink" x="0px" y="0px"
	 viewBox="0 0 21 21" style="enable-background:new 0 0 21 21;" xml:space="preserve">
<style type="text/css">
	.st0{fill:#293D8F;}
</style>
<g>
	<path class="st0" d="M15.6,11.2c0,0,0.1,0,0.1,0c0.4,1.1,1.6,1.7,2.8,1.4c1.1-0.4,1.7-1.6,1.4-2.8S18.2,8.1,17,8.5
		c-0.6,0.2-1.1,0.7-1.4,1.4c0,0-0.1,0-0.1,0h-0.8C14.7,9.1,14.4,8.5,14,8l1.3-1.3l0,0c0.3,0.1,0.6,0.2,0.9,0.2c1.2,0,2.2-1,2.2-2.2
		s-1-2.2-2.2-2.2c-1.2,0-2.2,1-2.2,2.2c0,0.3,0.1,0.6,0.2,0.9l0,0L13,7c-0.5-0.4-1.1-0.6-1.8-0.7V5.4c0,0,0-0.1,0-0.1
		c1.1-0.4,1.7-1.6,1.4-2.8C12.2,1.4,11,0.8,9.8,1.2S8.1,2.8,8.5,4c0.2,0.6,0.7,1.1,1.4,1.4c0,0,0,0.1-0.1,0.1v0.8
		C9.1,6.3,8.5,6.6,8,7L6.7,5.7l0,0C6.8,5.4,6.9,5,6.9,4.7c0-1.2-1-2.2-2.2-2.2s-2.2,1-2.2,2.2s1,2.2,2.2,2.2c0.3,0,0.6-0.1,0.9-0.2
		l0,0L7,8C6.6,8.5,6.3,9.1,6.2,9.8H5.4c0,0-0.1,0-0.1,0C4.9,8.6,3.7,8,2.6,8.4C1.4,8.8,0.8,10,1.2,11.2s1.6,1.7,2.8,1.4
		c0.6-0.2,1.1-0.7,1.4-1.4c0,0,0.1,0,0.1,0.1h0.8C6.3,11.9,6.6,12.5,7,13l-1.3,1.3l0,0c-0.3-0.1-0.6-0.2-0.9-0.2
		c-1.2,0-2.2,1-2.2,2.2c0,1.2,1,2.2,2.2,2.2s2.2-1,2.2-2.2c0-0.3-0.1-0.6-0.2-0.9l0,0L8,14c0.5,0.4,1.1,0.6,1.8,0.7v0.8
		c0,0,0,0.1,0,0.1c-1.1,0.4-1.7,1.6-1.4,2.8c0.4,1.1,1.6,1.7,2.8,1.4s1.7-1.6,1.4-2.8c-0.2-0.6-0.7-1.1-1.4-1.4c0,0,0-0.1,0.1-0.1
		v-0.8c0.6-0.1,1.3-0.4,1.8-0.7l1.3,1.3l0,0c-0.1,0.3-0.2,0.6-0.2,0.9c0,1.2,1,2.2,2.2,2.2c1.2,0,2.2-1,2.2-2.2c0-1.2-1-2.2-2.2-2.2
		c-0.3,0-0.6,0.1-0.9,0.2l0,0L14,13c0.4-0.5,0.6-1.1,0.7-1.8L15.6,11.2z M17.7,9.8c0.4,0,0.7,0.3,0.7,0.7c0,0.4-0.3,0.7-0.7,0.7
		c-0.4,0-0.7-0.3-0.7-0.7C17,10.1,17.3,9.8,17.7,9.8z M16.3,4C16.7,4,17,4.3,17,4.7c0,0.4-0.3,0.7-0.7,0.7c-0.4,0-0.7-0.3-0.7-0.7
		C15.6,4.3,15.9,4,16.3,4z M4.7,5.4C4.3,5.4,4,5.1,4,4.7C4,4.3,4.3,4,4.7,4c0.4,0,0.7,0.3,0.7,0.7C5.4,5.1,5.1,5.4,4.7,5.4z
		 M3.3,11.2c-0.4,0-0.7-0.3-0.7-0.7c0-0.4,0.3-0.7,0.7-0.7S4,10.1,4,10.5C4,10.9,3.7,11.2,3.3,11.2z M4.7,17C4.3,17,4,16.7,4,16.3
		c0-0.4,0.3-0.7,0.7-0.7c0.4,0,0.7,0.3,0.7,0.7C5.4,16.7,5.1,17,4.7,17z M16.3,15.6c0.4,0,0.7,0.3,0.7,0.7c0,0.4-0.3,0.7-0.7,0.7
		c-0.4,0-0.7-0.3-0.7-0.7C15.6,15.9,15.9,15.6,16.3,15.6z M10.5,2.6c0.4,0,0.7,0.3,0.7,0.7S10.9,4,10.5,4c-0.4,0-0.7-0.3-0.7-0.7
		S10.1,2.6,10.5,2.6z M10.5,18.4c-0.4,0-0.7-0.3-0.7-0.7c0-0.4,0.3-0.7,0.7-0.7c0.4,0,0.7,0.3,0.7,0.7
		C11.2,18.1,10.9,18.4,10.5,18.4z M10.5,13.4c-1.6,0-2.9-1.3-2.9-2.9s1.3-2.9,2.9-2.9s2.9,1.3,2.9,2.9S12.1,13.4,10.5,13.4z"/>
</g>
</svg>
