<?xml version="1.0" encoding="utf-8"?>
<!-- Generator: Adobe Illustrator 20.0.0, SVG Export Plug-In . SVG Version: 6.00 Build 0)  -->
<svg version="1.1" id="Layer_1" xmlns="http://www.w3.org/2000/svg" xmlns:xlink="http://www.w3.org/1999/xlink" x="0px" y="0px"
	 viewBox="0 0 40 40" style="enable-background:new 0 0 40 40;" xml:space="preserve">
<style type="text/css">
	.st0{clip-path:url(#SVGID_2_);fill:#3E82F1;}
	.st1{clip-path:url(#SVGID_4_);fill:#32A753;}
	.st2{clip-path:url(#SVGID_6_);fill:#F9BB00;}
	.st3{clip-path:url(#SVGID_8_);fill:#E74133;}
</style>
<g>
	<g>
		<defs>
			<path id="SVGID_1_" d="M40,20.5c0-1.4-0.1-2.8-0.4-4.1H20.4v7.7h11c-0.5,2.5-1.9,4.6-4.1,6v5h6.6C37.8,31.7,40,26.5,40,20.5
				L40,20.5L40,20.5z M40,20.5"/>
		</defs>
		<clipPath id="SVGID_2_">
			<use xlink:href="#SVGID_1_"  style="overflow:visible;"/>
		</clipPath>
		<rect id="XMLID_96_" x="9.1" y="5.3" class="st0" width="42.3" height="41"/>
	</g>
	<g>
		<defs>
			<path id="SVGID_3_" d="M20.4,40c5.5,0,10.1-1.8,13.5-4.8l-6.6-5c-1.8,1.2-4.2,1.9-6.9,1.9c-5.3,0-9.8-3.5-11.4-8.2H2.2V29
				C5.5,35.5,12.4,40,20.4,40L20.4,40L20.4,40z M20.4,40"/>
		</defs>
		<clipPath id="SVGID_4_">
			<use xlink:href="#SVGID_3_"  style="overflow:visible;"/>
		</clipPath>
		<rect id="XMLID_91_" x="-9.2" y="12.7" class="st1" width="54.4" height="38.4"/>
	</g>
	<g>
		<defs>
			<path id="SVGID_5_" d="M9,23.8c-0.4-1.2-0.6-2.5-0.6-3.8c0-1.3,0.2-2.6,0.6-3.8V11H2.2C0.8,13.7,0,16.8,0,20s0.8,6.3,2.2,9
				L9,23.8L9,23.8L9,23.8z M9,23.8"/>
		</defs>
		<clipPath id="SVGID_6_">
			<use xlink:href="#SVGID_5_"  style="overflow:visible;"/>
		</clipPath>
		<rect id="XMLID_88_" x="-11.3" y="-0.1" class="st2" width="31.7" height="40.2"/>
	</g>
	<g>
		<defs>
			<path id="SVGID_7_" d="M20.4,8c3,0,5.7,1,7.8,3l5.9-5.7C30.5,2,25.9,0,20.4,0c-8,0-14.9,4.5-18.2,11L9,16.2
				C10.6,11.5,15.1,8,20.4,8L20.4,8L20.4,8z M20.4,8"/>
		</defs>
		<clipPath id="SVGID_8_">
			<use xlink:href="#SVGID_7_"  style="overflow:visible;"/>
		</clipPath>
		<rect id="XMLID_85_" x="-9.2" y="-11.1" class="st3" width="54.6" height="38.4"/>
	</g>
</g>
</svg>
