<?xml version="1.0" encoding="utf-8"?>
<!-- Generator: Adobe Illustrator 20.0.0, SVG Export Plug-In . SVG Version: 6.00 Build 0)  -->
<svg version="1.1" id="Layer_1" xmlns="http://www.w3.org/2000/svg" xmlns:xlink="http://www.w3.org/1999/xlink" x="0px" y="0px"
	 viewBox="0 0 40 40" style="enable-background:new 0 0 40 40;" xml:space="preserve">
<style type="text/css">
	.st0{fill:#3E5C9A;}
	.st1{fill:#FFFFFF;}
</style>
<g id="XMLID_72_">
	<path id="XMLID_74_" class="st0" d="M20,40L20,40C9,40,0,31,0,20l0,0C0,9,9,0,20,0l0,0c11,0,20,9,20,20l0,0C40,31,31,40,20,40z"/>
	<path id="XMLID_73_" class="st1" d="M16.8,32.6h5.1V19.9h3.5l0.4-4.3h-3.9c0,0,0-1.6,0-2.4c0-1,0.2-1.4,1.2-1.4c0.8,0,2.7,0,2.7,0
		V7.4c0,0-2.9,0-3.5,0c-3.8,0-5.5,1.7-5.5,4.8c0,2.8,0,3.4,0,3.4h-2.6v4.3h2.6V32.6z"/>
</g>
</svg>
