<?xml version="1.0" encoding="utf-8"?>
<!-- Generator: Adobe Illustrator 20.0.0, SVG Export Plug-In . SVG Version: 6.00 Build 0)  -->
<svg version="1.1" id="Layer_1" xmlns="http://www.w3.org/2000/svg" xmlns:xlink="http://www.w3.org/1999/xlink" x="0px" y="0px"
	 viewBox="0 0 80 80" style="enable-background:new 0 0 80 80;" xml:space="preserve">
<style type="text/css">
	.st0{opacity:0.47;fill:#FFFFFF;}
	.st1{fill:#FFFFFF;}
</style>
<g>
	<path class="st0" d="M31.4,50.3h39.9l-20-39.9L31.4,50.3z"/>
	<path class="st1" d="M54.3,53.2H76L51.4,4L34.3,38.2l-8.6-17.1L4,64.6h18.9v5.7H5.8V76h68.5v-5.7h-20V53.2z M51.4,16.8l15.4,30.7
		H54.3V33.2h-5.7v14.3H36.1l1.4-2.9L51.4,16.8z M25.7,33.9l5.4,10.7l-4.3,8.6h8.6l2.9,5.7h-25L25.7,33.9z M28.6,64.6h18.9l-5.7-11.4
		h6.8v17.1h-20V64.6z"/>
</g>
</svg>
