<?xml version="1.0" encoding="utf-8"?>
<!-- Generator: Adobe Illustrator 20.0.0, SVG Export Plug-In . SVG Version: 6.00 Build 0)  -->
<svg version="1.1" id="Layer_1" xmlns="http://www.w3.org/2000/svg" xmlns:xlink="http://www.w3.org/1999/xlink" x="0px" y="0px"
	 viewBox="0 0 50 40" style="enable-background:new 0 0 50 40;" xml:space="preserve">
<style type="text/css">
	.st0{fill:url(#SVGID_1_);}
	.st1{opacity:0.4;fill:#C1C2D3;}
</style>
<g>
	<linearGradient id="SVGID_1_" gradientUnits="userSpaceOnUse" x1="15.574" y1="14.1199" x2="35.856" y2="35.9451">
		<stop  offset="0" style="stop-color:#FFFFFF"/>
		<stop  offset="1" style="stop-color:#AECBFF"/>
	</linearGradient>
	<path class="st0" d="M39,15.9c-2.1,0-3.9,0.8-5.5,1.8c-1.1-8-8-14.1-16.2-14.1C8.2,3.6,0.9,11,0.9,20s7.3,16.4,16.4,16.4h15l0,0
		c0.4,0,0.7,0,1.1,0c1.2,0,2.4,0,3.7-0.1c0.8,0,1.4,0,1.9,0c5.6,0,10.2-4.6,10.2-10.2C49.1,20.5,44.6,15.9,39,15.9z M6.6,20
		c0-5.9,4.8-10.7,10.7-10.7S27.9,14.1,27.9,20s-4.8,10.7-10.7,10.7S6.6,25.9,6.6,20z M39,30.5c-0.6,0-1.3,0-2.1,0
		c-1.8,0.1-4.1,0.1-6.2,0c-0.3,0-0.6,0-0.9-0.1c0.1-0.1,0.2-0.2,0.3-0.3c0,0,0,0,0,0s0,0,0,0c0.4-0.5,0.7-1,1.1-1.5
		c1.2-1.6,3.1-4,5.5-6.1c0.8-0.5,1.5-0.9,2.3-0.9c2.5,0,4.4,2,4.4,4.4S41.4,30.5,39,30.5z"/>
	<path class="st1" d="M27.9,19.8c0,0.1,0,0.1,0,0.2c0,2.2-0.7,4.2-1.8,5.9c5.7-6.8,7.4-8.2,7.4-8.2c-0.1-0.9-0.3-1.7-0.6-2.6
		C32.9,15.2,30.5,17.2,27.9,19.8z"/>
</g>
</svg>
