<?xml version="1.0" encoding="utf-8"?>
<!-- Generator: Adobe Illustrator 20.0.0, SVG Export Plug-In . SVG Version: 6.00 Build 0)  -->
<svg version="1.1" id="Layer_1" xmlns="http://www.w3.org/2000/svg" xmlns:xlink="http://www.w3.org/1999/xlink" x="0px" y="0px"
	 viewBox="0 0 277 70" style="enable-background:new 0 0 277 70;" xml:space="preserve">
<style type="text/css">
	.st0{fill:#424D69;}
	.st1{font-family:'OpenSans-Regular';}
	.st2{font-size:27.2056px;}
	.st3{fill:#406192;}
	.st4{font-family:'OpenSans-SemiBold';}
	.st5{fill:#00B49E;}
	.st6{fill:#FABF40;}
	.st7{fill:#03A8F5;}
	.st8{fill:#D4D4D4;}
	.st9{clip-path:url(#SVGID_2_);fill:#424D69;}
</style>
<text transform="matrix(1 0 0 1 100.6738 32.2334)" class="st0 st1 st2">Practicario</text>
<text transform="matrix(1 0 0 1 235.2061 32.2334)" class="st3 st4 st2"> </text>
<text transform="matrix(1 0 0 1 100.6738 56.7183)" class="st3 st4 st2">Matemáticas</text>
<polygon class="st5" points="39,35.8 39,25.7 47.9,25.7 50.9,28.7 50.9,31.9 47.9,34.6 45,35.5 "/>
<polygon class="st6" points="27.1,46.6 27.1,25.7 24.1,28.7 21.1,31.7 18.2,34.6 18.2,37.6 21.1,40.6 "/>
<polygon class="st7" points="39,13.8 47.9,13.8 53.9,16.8 56.9,16.8 50.9,10.8 47.9,7.9 42,10 "/>
<polygon class="st8" points="39.2,57.8 39.2,46.6 51.1,46.6 57.1,42.9 60.1,39.9 63,34 63,22 68.9,28 74.1,34 72,39.9 54.1,57.8 
	48.2,63.7 39.2,60.7 "/>
<g>
	<defs>
		<rect id="SVGID_1_" width="277" height="70"/>
	</defs>
	<clipPath id="SVGID_2_">
		<use xlink:href="#SVGID_1_"  style="overflow:visible;"/>
	</clipPath>
	<path class="st9" d="M21.5,19.5c0-0.7-0.6-1.3-1.3-1.3h-9.5c-0.7,0-1.3,0.6-1.3,1.3c0,0.7,0.6,1.3,1.3,1.3h9.5
		C20.9,20.8,21.5,20.2,21.5,19.5"/>
	<path class="st9" d="M70.4,39.6L49.8,60.2c-3.7,3.7-7.3,0.4-7.7,0l-1.5-1.6v-11h3.1c4.2,0,7.2-0.1,9.2-0.6c2-0.5,3.8-1.3,5.3-2.4
		c2-1.5,3.5-3.5,4.5-5.8c1-2.3,1.5-5,1.5-8c0-2.1-0.3-4.1-0.8-6l7.1,7.1C74.2,35.6,70.8,39.2,70.4,39.6 M21.3,31.9l4.2-4.2v16.2
		l-4.2-4.2C17.5,35.9,20.9,32.3,21.3,31.9 M42,11.3c1.3-1.3,2.6-1.7,3.8-1.7c2.1,0,3.7,1.5,4,1.7l2.9,2.9c-0.2,0-0.3-0.1-0.5-0.2
		c-2.3-0.6-6.1-0.8-11.6-0.8h-0.5L42,11.3z M38.1,55.2L28,45.5V25.2l9.6-9.5h3c5.2,0,9,0.3,11,0.8c2,0.5,3.7,1.3,5,2.4
		c1.6,1.3,2.9,3,3.7,5c0.9,2,1.3,4.3,1.3,6.8c0,2.7-0.4,5.1-1.3,7.1c-0.8,2-2.1,3.6-3.7,4.9c-1.2,0.9-2.7,1.5-4.3,1.9
		c-1.7,0.4-4.6,0.5-8.5,0.5h-5.7V55.2z M72.2,30.1L51.6,9.6c-2-1.9-6.8-4.3-11.3,0.1l-3.4,3.6H14.9c-0.7,0-1.3,0.6-1.3,1.3
		c0,0.7,0.6,1.3,1.3,1.3h19.3L19.6,30.2c-0.1,0.1-1.4,1.4-2.1,3.4c-0.7,2-0.8,4.9,2.1,7.8L40.2,62c0.1,0.1,1.4,1.4,3.5,2.1
		c0.7,0.2,1.5,0.4,2.4,0.4c1.7,0,3.6-0.6,5.5-2.5l20.7-20.5c0.1-0.1,1.4-1.4,2.1-3.5C75,36,75.1,33,72.2,30.1"/>
	<path class="st9" d="M47.6,33.9c-0.7,0.5-2.3,1.1-5.9,1.1h-1v-9.2h1.2c3.5,0,5.1,0.7,5.8,1.2c0.9,0.6,1.3,1.8,1.3,3.4
		C48.9,32.1,48.5,33.3,47.6,33.9 M51.4,30.5c0-2.4-0.8-4.4-2.4-5.5c-1.5-1-3.8-1.7-7.2-1.7h-3.7v14.3h3.6c3.5,0,5.9-0.6,7.3-1.6
		C50.6,34.9,51.4,33,51.4,30.5"/>
</g>
</svg>
