<?xml version="1.0" encoding="utf-8"?>
<!-- Generator: Adobe Illustrator 20.0.0, SVG Export Plug-In . SVG Version: 6.00 Build 0)  -->
<svg version="1.1" id="Layer_1" xmlns="http://www.w3.org/2000/svg" xmlns:xlink="http://www.w3.org/1999/xlink" x="0px" y="0px"
	 viewBox="0 0 360 90" style="enable-background:new 0 0 360 90;" xml:space="preserve">
<style type="text/css">
	.st0{fill:url(#SVGID_1_);}
	.st1{fill:#111EFF;}
	.st2{clip-path:url(#SVGID_3_);fill:#1A3D82;}
</style>
<g>
	<linearGradient id="SVGID_1_" gradientUnits="userSpaceOnUse" x1="42.4189" y1="31.6638" x2="88.4189" y2="81.1638">
		<stop  offset="0" style="stop-color:#111EFF"/>
		<stop  offset="1" style="stop-color:#2681FF"/>
	</linearGradient>
	<path class="st0" d="M95.5,35.7c-4.8,0-8.9,1.7-12.4,4.2C80.5,21.8,65,7.8,46.2,7.8C25.7,7.8,9.1,24.5,9.1,45s16.7,37.2,37.2,37.2
		h34.1l0,0c0.8,0,1.6,0,2.5,0c2.7,0,5.5-0.1,8.4-0.2c1.7-0.1,3.2-0.1,4.3-0.1c12.7,0,23.1-10.4,23.1-23.1
		C118.5,46.1,108.2,35.7,95.5,35.7z M22.1,45c0-13.3,10.8-24.2,24.2-24.2S70.4,31.7,70.4,45S59.5,69.2,46.2,69.2S22.1,58.3,22.1,45z
		 M95.5,68.9c-1.3,0-2.8,0-4.7,0.1c-4.2,0.1-9.3,0.3-14.1,0c-0.7,0-1.4-0.1-2-0.2c0.2-0.2,0.4-0.5,0.6-0.7c0,0,0,0,0,0s0,0,0-0.1
		c0.9-1.1,1.7-2.2,2.4-3.4c2.6-3.5,7.1-9.1,12.5-13.9c1.8-1.2,3.5-2,5.3-2c5.6,0,10.1,4.5,10.1,10.1S101,68.9,95.5,68.9z"/>
	<path class="st1" d="M70.4,44.6c0,0.1,0,0.3,0,0.4c0,5-1.5,9.6-4.1,13.5C79.3,43,83,39.9,83,39.9c-0.3-2-0.7-3.9-1.3-5.8
		C81.7,34.1,76.3,38.7,70.4,44.6z"/>
</g>
<g>
	<g>
		<defs>
			<rect id="SVGID_2_" x="134.7" y="21.8" width="218.3" height="46.3"/>
		</defs>
		<clipPath id="SVGID_3_">
			<use xlink:href="#SVGID_2_"  style="overflow:visible;"/>
		</clipPath>
		<path class="st2" d="M352.1,54.3c-0.6-1.1-1.5-2.1-2.7-3c-1.2-0.9-3.2-1.8-5.8-2.9c-3.2-1.2-5.3-2.2-6.2-2.9
			c-1-0.7-1.4-1.6-1.4-2.6c0-2.1,1.8-3.1,5.5-3.1c2.4,0,5.3,0.7,8.8,2.2l2.2-5.2c-3.4-1.5-7-2.3-10.8-2.3c-3.9,0-6.9,0.8-9.2,2.3
			c-2.2,1.5-3.4,3.7-3.4,6.5c0,2.3,0.7,4.2,2,5.6c1.3,1.5,3.9,2.9,7.6,4.3c1.9,0.7,3.4,1.4,4.5,2c1.1,0.6,1.9,1.2,2.3,1.7
			c0.5,0.5,0.7,1.2,0.7,2.1c0,2.6-2.1,3.8-6.4,3.8c-3.3,0-6.9-0.9-10.7-2.6v6c2.6,1.3,6.1,2,10.4,2c4.3,0,7.6-0.8,9.9-2.5
			c2.3-1.7,3.5-4.1,3.5-7.3C353,56.7,352.7,55.4,352.1,54.3 M321.3,67.6V35.1h-6.9v16.2c0,4.1-0.7,7-2,8.7c-1.4,1.7-3.5,2.6-6.4,2.6
			c-2.2,0-3.8-0.6-4.8-1.9c-1-1.2-1.5-3.1-1.5-5.6v-20h-7v21.3c0,4,1,6.9,2.9,8.9c1.9,2,4.9,2.9,8.8,2.9c2.3,0,4.3-0.4,6.1-1.3
			c1.8-0.9,3.1-2,4.1-3.6h0.4l1,4.3H321.3z M277.8,51.2c0,3.7-0.6,6.5-1.9,8.4c-1.3,1.9-3.1,2.9-5.6,2.9c-2.8,0-4.9-0.9-6.1-2.7
			c-1.3-1.8-1.9-4.6-1.9-8.6v-0.5c0-3.8,0.7-6.6,1.9-8.2c1.2-1.6,3.2-2.5,6-2.5C275.3,40.1,277.8,43.8,277.8,51.2 M262.3,39.3h-0.3
			c0-0.4,0.1-1.4,0.2-3c0.1-1.6,0.1-2.8,0.1-3.6V21.8h-6.9v45.7h5.2l1.3-3.8h0.5c2.3,3,5.5,4.4,9.6,4.4c4.1,0,7.3-1.5,9.6-4.5
			c2.3-3,3.4-7.1,3.4-12.4c0-5.3-1.1-9.4-3.4-12.4c-2.3-2.9-5.4-4.4-9.5-4.4C267.8,34.5,264.5,36.1,262.3,39.3 M225.3,50.4
			c0-3.5,0.6-6,1.9-7.7c1.2-1.7,3.2-2.5,5.9-2.5c2,0,3.5,0.6,4.4,1.8c1,1.2,1.4,3.1,1.4,5.6v20h6.9V46.4c0-4-0.9-7-2.7-9
			c-1.8-2-4.6-2.9-8.5-2.9c-2.3,0-4.3,0.5-6,1.4c-1.7,0.9-3.1,2.2-4.1,3.8h-0.5c-1.6-3.4-4.9-5.1-9.9-5.1c-2.1,0-3.9,0.4-5.7,1.3
			c-1.7,0.8-3,2-3.9,3.6h-0.4l-1-4.3h-5.4v32.5h6.9V51.4c0-4,0.6-6.9,1.9-8.7c1.2-1.7,3.2-2.6,5.9-2.6c2,0,3.5,0.6,4.4,1.8
			c0.9,1.2,1.4,3.1,1.4,5.6v20h6.9V50.4z M181.7,29.2c0.7,0.7,1.6,1,2.9,1c1.2,0,2.2-0.3,2.8-1c0.7-0.7,1-1.6,1-2.8
			c0-1.2-0.3-2.2-1-2.9c-0.7-0.7-1.6-1-2.8-1c-1.3,0-2.2,0.3-2.9,1c-0.7,0.7-1,1.6-1,2.9C180.7,27.6,181,28.6,181.7,29.2 M188,35.1
			h-6.9v32.5h6.9V35.1z M170.5,24.6H164v22.5c0,1.6,0.1,3.8,0.2,6.6c0.1,2.8,0.2,4.5,0.2,4.9h-0.2l-21.1-34.1h-8.5v43h6.4V45.2
			c0-3-0.1-6.3-0.4-10l-0.1-1.9h0.2l21.1,34.2h8.6V24.6z"/>
	</g>
</g>
</svg>
