<?xml version="1.0" encoding="utf-8"?>
<!-- Generator: Adobe Illustrator 20.0.0, SVG Export Plug-In . SVG Version: 6.00 Build 0)  -->
<svg version="1.1" id="Layer_1" xmlns="http://www.w3.org/2000/svg" xmlns:xlink="http://www.w3.org/1999/xlink" x="0px" y="0px"
	 viewBox="0 0 120 40" style="enable-background:new 0 0 120 40;" xml:space="preserve">
<style type="text/css">
	.st0{clip-path:url(#SVGID_2_);fill:#406192;}
	.st1{clip-path:url(#SVGID_2_);fill:#424D69;}
	.st2{fill:#00B49E;}
	.st3{fill:#FABF40;}
	.st4{fill:#03A8F5;}
	.st5{fill:#D4D4D4;}
	.st6{clip-path:url(#SVGID_4_);fill:#424D69;}
</style>
<g>
	<defs>
		<rect id="SVGID_1_" x="8" y="11.2" width="103.1" height="19.8"/>
	</defs>
	<clipPath id="SVGID_2_">
		<use xlink:href="#SVGID_1_"  style="overflow:visible;"/>
	</clipPath>
	<path class="st0" d="M111,28.1c-0.1-0.2-0.3-0.4-0.5-0.6c-0.2-0.2-0.6-0.4-1.2-0.6c-0.6-0.2-1-0.4-1.2-0.6
		c-0.2-0.1-0.3-0.3-0.3-0.5c0-0.4,0.4-0.6,1.1-0.6c0.5,0,1.1,0.1,1.8,0.4l0.4-1c-0.7-0.3-1.4-0.5-2.2-0.5c-0.8,0-1.4,0.2-1.8,0.5
		c-0.4,0.3-0.7,0.7-0.7,1.3c0,0.5,0.1,0.8,0.4,1.1s0.8,0.6,1.5,0.9c0.4,0.1,0.7,0.3,0.9,0.4c0.2,0.1,0.4,0.2,0.5,0.3
		c0.1,0.1,0.1,0.2,0.1,0.4c0,0.5-0.4,0.8-1.3,0.8c-0.7,0-1.4-0.2-2.1-0.5v1.2c0.5,0.3,1.2,0.4,2.1,0.4c0.9,0,1.5-0.2,2-0.5
		c0.5-0.3,0.7-0.8,0.7-1.5C111.1,28.6,111.1,28.3,111,28.1 M101,29.6c-0.2-0.2-0.3-0.4-0.3-0.7c0-0.4,0.1-0.7,0.4-0.9
		c0.3-0.2,0.8-0.3,1.4-0.3l0.8,0v0.6c0,0.5-0.2,0.9-0.5,1.2c-0.3,0.3-0.7,0.4-1.2,0.4C101.5,29.8,101.2,29.7,101,29.6 M104.9,30.8
		v-4.4c0-0.8-0.2-1.3-0.6-1.7c-0.4-0.4-1-0.5-1.9-0.5c-0.4,0-0.8,0-1.2,0.1s-0.8,0.2-1.2,0.4l0.4,1c0.3-0.1,0.6-0.2,0.9-0.3
		c0.3-0.1,0.6-0.1,1-0.1c0.4,0,0.7,0.1,0.9,0.3c0.2,0.2,0.3,0.5,0.3,0.9v0.3l-1.1,0c-1,0-1.8,0.2-2.3,0.6c-0.5,0.3-0.7,0.8-0.7,1.5
		c0,0.6,0.2,1.1,0.5,1.5c0.4,0.3,0.9,0.5,1.5,0.5c0.5,0,0.9-0.1,1.2-0.2c0.3-0.1,0.6-0.4,0.9-0.8h0l0.3,0.9H104.9z M97.5,30.8
		c0.3-0.1,0.5-0.2,0.8-0.3v-1.2c-0.5,0.3-1.1,0.5-1.7,0.5c-0.5,0-0.9-0.2-1.2-0.5c-0.3-0.4-0.4-0.9-0.4-1.6c0-1.5,0.6-2.2,1.7-2.2
		c0.4,0,0.9,0.1,1.4,0.3l0.4-1.1c-0.5-0.3-1.2-0.4-1.8-0.4c-1,0-1.8,0.3-2.3,0.9s-0.8,1.4-0.8,2.5c0,1.1,0.3,1.9,0.8,2.5
		c0.5,0.6,1.3,0.9,2.2,0.9C96.9,30.9,97.2,30.8,97.5,30.8 M90.7,23.1c0.1,0.1,0.3,0.2,0.6,0.2c0.2,0,0.4-0.1,0.6-0.2
		c0.1-0.1,0.2-0.3,0.2-0.6c0-0.2-0.1-0.4-0.2-0.6c-0.1-0.1-0.3-0.2-0.6-0.2c-0.2,0-0.4,0.1-0.6,0.2c-0.1,0.1-0.2,0.3-0.2,0.6
		C90.4,22.8,90.5,23,90.7,23.1 M91.9,24.3h-1.4v6.5h1.4V24.3z M87.6,29.5c-0.2-0.2-0.2-0.4-0.2-0.7v-3.5h1.8v-1h-1.8v-1.4h-0.8
		L86,24.2l-0.9,0.5v0.6h0.9v3.5c0,1.4,0.7,2.1,2,2.1c0.3,0,0.5,0,0.7-0.1c0.2,0,0.4-0.1,0.6-0.2v-1c-0.3,0.1-0.7,0.2-1,0.2
		C88,29.8,87.7,29.7,87.6,29.5 M81.3,23.5c0.3-0.2,0.6-0.5,1-0.9c0.4-0.4,0.7-0.7,0.9-0.9v-0.1h-1.6c-0.1,0.2-0.3,0.5-0.6,0.9
		c-0.2,0.3-0.5,0.6-0.7,0.9v0.1H81.3z M80.1,29.6c-0.2-0.2-0.3-0.4-0.3-0.7c0-0.4,0.1-0.7,0.4-0.9c0.3-0.2,0.8-0.3,1.4-0.3l0.8,0
		v0.6c0,0.5-0.2,0.9-0.5,1.2c-0.3,0.3-0.7,0.4-1.2,0.4C80.5,29.8,80.3,29.7,80.1,29.6 M83.9,30.8v-4.4c0-0.8-0.2-1.3-0.6-1.7
		c-0.4-0.4-1-0.5-1.9-0.5c-0.4,0-0.8,0-1.2,0.1c-0.4,0.1-0.8,0.2-1.2,0.4l0.4,1c0.3-0.1,0.6-0.2,0.9-0.3c0.3-0.1,0.6-0.1,1-0.1
		c0.4,0,0.7,0.1,0.9,0.3c0.2,0.2,0.3,0.5,0.3,0.9v0.3l-1.1,0c-1,0-1.8,0.2-2.3,0.6c-0.5,0.3-0.7,0.8-0.7,1.5c0,0.6,0.2,1.1,0.5,1.5
		c0.4,0.3,0.9,0.5,1.5,0.5c0.5,0,0.9-0.1,1.2-0.2c0.3-0.1,0.6-0.4,0.9-0.8h0l0.3,0.9H83.9z M72.8,27.3c0-0.7,0.1-1.2,0.4-1.5
		c0.2-0.3,0.6-0.5,1.2-0.5c0.4,0,0.7,0.1,0.9,0.4c0.2,0.2,0.3,0.6,0.3,1.1v4h1.4v-4.2c0-0.8-0.2-1.4-0.5-1.8
		c-0.4-0.4-0.9-0.6-1.7-0.6c-0.4,0-0.8,0.1-1.2,0.3c-0.3,0.2-0.6,0.4-0.8,0.8h-0.1c-0.3-0.7-1-1-2-1c-0.4,0-0.8,0.1-1.1,0.3
		c-0.3,0.2-0.6,0.4-0.8,0.7h-0.1l-0.2-0.8h-1.1v6.5h1.4v-3.2c0-0.8,0.1-1.4,0.4-1.7s0.6-0.5,1.2-0.5c0.4,0,0.7,0.1,0.9,0.4
		c0.2,0.2,0.3,0.6,0.3,1.1v4h1.4V27.3z M64.1,25.6c0.2,0.3,0.4,0.7,0.4,1.2h-2.9c0-0.5,0.2-0.9,0.5-1.2c0.3-0.3,0.6-0.4,1.1-0.4
		C63.5,25.2,63.8,25.3,64.1,25.6 M64.5,30.8c0.3-0.1,0.7-0.2,1-0.3v-1.1c-0.4,0.2-0.7,0.3-1.1,0.4c-0.3,0.1-0.7,0.1-1.1,0.1
		c-0.6,0-1-0.2-1.4-0.5c-0.3-0.3-0.5-0.8-0.5-1.5h4.3v-0.7c0-0.9-0.2-1.6-0.7-2.1c-0.5-0.5-1.2-0.8-2-0.8c-0.9,0-1.6,0.3-2.2,0.9
		c-0.5,0.6-0.8,1.4-0.8,2.5c0,1,0.3,1.8,0.9,2.4c0.6,0.6,1.4,0.9,2.4,0.9C63.7,30.9,64.1,30.8,64.5,30.8 M57.5,29.5
		c-0.2-0.2-0.2-0.4-0.2-0.7v-3.5h1.8v-1h-1.8v-1.4h-0.8l-0.5,1.4l-1,0.5v0.6h0.9v3.5c0,1.4,0.7,2.1,2,2.1c0.3,0,0.5,0,0.7-0.1
		c0.2,0,0.4-0.1,0.6-0.2v-1c-0.3,0.1-0.7,0.2-1,0.2C57.9,29.8,57.7,29.7,57.5,29.5 M50,29.6c-0.2-0.2-0.3-0.4-0.3-0.7
		c0-0.4,0.1-0.7,0.4-0.9c0.3-0.2,0.8-0.3,1.4-0.3l0.8,0v0.6c0,0.5-0.2,0.9-0.5,1.2c-0.3,0.3-0.7,0.4-1.2,0.4
		C50.4,29.8,50.2,29.7,50,29.6 M53.8,30.8v-4.4c0-0.8-0.2-1.3-0.6-1.7c-0.4-0.4-1-0.5-1.9-0.5c-0.4,0-0.8,0-1.2,0.1
		c-0.4,0.1-0.8,0.2-1.2,0.4l0.4,1c0.3-0.1,0.6-0.2,0.9-0.3c0.3-0.1,0.6-0.1,1-0.1c0.4,0,0.7,0.1,0.9,0.3s0.3,0.5,0.3,0.9v0.3l-1.1,0
		c-1,0-1.8,0.2-2.3,0.6c-0.5,0.3-0.7,0.8-0.7,1.5c0,0.6,0.2,1.1,0.5,1.5c0.4,0.3,0.9,0.5,1.5,0.5c0.5,0,0.9-0.1,1.2-0.2
		c0.3-0.1,0.6-0.4,0.9-0.8h0l0.3,0.9H53.8z M42.8,30.8l2.6-7.1h0c0,0.1,0,0.6-0.1,1.2c0,0.7,0,1.2,0,1.7v4.2h1.3v-8.6h-2L42.2,29h0
		l-2.4-6.8h-2v8.6h1.3v-4.2c0-0.9,0-1.9-0.1-3h0l2.5,7.2H42.8z"/>
	<path class="st1" d="M91,14.9c0.3-0.4,0.8-0.6,1.4-0.6c0.6,0,1.1,0.2,1.5,0.6c0.3,0.4,0.5,1,0.5,1.9c0,0.8-0.2,1.5-0.5,1.9
		c-0.3,0.4-0.8,0.6-1.4,0.6s-1.1-0.2-1.4-0.6c-0.3-0.4-0.5-1.1-0.5-1.9C90.5,15.9,90.7,15.3,91,14.9 M94.6,14.3
		c-0.5-0.6-1.2-0.9-2.1-0.9c-0.9,0-1.7,0.3-2.2,0.9c-0.5,0.6-0.8,1.4-0.8,2.4c0,0.7,0.1,1.3,0.4,1.8c0.2,0.5,0.6,0.9,1,1.2
		c0.4,0.3,1,0.4,1.5,0.4c0.9,0,1.7-0.3,2.2-0.9c0.5-0.6,0.8-1.4,0.8-2.5C95.4,15.7,95.1,14.9,94.6,14.3 M86.9,12.3
		c0.1,0.1,0.2,0.2,0.4,0.2c0.2,0,0.3-0.1,0.4-0.2c0.1-0.1,0.2-0.3,0.2-0.5c0-0.2-0.1-0.4-0.2-0.5c-0.1-0.1-0.2-0.2-0.4-0.2
		c-0.2,0-0.3,0.1-0.4,0.2c-0.1,0.1-0.2,0.3-0.2,0.5C86.7,12,86.8,12.2,86.9,12.3 M87.8,13.5h-1V20h1V13.5z M83.8,13.8
		c-0.3,0.2-0.6,0.5-0.9,1h0l-0.1-1.2h-0.8V20h1v-3.4c0-0.6,0.2-1.2,0.6-1.6c0.4-0.4,0.8-0.6,1.3-0.6c0.2,0,0.4,0,0.7,0.1l0.1-0.9
		c-0.2,0-0.5-0.1-0.8-0.1C84.5,13.4,84.1,13.5,83.8,13.8 M76.1,19c-0.2-0.2-0.3-0.5-0.3-0.8c0-0.4,0.2-0.8,0.5-1
		c0.3-0.2,0.9-0.3,1.7-0.4l1,0v0.6c0,0.6-0.2,1.1-0.5,1.4c-0.3,0.3-0.8,0.5-1.4,0.5C76.6,19.3,76.3,19.2,76.1,19 M79.9,20v-4.4
		c0-0.8-0.2-1.3-0.6-1.6c-0.4-0.3-0.9-0.5-1.7-0.5c-0.4,0-0.8,0-1.1,0.1c-0.4,0.1-0.7,0.2-1,0.4l0.3,0.7c0.7-0.3,1.3-0.5,1.8-0.5
		c0.5,0,0.8,0.1,1,0.4c0.2,0.2,0.3,0.6,0.3,1.1v0.4l-1.1,0c-2.1,0.1-3.1,0.7-3.1,2c0,0.6,0.2,1.1,0.5,1.4c0.4,0.3,0.9,0.5,1.5,0.5
		c0.5,0,0.9-0.1,1.2-0.2c0.3-0.1,0.6-0.4,1-0.8h0l0.2,0.9H79.9z M73.7,19.7v-0.9c-0.6,0.2-1.1,0.3-1.6,0.3c-0.6,0-1.1-0.2-1.4-0.6
		s-0.5-1-0.5-1.8c0-1.7,0.7-2.5,2-2.5c0.2,0,0.4,0,0.7,0.1c0.3,0.1,0.5,0.1,0.7,0.2l0.3-0.8c-0.2-0.1-0.4-0.2-0.7-0.2
		c-0.3-0.1-0.6-0.1-0.9-0.1c-1,0-1.7,0.3-2.2,0.9c-0.5,0.6-0.8,1.4-0.8,2.5c0,1,0.3,1.9,0.8,2.4c0.5,0.6,1.2,0.9,2.2,0.9
		C72.8,20.1,73.3,20,73.7,19.7 M66.6,12.3c0.1,0.1,0.2,0.2,0.4,0.2c0.2,0,0.3-0.1,0.4-0.2c0.1-0.1,0.2-0.3,0.2-0.5
		c0-0.2-0.1-0.4-0.2-0.5c-0.1-0.1-0.2-0.2-0.4-0.2c-0.2,0-0.3,0.1-0.4,0.2c-0.1,0.1-0.2,0.3-0.2,0.5C66.4,12,66.5,12.2,66.6,12.3
		 M67.5,13.5h-1V20h1V13.5z M63.6,19c-0.2-0.2-0.3-0.5-0.3-0.9v-3.8h1.9v-0.8h-1.9v-1.5h-0.6l-0.4,1.4l-0.9,0.4v0.5h0.9v3.8
		c0,1.3,0.6,2,1.9,2c0.2,0,0.3,0,0.6,0c0.2,0,0.4-0.1,0.5-0.1v-0.7c-0.1,0-0.2,0.1-0.4,0.1c-0.2,0-0.3,0-0.5,0
		C64,19.3,63.8,19.2,63.6,19 M60.7,19.7v-0.9c-0.6,0.2-1.1,0.3-1.6,0.3c-0.6,0-1.1-0.2-1.4-0.6c-0.3-0.4-0.5-1-0.5-1.8
		c0-1.7,0.7-2.5,2-2.5c0.2,0,0.4,0,0.7,0.1c0.3,0.1,0.5,0.1,0.7,0.2l0.3-0.8c-0.2-0.1-0.4-0.2-0.7-0.2c-0.3-0.1-0.6-0.1-0.9-0.1
		c-1,0-1.7,0.3-2.2,0.9c-0.5,0.6-0.8,1.4-0.8,2.5c0,1,0.3,1.9,0.8,2.4c0.5,0.6,1.2,0.9,2.2,0.9C59.8,20.1,60.3,20,60.7,19.7
		 M50.7,19c-0.2-0.2-0.3-0.5-0.3-0.8c0-0.4,0.2-0.8,0.5-1c0.3-0.2,0.9-0.3,1.7-0.4l1,0v0.6c0,0.6-0.2,1.1-0.5,1.4
		c-0.3,0.3-0.8,0.5-1.4,0.5C51.3,19.3,51,19.2,50.7,19 M54.6,20v-4.4c0-0.8-0.2-1.3-0.6-1.6c-0.4-0.3-0.9-0.5-1.7-0.5
		c-0.4,0-0.8,0-1.1,0.1c-0.4,0.1-0.7,0.2-1,0.4l0.3,0.7c0.7-0.3,1.3-0.5,1.8-0.5c0.5,0,0.8,0.1,1,0.4c0.2,0.2,0.3,0.6,0.3,1.1v0.4
		l-1.1,0c-2.1,0.1-3.1,0.7-3.1,2c0,0.6,0.2,1.1,0.5,1.4c0.4,0.3,0.9,0.5,1.5,0.5c0.5,0,0.9-0.1,1.2-0.2c0.3-0.1,0.6-0.4,1-0.8h0
		l0.2,0.9H54.6z M46.8,13.8c-0.3,0.2-0.6,0.5-0.9,1h0l-0.1-1.2H45V20h1v-3.4c0-0.6,0.2-1.2,0.6-1.6c0.4-0.4,0.8-0.6,1.3-0.6
		c0.2,0,0.4,0,0.7,0.1l0.1-0.9c-0.2,0-0.5-0.1-0.8-0.1C47.5,13.4,47.1,13.5,46.8,13.8 M38.9,12.3H40c0.8,0,1.4,0.1,1.7,0.4
		c0.4,0.3,0.6,0.7,0.6,1.3c0,0.6-0.2,1.1-0.6,1.4c-0.4,0.3-1,0.4-1.9,0.4h-0.9V12.3z M40.1,11.4h-2.2V20h1v-3.4h1
		c1.1,0,1.9-0.2,2.5-0.7s0.9-1.1,0.9-2C43.3,12.2,42.3,11.4,40.1,11.4"/>
</g>
<polygon class="st2" points="17.9,21.4 17.9,18 20.9,18 21.9,19 21.9,20.1 20.9,21 19.9,21.3 "/>
<polygon class="st3" points="13.9,25 13.9,18 12.9,19 11.9,20 10.9,21 10.9,22 11.9,23 "/>
<polygon class="st4" points="17.9,14 20.9,14 22.9,15 23.9,15 21.9,13 20.9,12 18.9,12.7 "/>
<polygon class="st5" points="26,20.8 25,22.8 24,23.8 22,25 18,25 18,28.8 18,29.8 21,30.8 23,28.8 29,22.8 29.7,20.8 28,18.8 
	26,16.8 "/>
<g>
	<defs>
		<rect id="SVGID_3_" x="8" y="11.2" width="103.1" height="19.8"/>
	</defs>
	<clipPath id="SVGID_4_">
		<use xlink:href="#SVGID_3_"  style="overflow:visible;"/>
	</clipPath>
	<path class="st6" d="M12,15.9c0-0.2-0.2-0.4-0.4-0.4H8.4c-0.2,0-0.4,0.2-0.4,0.4c0,0.2,0.2,0.4,0.4,0.4h3.2
		C11.9,16.3,12,16.2,12,15.9"/>
	<path class="st6" d="M28.5,22.7l-6.9,6.9c-1.3,1.2-2.4,0.1-2.6,0L18.5,29v-3.7h1.1c1.4,0,2.4,0,3.1-0.2c0.7-0.2,1.3-0.4,1.8-0.8
		c0.7-0.5,1.2-1.2,1.5-2c0.3-0.8,0.5-1.7,0.5-2.7c0-0.7-0.1-1.4-0.3-2l2.4,2.4C29.7,21.3,28.6,22.5,28.5,22.7 M12,20.1l1.4-1.4v5.4
		L12,22.7C10.7,21.4,11.8,20.2,12,20.1 M18.9,13.2c0.4-0.4,0.9-0.6,1.3-0.6c0.7,0,1.3,0.5,1.3,0.6l1,1c-0.1,0-0.1,0-0.2-0.1
		c-0.8-0.2-2-0.3-3.9-0.3h-0.2L18.9,13.2z M17.6,27.9l-3.4-3.3v-6.8l3.2-3.2h1c1.8,0,3,0.1,3.7,0.3c0.7,0.2,1.2,0.4,1.7,0.8
		c0.5,0.4,1,1,1.2,1.7c0.3,0.7,0.4,1.5,0.4,2.3c0,0.9-0.1,1.7-0.4,2.4c-0.3,0.7-0.7,1.2-1.2,1.6c-0.4,0.3-0.9,0.5-1.5,0.6
		c-0.6,0.1-1.5,0.2-2.9,0.2h-1.9V27.9z M29.1,19.5l-6.9-6.9c-0.7-0.7-2.3-1.5-3.8,0l-1.2,1.2H9.8c-0.2,0-0.4,0.2-0.4,0.4
		c0,0.2,0.2,0.4,0.4,0.4h6.5l-4.9,4.9c0,0-0.5,0.5-0.7,1.1c-0.2,0.7-0.3,1.6,0.7,2.6l6.9,6.9c0,0,0.5,0.5,1.2,0.7
		c0.2,0.1,0.5,0.1,0.8,0.1c0.6,0,1.2-0.2,1.8-0.8l6.9-6.9c0,0,0.5-0.5,0.7-1.2C30,21.4,30.1,20.5,29.1,19.5"/>
	<path class="st6" d="M20.8,20.8c-0.2,0.2-0.8,0.4-2,0.4h-0.3V18h0.4c1.2,0,1.7,0.2,1.9,0.4c0.3,0.2,0.4,0.6,0.4,1.1
		C21.3,20.1,21.1,20.5,20.8,20.8 M22.1,19.6c0-0.8-0.3-1.5-0.8-1.8c-0.5-0.3-1.3-0.6-2.4-0.6h-1.2V22h1.2c1.2,0,2-0.2,2.5-0.5
		C21.8,21.1,22.1,20.4,22.1,19.6"/>
</g>
</svg>
