<?xml version="1.0" encoding="utf-8"?>
<!-- Generator: Adobe Illustrator 20.0.0, SVG Export Plug-In . SVG Version: 6.00 Build 0)  -->
<svg version="1.1" id="Layer_1" xmlns="http://www.w3.org/2000/svg" xmlns:xlink="http://www.w3.org/1999/xlink" x="0px" y="0px"
	 viewBox="0 0 30 30" style="enable-background:new 0 0 30 30;" xml:space="preserve">
<style type="text/css">
	.st0{fill:#87879B;}
</style>
<g>
	<path class="st0" d="M19.7,12.6h-8.3V9.5c0.2-2,1.9-3.4,3.9-3.3c1.7,0.1,3.1,1.5,3.3,3.3c0,0.6,0.5,1,1,1c0.6,0,1-0.5,1-1
		c-0.2-3.1-2.9-5.5-6-5.3c-2.8,0.2-5.1,2.4-5.3,5.3v3.3c-1.1,0.4-1.9,1.5-1.9,2.7V23c0,1.6,1.3,2.8,2.8,2.8h9.4
		c1.6,0,2.8-1.3,2.8-2.8v-7.5C22.6,13.9,21.3,12.6,19.7,12.6z M20.5,23c0,0.4-0.3,0.8-0.8,0.8h-9.4c-0.4,0-0.8-0.3-0.8-0.8v-7.5
		c0-0.4,0.3-0.8,0.8-0.8h9.4c0.4,0,0.8,0.3,0.8,0.8V23z"/>
</g>
</svg>
