<?xml version="1.0" encoding="utf-8"?>
<!-- Generator: Adobe Illustrator 20.0.0, SVG Export Plug-In . SVG Version: 6.00 Build 0)  -->
<svg version="1.1" id="Layer_1" xmlns="http://www.w3.org/2000/svg" xmlns:xlink="http://www.w3.org/1999/xlink" x="0px" y="0px"
	 viewBox="0 0 130 40" style="enable-background:new 0 0 130 40;" xml:space="preserve">
<style type="text/css">
	.st0{fill:#406192;}
	.st1{font-family:'OpenSans-SemiBold';}
	.st2{font-size:12px;}
	.st3{clip-path:url(#SVGID_2_);fill:#406192;}
	.st4{clip-path:url(#SVGID_2_);fill:#424D69;}
	.st5{fill:#00B49E;}
	.st6{fill:#FABF40;}
	.st7{fill:#03A8F5;}
	.st8{fill:#D4D4D4;}
	.st9{clip-path:url(#SVGID_4_);fill:#424D69;}
</style>
<text transform="matrix(1 0 0 1 88.0811 17.7559)" class="st0 st1 st2"> </text>
<g>
	<defs>
		<rect id="SVGID_1_" x="3.6" y="7.4" width="121.9" height="23.4"/>
	</defs>
	<clipPath id="SVGID_2_">
		<use xlink:href="#SVGID_1_"  style="overflow:visible;"/>
	</clipPath>
	<path class="st3" d="M125.3,27.4c-0.1-0.3-0.4-0.5-0.6-0.7c-0.3-0.2-0.7-0.4-1.4-0.7c-0.8-0.3-1.2-0.5-1.5-0.7
		c-0.2-0.2-0.3-0.4-0.3-0.6c0-0.5,0.4-0.7,1.3-0.7c0.6,0,1.3,0.2,2.1,0.5l0.5-1.2c-0.8-0.4-1.7-0.5-2.6-0.5c-0.9,0-1.6,0.2-2.2,0.5
		c-0.5,0.4-0.8,0.9-0.8,1.5c0,0.5,0.2,1,0.5,1.3s0.9,0.7,1.8,1c0.5,0.2,0.8,0.3,1.1,0.5s0.4,0.3,0.5,0.4c0.1,0.1,0.2,0.3,0.2,0.5
		c0,0.6-0.5,0.9-1.5,0.9c-0.8,0-1.6-0.2-2.5-0.6v1.4c0.6,0.3,1.4,0.5,2.5,0.5c1,0,1.8-0.2,2.3-0.6c0.5-0.4,0.8-1,0.8-1.7
		C125.5,28,125.4,27.7,125.3,27.4 M113.6,29.1c-0.2-0.2-0.3-0.5-0.3-0.8c0-0.5,0.2-0.8,0.5-1c0.3-0.2,0.9-0.4,1.7-0.4l1,0v0.7
		c0,0.6-0.2,1.1-0.5,1.4c-0.4,0.3-0.8,0.5-1.4,0.5C114.1,29.4,113.8,29.3,113.6,29.1 M118.1,30.5v-5.2c0-0.9-0.2-1.6-0.7-2
		c-0.5-0.4-1.2-0.6-2.2-0.6c-0.4,0-0.9,0.1-1.4,0.2c-0.5,0.1-0.9,0.3-1.4,0.5l0.5,1.2c0.3-0.2,0.7-0.3,1-0.4
		c0.4-0.1,0.7-0.2,1.1-0.2c0.5,0,0.8,0.1,1.1,0.4c0.2,0.2,0.3,0.6,0.3,1.1v0.4l-1.3,0c-1.2,0-2.1,0.3-2.7,0.7
		c-0.6,0.4-0.9,1-0.9,1.8c0,0.7,0.2,1.3,0.6,1.7c0.4,0.4,1,0.6,1.8,0.6c0.6,0,1.1-0.1,1.4-0.3c0.4-0.2,0.7-0.5,1.1-1h0.1l0.3,1.1
		H118.1z M109.4,30.5c0.3-0.1,0.6-0.2,0.9-0.4v-1.4c-0.6,0.4-1.3,0.5-2.1,0.5c-0.6,0-1.1-0.2-1.5-0.6c-0.3-0.4-0.5-1.1-0.5-1.9
		c0-1.8,0.7-2.6,2-2.6c0.4,0,1,0.1,1.7,0.4l0.5-1.3c-0.6-0.3-1.4-0.5-2.2-0.5c-1.2,0-2.1,0.3-2.7,1c-0.6,0.7-0.9,1.7-0.9,3
		c0,1.3,0.3,2.2,0.9,2.9c0.6,0.7,1.5,1,2.6,1C108.7,30.7,109.1,30.6,109.4,30.5 M101.3,21.5c0.2,0.2,0.4,0.2,0.7,0.2
		c0.3,0,0.5-0.1,0.7-0.2c0.2-0.2,0.2-0.4,0.2-0.7c0-0.3-0.1-0.5-0.2-0.7c-0.2-0.2-0.4-0.2-0.7-0.2c-0.3,0-0.5,0.1-0.7,0.2
		c-0.2,0.2-0.2,0.4-0.2,0.7C101.1,21.1,101.1,21.3,101.3,21.5 M102.8,22.9h-1.6v7.7h1.6V22.9z M97.7,29.1c-0.2-0.2-0.3-0.5-0.3-0.9
		v-4.1h2.2v-1.2h-2.2v-1.7h-1l-0.6,1.6l-1.1,0.6v0.7h1v4.1c0,1.6,0.8,2.4,2.3,2.4c0.3,0,0.6,0,0.9-0.1c0.3-0.1,0.5-0.1,0.7-0.2v-1.2
		c-0.4,0.1-0.8,0.2-1.2,0.2C98.1,29.3,97.9,29.3,97.7,29.1 M90.3,21.9c0.3-0.2,0.7-0.6,1.2-1c0.5-0.4,0.8-0.8,1.1-1.1v-0.1h-1.9
		c-0.2,0.3-0.4,0.6-0.7,1c-0.3,0.4-0.6,0.8-0.8,1.1v0.2H90.3z M88.8,29.1c-0.2-0.2-0.3-0.5-0.3-0.8c0-0.5,0.2-0.8,0.5-1
		c0.3-0.2,0.9-0.4,1.7-0.4l1,0v0.7c0,0.6-0.2,1.1-0.5,1.4c-0.4,0.3-0.8,0.5-1.4,0.5C89.3,29.4,89,29.3,88.8,29.1 M93.3,30.5v-5.2
		c0-0.9-0.2-1.6-0.7-2c-0.5-0.4-1.2-0.6-2.2-0.6c-0.4,0-0.9,0.1-1.4,0.2c-0.5,0.1-0.9,0.3-1.4,0.5l0.5,1.2c0.3-0.2,0.7-0.3,1-0.4
		c0.4-0.1,0.7-0.2,1.1-0.2c0.5,0,0.8,0.1,1.1,0.4c0.2,0.2,0.3,0.6,0.3,1.1v0.4l-1.3,0c-1.2,0-2.1,0.3-2.7,0.7
		c-0.6,0.4-0.9,1-0.9,1.8c0,0.7,0.2,1.3,0.6,1.7c0.4,0.4,1,0.6,1.8,0.6c0.6,0,1.1-0.1,1.4-0.3c0.4-0.2,0.7-0.5,1.1-1h0.1l0.3,1.1
		H93.3z M80.3,26.5c0-0.8,0.1-1.4,0.4-1.8c0.3-0.4,0.8-0.6,1.4-0.6c0.5,0,0.8,0.1,1,0.4c0.2,0.3,0.3,0.7,0.3,1.3v4.7h1.6v-5
		c0-0.9-0.2-1.6-0.6-2.1c-0.4-0.5-1.1-0.7-2-0.7c-0.5,0-1,0.1-1.4,0.3c-0.4,0.2-0.7,0.5-1,0.9H80c-0.4-0.8-1.2-1.2-2.3-1.2
		c-0.5,0-0.9,0.1-1.3,0.3c-0.4,0.2-0.7,0.5-0.9,0.8h-0.1l-0.2-1h-1.3v7.7h1.6v-3.8c0-1,0.1-1.6,0.4-2c0.3-0.4,0.8-0.6,1.4-0.6
		c0.5,0,0.8,0.1,1,0.4c0.2,0.3,0.3,0.7,0.3,1.3v4.7h1.6V26.5z M69.9,24.4c0.3,0.3,0.4,0.8,0.5,1.4h-3.5c0.1-0.6,0.2-1.1,0.6-1.4
		c0.3-0.3,0.7-0.5,1.2-0.5C69.2,24,69.6,24.1,69.9,24.4 M70.4,30.5c0.4-0.1,0.8-0.2,1.2-0.4v-1.3c-0.4,0.2-0.9,0.3-1.3,0.4
		c-0.4,0.1-0.8,0.1-1.3,0.1c-0.7,0-1.2-0.2-1.6-0.6c-0.4-0.4-0.6-1-0.6-1.7H72v-0.9c0-1.1-0.3-1.9-0.9-2.5c-0.6-0.6-1.4-0.9-2.4-0.9
		c-1.1,0-1.9,0.4-2.6,1.1c-0.6,0.7-0.9,1.7-0.9,2.9c0,1.2,0.3,2.2,1,2.9c0.7,0.7,1.6,1,2.8,1C69.5,30.7,70,30.6,70.4,30.5
		 M62.1,29.1c-0.2-0.2-0.3-0.5-0.3-0.9v-4.1H64v-1.2h-2.2v-1.7h-1l-0.6,1.6l-1.1,0.6v0.7h1v4.1c0,1.6,0.8,2.4,2.3,2.4
		c0.3,0,0.6,0,0.9-0.1c0.3-0.1,0.5-0.1,0.7-0.2v-1.2c-0.4,0.1-0.8,0.2-1.2,0.2C62.6,29.3,62.3,29.3,62.1,29.1 M53.3,29.1
		c-0.2-0.2-0.3-0.5-0.3-0.8c0-0.5,0.2-0.8,0.5-1c0.3-0.2,0.9-0.4,1.7-0.4l1,0v0.7c0,0.6-0.2,1.1-0.5,1.4c-0.4,0.3-0.8,0.5-1.4,0.5
		C53.8,29.4,53.5,29.3,53.3,29.1 M57.8,30.5v-5.2c0-0.9-0.2-1.6-0.7-2c-0.5-0.4-1.2-0.6-2.2-0.6c-0.4,0-0.9,0.1-1.4,0.2
		c-0.5,0.1-0.9,0.3-1.4,0.5l0.5,1.2c0.3-0.2,0.7-0.3,1-0.4C54,24,54.4,24,54.8,24c0.5,0,0.8,0.1,1.1,0.4c0.2,0.2,0.3,0.6,0.3,1.1
		v0.4l-1.3,0c-1.2,0-2.1,0.3-2.7,0.7c-0.6,0.4-0.9,1-0.9,1.8c0,0.7,0.2,1.3,0.6,1.7c0.4,0.4,1,0.6,1.8,0.6c0.6,0,1.1-0.1,1.4-0.3
		c0.4-0.2,0.7-0.5,1.1-1h0.1l0.3,1.1H57.8z M44.8,30.5l3-8.4h0.1c0,0.2,0,0.7-0.1,1.5c0,0.8,0,1.5,0,2v5h1.6V20.4H47l-2.9,8.1h0
		l-2.8-8.1h-2.3v10.1h1.5v-4.9c0-1.1,0-2.3-0.1-3.5h0.1l2.9,8.5H44.8z"/>
	<path class="st4" d="M101.7,11.7c0.4-0.5,1-0.7,1.7-0.7c0.8,0,1.3,0.2,1.7,0.8c0.4,0.5,0.6,1.2,0.6,2.2c0,1-0.2,1.7-0.6,2.2
		c-0.4,0.5-1,0.8-1.7,0.8s-1.3-0.3-1.7-0.8c-0.4-0.5-0.6-1.2-0.6-2.2C101.1,13,101.3,12.2,101.7,11.7 M106,11.1
		c-0.6-0.7-1.5-1.1-2.5-1.1c-1.1,0-2,0.3-2.6,1c-0.6,0.7-0.9,1.7-0.9,2.9c0,0.8,0.1,1.5,0.4,2.1c0.3,0.6,0.7,1.1,1.2,1.4
		c0.5,0.3,1.1,0.5,1.8,0.5c1.1,0,2-0.3,2.6-1c0.6-0.7,0.9-1.7,0.9-2.9C106.9,12.8,106.6,11.8,106,11.1 M96.9,8.7
		c0.1,0.1,0.3,0.2,0.5,0.2c0.2,0,0.3-0.1,0.5-0.2C98,8.6,98,8.4,98,8.1c0-0.3-0.1-0.5-0.2-0.6c-0.1-0.1-0.3-0.2-0.5-0.2
		c-0.2,0-0.4,0.1-0.5,0.2c-0.1,0.1-0.2,0.3-0.2,0.6C96.7,8.4,96.7,8.6,96.9,8.7 M97.9,10.2h-1.1v7.6h1.1V10.2z M93.1,10.4
		c-0.4,0.3-0.7,0.6-1,1.1h-0.1l-0.1-1.4H91v7.6h1.1v-4.1c0-0.7,0.2-1.4,0.7-1.9c0.4-0.5,1-0.7,1.6-0.7c0.2,0,0.5,0,0.8,0.1l0.2-1.1
		c-0.3-0.1-0.6-0.1-0.9-0.1C94,10,93.5,10.2,93.1,10.4 M84.1,16.6c-0.3-0.2-0.4-0.5-0.4-0.9c0-0.5,0.2-0.9,0.6-1.2
		c0.4-0.3,1.1-0.4,2-0.4l1.1,0v0.7c0,0.7-0.2,1.3-0.6,1.6c-0.4,0.4-1,0.6-1.7,0.6C84.7,17,84.4,16.8,84.1,16.6 M88.6,17.8v-5.2
		c0-0.9-0.2-1.5-0.7-1.9c-0.4-0.4-1.1-0.6-2-0.6c-0.4,0-0.9,0.1-1.3,0.2c-0.4,0.1-0.9,0.3-1.2,0.5l0.4,0.9c0.8-0.4,1.5-0.6,2.1-0.6
		c0.6,0,1,0.1,1.2,0.4c0.3,0.3,0.4,0.7,0.4,1.3v0.5l-1.3,0c-2.5,0.1-3.7,0.9-3.7,2.4c0,0.7,0.2,1.3,0.6,1.7c0.4,0.4,1,0.6,1.8,0.6
		c0.6,0,1-0.1,1.4-0.3c0.4-0.2,0.8-0.5,1.1-1h0.1l0.2,1.1H88.6z M81.3,17.5v-1c-0.7,0.3-1.3,0.4-1.9,0.4c-0.7,0-1.3-0.2-1.7-0.7
		c-0.4-0.5-0.6-1.2-0.6-2.1c0-2,0.8-2.9,2.3-2.9c0.2,0,0.5,0,0.8,0.1c0.3,0.1,0.6,0.2,0.8,0.3l0.4-1c-0.2-0.1-0.5-0.2-0.9-0.3
		c-0.4-0.1-0.7-0.1-1.1-0.1c-1.1,0-2,0.3-2.6,1c-0.6,0.7-0.9,1.7-0.9,2.9c0,1.2,0.3,2.2,0.9,2.9c0.6,0.7,1.5,1,2.6,1
		C80.2,17.9,80.8,17.8,81.3,17.5 M72.9,8.7c0.1,0.1,0.3,0.2,0.5,0.2c0.2,0,0.3-0.1,0.5-0.2C74,8.6,74,8.4,74,8.1
		c0-0.3-0.1-0.5-0.2-0.6c-0.1-0.1-0.3-0.2-0.5-0.2c-0.2,0-0.4,0.1-0.5,0.2c-0.1,0.1-0.2,0.3-0.2,0.6C72.7,8.4,72.7,8.6,72.9,8.7
		 M73.9,10.2h-1.1v7.6h1.1V10.2z M69.3,16.6C69.1,16.3,69,16,69,15.5v-4.5h2.2v-0.9H69V8.4h-0.7L67.8,10l-1.1,0.5v0.6h1.1v4.5
		c0,1.5,0.7,2.3,2.2,2.3c0.2,0,0.4,0,0.7-0.1c0.2,0,0.4-0.1,0.6-0.1v-0.9c-0.1,0-0.3,0.1-0.5,0.1c-0.2,0-0.4,0-0.6,0
		C69.8,17,69.5,16.8,69.3,16.6 M66,17.5v-1c-0.7,0.3-1.3,0.4-1.9,0.4c-0.7,0-1.3-0.2-1.7-0.7c-0.4-0.5-0.6-1.2-0.6-2.1
		c0-2,0.8-2.9,2.3-2.9c0.2,0,0.5,0,0.8,0.1c0.3,0.1,0.6,0.2,0.8,0.3l0.4-1c-0.2-0.1-0.5-0.2-0.9-0.3c-0.4-0.1-0.7-0.1-1.1-0.1
		c-1.1,0-2,0.3-2.6,1c-0.6,0.7-0.9,1.7-0.9,2.9c0,1.2,0.3,2.2,0.9,2.9c0.6,0.7,1.5,1,2.6,1C64.8,17.9,65.5,17.8,66,17.5 M54.1,16.6
		c-0.3-0.2-0.4-0.5-0.4-0.9c0-0.5,0.2-0.9,0.6-1.2c0.4-0.3,1.1-0.4,2-0.4l1.1,0v0.7c0,0.7-0.2,1.3-0.6,1.6c-0.4,0.4-1,0.6-1.7,0.6
		C54.7,17,54.4,16.8,54.1,16.6 M58.6,17.8v-5.2c0-0.9-0.2-1.5-0.7-1.9c-0.4-0.4-1.1-0.6-2-0.6c-0.4,0-0.9,0.1-1.3,0.2
		c-0.4,0.1-0.9,0.3-1.2,0.5l0.4,0.9c0.8-0.4,1.5-0.6,2.1-0.6c0.6,0,1,0.1,1.2,0.4c0.3,0.3,0.4,0.7,0.4,1.3v0.5l-1.3,0
		c-2.5,0.1-3.7,0.9-3.7,2.4c0,0.7,0.2,1.3,0.6,1.7c0.4,0.4,1,0.6,1.8,0.6c0.6,0,1-0.1,1.4-0.3c0.4-0.2,0.8-0.5,1.1-1h0.1l0.2,1.1
		H58.6z M49.5,10.4c-0.4,0.3-0.7,0.6-1,1.1h-0.1l-0.1-1.4h-0.9v7.6h1.1v-4.1c0-0.7,0.2-1.4,0.7-1.9c0.4-0.5,1-0.7,1.6-0.7
		c0.2,0,0.5,0,0.8,0.1l0.2-1.1c-0.3-0.1-0.6-0.1-0.9-0.1C50.3,10,49.9,10.2,49.5,10.4 M40.1,8.7h1.3c0.9,0,1.6,0.2,2,0.5
		c0.4,0.3,0.7,0.8,0.7,1.5c0,0.7-0.2,1.3-0.7,1.6c-0.5,0.3-1.2,0.5-2.3,0.5h-1.1V8.7z M41.6,7.6H39v10.1h1.2v-4h1.2
		c1.3,0,2.3-0.3,3-0.8c0.7-0.6,1-1.3,1-2.4C45.4,8.6,44.1,7.6,41.6,7.6"/>
</g>
<polygon class="st5" points="15.4,19.4 15.4,15.4 18.9,15.4 20.1,16.6 20.1,17.9 18.9,19 17.7,19.3 "/>
<polygon class="st6" points="10.6,23.7 10.6,15.4 9.4,16.6 8.3,17.8 7.1,19 7.1,20.2 8.3,21.3 "/>
<polygon class="st7" points="15.4,10.7 18.9,10.7 21.3,11.9 22.4,11.9 20.1,9.5 18.9,8.4 16.5,9.2 "/>
<polygon class="st8" points="24.9,18.7 23.7,21.1 22.5,22.3 20.2,23.7 15.4,23.7 15.4,28.2 15.4,29.3 19,30.5 21.4,28.2 28.4,21.1 
	29.3,18.7 27.2,16.3 24.9,14 "/>
<g>
	<defs>
		<rect id="SVGID_3_" x="3.6" y="7.4" width="121.9" height="23.4"/>
	</defs>
	<clipPath id="SVGID_4_">
		<use xlink:href="#SVGID_3_"  style="overflow:visible;"/>
	</clipPath>
	<path class="st9" d="M8.4,13c0-0.3-0.2-0.5-0.5-0.5H4.1c-0.3,0-0.5,0.2-0.5,0.5c0,0.3,0.2,0.5,0.5,0.5h3.8
		C8.2,13.5,8.4,13.3,8.4,13"/>
	<path class="st9" d="M27.8,21l-8.2,8.2c-1.5,1.5-2.9,0.2-3,0L16,28.5v-4.3h1.2c1.7,0,2.9,0,3.6-0.2c0.8-0.2,1.5-0.5,2.1-1
		c0.8-0.6,1.4-1.4,1.8-2.3c0.4-0.9,0.6-2,0.6-3.2c0-0.8-0.1-1.6-0.3-2.4l2.8,2.8C29.3,19.4,28,20.8,27.8,21 M8.3,17.9l1.7-1.7v6.4
		L8.3,21C6.8,19.5,8.2,18.1,8.3,17.9 M16.6,9.7C17.1,9.2,17.6,9,18,9c0.8,0,1.5,0.6,1.6,0.7l1.2,1.2c-0.1,0-0.1,0-0.2-0.1
		c-0.9-0.2-2.4-0.3-4.6-0.3h-0.2L16.6,9.7z M15,27.2l-4-3.9v-8.1l3.8-3.8H16c2.1,0,3.6,0.1,4.4,0.3c0.8,0.2,1.5,0.5,2,1
		c0.6,0.5,1.1,1.2,1.5,2c0.3,0.8,0.5,1.7,0.5,2.7c0,1.1-0.2,2-0.5,2.8c-0.3,0.8-0.8,1.4-1.5,1.9c-0.5,0.4-1.1,0.6-1.7,0.7
		c-0.7,0.2-1.8,0.2-3.4,0.2H15V27.2z M28.5,17.2L20.3,9c-0.8-0.8-2.7-1.7-4.5,0.1l-1.4,1.4H5.8c-0.3,0-0.5,0.2-0.5,0.5
		c0,0.3,0.2,0.5,0.5,0.5h7.7l-5.8,5.7c0,0-0.6,0.5-0.8,1.3c-0.3,0.8-0.3,1.9,0.8,3.1l8.2,8.2c0,0,0.6,0.6,1.4,0.8
		c0.3,0.1,0.6,0.2,0.9,0.2c0.7,0,1.4-0.2,2.2-1l8.2-8.2c0,0,0.6-0.6,0.8-1.4C29.6,19.5,29.7,18.3,28.5,17.2"/>
	<path class="st9" d="M18.8,18.7c-0.3,0.2-0.9,0.5-2.3,0.5H16v-3.7h0.5c1.4,0,2,0.3,2.3,0.5c0.3,0.2,0.5,0.7,0.5,1.3
		C19.3,18,19.1,18.4,18.8,18.7 M20.3,17.3c0-1-0.3-1.7-0.9-2.2c-0.6-0.4-1.5-0.7-2.9-0.7H15v5.7h1.4c1.4,0,2.3-0.2,2.9-0.6
		C20,19.1,20.3,18.3,20.3,17.3"/>
</g>
</svg>
