<?xml version="1.0" encoding="utf-8"?>
<!-- Generator: Adobe Illustrator 20.0.0, SVG Export Plug-In . SVG Version: 6.00 Build 0)  -->
<svg version="1.1" id="Layer_1" xmlns="http://www.w3.org/2000/svg" xmlns:xlink="http://www.w3.org/1999/xlink" x="0px" y="0px"
	 viewBox="0 0 30 30" style="enable-background:new 0 0 30 30;" xml:space="preserve">
<style type="text/css">
	.st0{fill:#87879B;}
</style>
<g>
	<g>
		<path class="st0" d="M15,17c-3.3,0-6-2.7-6-6s2.7-6,6-6s6,2.7,6,6S18.3,17,15,17z M15,7c-2.2,0-4,1.8-4,4s1.8,4,4,4s4-1.8,4-4
			S17.2,7,15,7z"/>
	</g>
	<g>
		<path class="st0" d="M24,25c-0.6,0-1-0.4-1-1c0-3.9-3.1-7-7-7h-2c-3.9,0-7,3.1-7,7c0,0.6-0.4,1-1,1s-1-0.4-1-1c0-5,4-9,9-9h2
			c5,0,9,4,9,9C25,24.6,24.6,25,24,25z"/>
	</g>
</g>
</svg>
