<?xml version="1.0" encoding="utf-8"?>
<!-- Generator: Adobe Illustrator 20.0.0, SVG Export Plug-In . SVG Version: 6.00 Build 0)  -->
<svg version="1.1" id="Layer_1" xmlns="http://www.w3.org/2000/svg" xmlns:xlink="http://www.w3.org/1999/xlink" x="0px" y="0px"
	 viewBox="0 0 25 25" style="enable-background:new 0 0 25 25;" xml:space="preserve">
<style type="text/css">
	.st0{clip-path:url(#SVGID_2_);}
	.st1{clip-path:url(#SVGID_4_);fill:#ECECEC;}
	.st2{clip-path:url(#SVGID_4_);fill:#CB8B00;}
	.st3{clip-path:url(#SVGID_4_);fill:#F9BE40;}
	.st4{clip-path:url(#SVGID_4_);fill:#B87900;}
	.st5{opacity:0.42;clip-path:url(#SVGID_4_);}
	.st6{filter:url(#Adobe_OpacityMaskFilter);}
	.st7{clip-path:url(#SVGID_6_);fill:url(#SVGID_8_);}
	.st8{clip-path:url(#SVGID_6_);mask:url(#SVGID_7_);}
	.st9{clip-path:url(#SVGID_10_);fill:#FFFFFF;}
</style>
<g>
	<defs>
		<rect id="SVGID_1_" width="25" height="25"/>
	</defs>
	<clipPath id="SVGID_2_">
		<use xlink:href="#SVGID_1_"  style="overflow:visible;"/>
	</clipPath>
	<g class="st0">
		<defs>
			<rect id="SVGID_3_" y="0" width="25" height="25"/>
		</defs>
		<clipPath id="SVGID_4_">
			<use xlink:href="#SVGID_3_"  style="overflow:visible;"/>
		</clipPath>
		<path class="st1" d="M12.5,25C19.4,25,25,19.4,25,12.5C25,5.6,19.4,0,12.5,0S0,5.6,0,12.5C0,19.4,5.6,25,12.5,25"/>
		<path class="st2" d="M22.5,12.5c0,5.4-4.4,9.8-9.8,9.8s-9.8-4.4-9.8-9.8s4.4-9.8,9.8-9.8S22.5,7.1,22.5,12.5"/>
		<path class="st3" d="M21,12.5c0,4.6-3.7,8.3-8.3,8.3c-4.6,0-8.3-3.7-8.3-8.3S8,4.2,12.6,4.2C17.2,4.2,21,7.9,21,12.5"/>
		<path class="st4" d="M12.9,15.7c-0.8,0-1.5-0.2-2.1-0.7c-0.8-0.6-1.4-1.5-1.5-2.4c0-0.2,0.1-0.3,0.3-0.4c0.2,0,0.3,0.1,0.4,0.3
			c0.1,0.8,0.6,1.5,1.2,2c0.7,0.5,1.5,0.7,2.3,0.5c1.3-0.2,1.8-1.5,1.9-2.1l-3.2,0.4c-0.2,0-0.3-0.1-0.4-0.3c0-0.2,0.1-0.3,0.3-0.4
			l3.7-0.4c0.1,0,0.2,0,0.3,0.1c0.1,0.1,0.1,0.2,0.1,0.3c0,0.1-0.3,2.7-2.5,3.1C13.3,15.6,13.1,15.7,12.9,15.7"/>
		<path class="st4" d="M12.5,17.6c-1.5,0-2.9-0.8-4.1-2.2c-1-1.2-1.5-2.5-1.6-2.6c-0.1-0.2,0-0.4,0.2-0.4c0.2-0.1,0.4,0,0.4,0.2
			c0,0,2,4.9,5.7,4.4c3.7-0.5,4.2-4.3,4.2-4.3c0-0.2,0.2-0.3,0.4-0.3c0.2,0,0.3,0.2,0.3,0.4c0,0-0.6,4.3-4.8,4.9
			C13,17.6,12.7,17.6,12.5,17.6"/>
		<path class="st4" d="M11.4,10.5c0,0-0.1,0-0.1,0c-0.2-0.1-0.2-0.3-0.2-0.4l1-2.3c0.1-0.2,0.3-0.2,0.4-0.2c0.2,0.1,0.2,0.3,0.2,0.4
			l-1,2.3C11.7,10.4,11.5,10.5,11.4,10.5"/>
		<path class="st4" d="M12.9,11.1c0,0-0.1,0-0.1,0c-0.2-0.1-0.3-0.3-0.2-0.4l0.7-1.7c0.1-0.2,0.3-0.2,0.4-0.2
			c0.2,0.1,0.2,0.3,0.2,0.4l-0.7,1.7C13.1,11,13,11.1,12.9,11.1"/>
		<path class="st4" d="M14.5,11.7c0,0-0.1,0-0.1,0c-0.2-0.1-0.2-0.3-0.2-0.4l1-2.3c0.1-0.2,0.3-0.2,0.4-0.2c0.2,0.1,0.2,0.3,0.2,0.4
			l-1,2.3C14.7,11.6,14.6,11.7,14.5,11.7"/>
		<g class="st5">
			<g>
				<defs>
					<rect id="SVGID_5_" x="-7.6" y="-5.7" width="40.5" height="29.2"/>
				</defs>
				<clipPath id="SVGID_6_">
					<use xlink:href="#SVGID_5_"  style="overflow:visible;"/>
				</clipPath>
				<defs>
					<filter id="Adobe_OpacityMaskFilter" filterUnits="userSpaceOnUse" x="-7.6" y="-5.7" width="40.5" height="29.2">
						<feFlood  style="flood-color:white;flood-opacity:1" result="back"/>
						<feBlend  in="SourceGraphic" in2="back" mode="normal"/>
					</filter>
				</defs>
				<mask maskUnits="userSpaceOnUse" x="-7.6" y="-5.7" width="40.5" height="29.2" id="SVGID_7_">
					<g class="st6">
						
							<linearGradient id="SVGID_8_" gradientUnits="userSpaceOnUse" x1="1.8398" y1="23.1486" x2="3.0337" y2="23.1486" gradientTransform="matrix(11.9891 11.2192 11.2192 -11.9891 -278.2145 257.3106)">
							<stop  offset="0" style="stop-color:#FFFFFF"/>
							<stop  offset="1" style="stop-color:#000000"/>
						</linearGradient>
						<polygon class="st7" points="11.3,-26.5 47.1,8 14,44.3 -21.8,9.9 						"/>
					</g>
				</mask>
				<g class="st8">
					<g>
						<defs>
							<rect id="SVGID_9_" x="-7.6" y="-5.7" width="40.5" height="29.2"/>
						</defs>
						<clipPath id="SVGID_10_">
							<use xlink:href="#SVGID_9_"  style="overflow:visible;"/>
						</clipPath>
						<path class="st9" d="M22.5,12.5c0,5.4-4.4,9.8-9.8,9.8s-9.8-4.4-9.8-9.8s4.4-9.8,9.8-9.8S22.5,7.1,22.5,12.5"/>
					</g>
				</g>
			</g>
		</g>
	</g>
</g>
</svg>
